<?xml version="1.0" standalone="no"?>
<!DOCTYPE svg PUBLIC "-//W3C//DTD SVG 1.1//EN" "http://www.w3.org/Graphics/SVG/1.1/DTD/svg11.dtd" >
<svg xmlns="http://www.w3.org/2000/svg" xmlns:xlink="http://www.w3.org/1999/xlink" version="1.1">
<metadata>
Created by FontForge 20170731 at Tue Dec 21 14:57:25 2021
 By Aleksey,,,
Copyright 2015 Adobe Systems Incorporated. All rights reserved.
</metadata>
<defs>
<font id="BoldBrush" horiz-adv-x="1705" >
  <font-face 
    font-family="BoldBrush"
    font-weight="400"
    font-stretch="normal"
    units-per-em="2048"
    panose-1="0 0 0 0 0 0 0 0 0 0"
    ascent="1638"
    descent="-410"
    x-height="1379"
    cap-height="1445"
    bbox="-205.429 -531.821 2055.33 1901"
    underline-thickness="102"
    underline-position="-307"
    unicode-range="U+0020-FB02"
  />
<missing-glyph horiz-adv-x="536" 
 />
    <glyph glyph-name="lo" unicode="Lo" horiz-adv-x="1212" 
d="M1219 197q4 -5 9 -13t13 -24t6 -21l-22 -84l-19 8q-63 19 -157 20t-198.5 -13.5t-207 -34t-205.5 -46.5t-169.5 -46.5t-121.5 -36.5q-50 -16 -86 6.5t-50 67.5t-11 101.5t25 106.5q13 8 24 13q5 263 1.5 678.5t-23.5 529.5q-2 7 6 18t24 15q36 8 70 10t83.5 -10.5t84 -45
t57.5 -105.5t17 -179q-25 -413 -74 -852q120 15 208.5 24t201.5 15t198 2t170.5 -20.5t145.5 -47.5l-11 3l27 -35zM838 369q-76 1 -145.5 39.5t-118.5 98t-85.5 131t-54.5 140t-18 123.5q0 81 16 159t39 133t49 99t45 66t27 26q44 18 89 1.5t79.5 -47t38.5 -52.5q13 4 8 10
q-12 12 -12 15q0 18 24 28q23 10 56 11t72 -8.5t79 -29t77 -54.5t66 -80.5t46.5 -111t17.5 -142.5q0 -152 -48 -278.5t-139 -202.5t-208 -74zM778 1237q-19 -31 -27.5 -47t-25 -54t-24 -81.5t-7.5 -93.5q0 -65 12.5 -120t30.5 -88.5t38.5 -57.5t36 -33.5t24.5 -10.5
q12 -1 30.5 10.5t39.5 39t39 66t30 97.5t12 127q0 61 -10.5 110t-26.5 78.5t-36 50.5t-40 30.5t-36 14.5t-26 5h-11q0 -40 -23 -43z" />
    <glyph glyph-name="lu" unicode="Lu" horiz-adv-x="1230" 
d="M1219 197q4 -5 9 -13t13 -24t6 -21l-22 -84l-19 8q-63 19 -157 20t-198.5 -13.5t-207 -34t-205.5 -46.5t-169.5 -46.5t-121.5 -36.5q-50 -16 -86 6.5t-50 67.5t-11 101.5t25 106.5q13 8 24 13q5 263 1.5 678.5t-23.5 529.5q-2 7 6 18t24 15q36 8 70 10t83.5 -10.5t84 -45
t57.5 -105.5t17 -179q-25 -413 -74 -852q120 15 208.5 24t201.5 15t198 2t170.5 -20.5t145.5 -47.5l-11 3l27 -35zM432 920q-3 130 13.5 242t35.5 165t33 59q47 16 102.5 1t100 -47.5t39.5 -53.5q-28 -116 -40.5 -214t-11 -163.5t12.5 -117t25.5 -80t31.5 -47t28.5 -24.5
t18.5 -7q17 -2 46.5 16t62.5 53t56.5 102t23.5 150q0 80 -6.5 146.5t-16 105t-19 65.5t-16.5 37l-6 9l-8 2q1 0 2 0.5t4.5 2t5.5 3t3.5 4t0.5 4.5q-12 12 -12 15q0 18 25 28q23 7 48.5 8.5t52.5 -12.5t52.5 -35.5t48 -60t39.5 -85t26.5 -111t8.5 -138.5q-2 -153 -49 -281
t-137 -206t-205 -76q-95 1 -176.5 55t-132.5 135.5t-80 173.5t-31 177z" />
    <glyph glyph-name="lq" unicode="Lq" horiz-adv-x="1259" 
d="M1219 197q4 -5 9 -13t13 -24t6 -21l-22 -84l-19 8q-63 19 -157 20t-198.5 -13.5t-207 -34t-205.5 -46.5t-169.5 -46.5t-121.5 -36.5q-50 -16 -86 6.5t-50 67.5t-11 101.5t25 106.5q13 8 24 13q5 263 1.5 678.5t-23.5 529.5q-2 7 6 18t24 15q36 8 70 10t83.5 -10.5t84 -45
t57.5 -105.5t17 -179q-25 -413 -74 -852q120 15 208.5 24t201.5 15t198 2t170.5 -20.5t145.5 -47.5l-11 3l27 -35zM1335 520q1 -1 1.5 -3.5t1.5 -8.5t-1 -10q-2 -5 -13 -11.5t-22 -10.5l-10 -3l8 -10l-30 -8q0 -2 6 -4q-55 -24 -195 53q-103 -119 -250 -119
q-76 1 -145.5 39.5t-118 98.5t-85 131.5t-54.5 140t-18 123.5q0 81 15 157.5t36.5 129t45.5 94.5t42 62.5t26 24.5q45 17 90 1t79 -47.5t34 -53.5q0 -13 -14.5 -40t-31.5 -57t-31.5 -87.5t-14.5 -124.5q0 -65 12.5 -120t30.5 -88.5t38.5 -57t36 -33t23.5 -10.5q15 0 33 12
q-43 50 -63 96q15 67 65 88.5t99 -14.5q18 81 18 158q0 58 -9 104.5t-23 75t-31.5 50t-35 31t-31.5 15t-23 6.5h-9l-10 2l16 15q-1 2 -6.5 7t-5.5 7q0 19 25 29q23 10 54.5 11t68.5 -9.5t74.5 -30.5t72 -55t61.5 -80t42.5 -108.5t15.5 -137.5q-3 -168 -64 -309
q71 -59 160 -107z" />
    <glyph glyph-name="la" unicode="La" horiz-adv-x="1335" 
d="M434 502q-12 28 -24 28q87 220 149 435.5t92 468.5q238 36 310 -15q151 4 169 -119q61 -447 242 -929l-33 32l-14 -22l-22 12l-19 13l-22 -19q-9 19 -19 35l-35 -78l-16 10q-243 70 -627 2q-66 -11 -99.5 31.5t-31.5 114.5zM764 688q125 -9 244 -41q-58 132 -123 307
q-50 -128 -121 -266zM1350 141q4 -5 9.5 -13t14 -24t6.5 -22l-24 -84l-19 10q-142 38 -389.5 23t-479.5 -50.5t-327 -66.5q-51 -16 -87.5 7t-51 68t-11.5 101.5t25 106.5q4 2 12.5 6t12.5 6q5 261 2 678t-23 530q-2 7 6.5 17.5t22.5 13.5q24 6 48 9t57.5 1t62.5 -12t58 -34
t48.5 -60.5t30 -96.5t6.5 -137q-15 -280 -71 -850q182 20 379 19.5t390 -29.5t294 -80h-11l27 -33z" />
    <glyph glyph-name="ao" unicode="ao" horiz-adv-x="1994" 
d="M49 477q-12 29 -24 29q188 467 241 903q239 35 309 -14q67 2 113.5 -25.5t56.5 -93.5q13 -93 34.5 -205t77.5 -320.5t130 -404.5l-33 33l-14 -23l-22 15l-19 10l-22 -19q-9 19 -19 37l-33 -80l-18 13q-252 70 -627 0q-67 -11 -100 31t-31 114zM379 664q112 -5 244 -41
q-56 129 -123 307q-50 -128 -121 -266zM1057 117q4 -5 9 -13t13 -24.5t6 -22.5l-22 -84l-19 11q-165 23 -461.5 4t-424.5 -60q-51 -17 -87.5 6t-51 68t-11.5 102t25 107q101 59 339.5 65.5t446 -31t238.5 -91.5q3 -2 -3 0l-7 2l28 -35zM950 711q0 108 12.5 204t32 163
t45.5 123.5t49 90t46.5 59t35.5 34.5t17 12q38 20 82.5 9.5t83 -36t64.5 -60.5t26 -63q0 -13 -18.5 -38t-44.5 -64t-52 -93t-44.5 -142.5t-18.5 -194.5q0 -112 20.5 -206.5t50 -151t64 -97t59.5 -57t39 -17.5q20 -2 50 18.5t65 67.5t65 112t50 165.5t20 214.5
q0 104 -16.5 187t-43 133t-58 85.5t-63.5 50.5t-58.5 23t-43.5 8h-16l-14 4l21 12q8 6 5 11t41 -0.5t97 -27t73 -56.5q-16 42 -73.5 68t-106.5 34l-49 9q0 34 39 51q38 17 85.5 21t100.5 -7.5t105 -38.5t99.5 -77t83.5 -116t57.5 -162.5t21.5 -211.5q0 -148 -32 -277
t-83 -216.5t-113 -150.5t-122 -92.5t-111 -29.5q-127 0 -233.5 45t-177.5 118t-120.5 167.5t-71.5 191t-22 191.5z" />
    <glyph glyph-name="au" unicode="au" horiz-adv-x="1986" 
d="M49 477q-12 29 -24 29q188 467 241 903q239 35 309 -14q67 2 113.5 -25.5t56.5 -93.5q13 -93 34.5 -205t77.5 -320.5t130 -404.5l-33 33l-14 -23l-22 15l-19 10l-22 -19q-9 19 -19 37l-33 -80l-18 13q-252 70 -627 0q-67 -11 -100 31t-31 114zM379 664q112 -5 244 -41
q-56 129 -123 307q-50 -128 -121 -266zM1010 121q4 -5 9 -13t13 -24.5t6 -22.5l-22 -84l-19 11q-167 22 -438 2t-401 -62q-51 -17 -87.5 6t-51 68t-11.5 102t25 107q101 59 328 66.5t422.5 -29t226.5 -90.5q2 -2 -3 -1l-8 3l29 -35zM1350 1241q1 64 -43.5 104.5t-102.5 51
t-113 5.5t-77 -24q-5 -7 -4 -21t4 -28l4 -14q-8 -31 -20 -81t-33 -171.5t-23 -202.5q-1 -52 1 -106t14.5 -144.5t35 -170t68.5 -167t109 -151t162 -108t222 -50.5t218.5 65.5t146 192t74.5 269.5t4 304t-64.5 288t-132 228t-198.5 120q-1 0 2.5 -3l10.5 -9t16 -14.5t20 -20
t22.5 -24.5t23.5 -30t22.5 -34.5t20 -38.5t15.5 -42q-7 17 -17.5 35.5t-22.5 35t-26 32.5t-28 29.5t-27 25.5t-25 21.5t-20.5 16.5t-14.5 11l-5 4q-12 2 -35 2l-14 -18q50 -34 91.5 -130t65.5 -221.5t23 -269t-28 -270t-96.5 -225.5t-174.5 -135q-68 91 -98.5 230t-25 279
t20.5 261t33.5 213.5t18.5 99.5z" />
    <glyph glyph-name="aq" unicode="aq" horiz-adv-x="2009" 
d="M49 477q-12 29 -24 29q188 467 241 903q239 35 309 -14q67 2 113.5 -25.5t56.5 -93.5q13 -93 34.5 -205t77.5 -320.5t130 -404.5l-33 33l-14 -23l-22 15l-19 10l-22 -19q-9 19 -19 37l-33 -80l-18 13q-252 70 -627 0q-67 -11 -100 31t-31 114zM379 664q112 -5 244 -41
q-56 129 -123 307q-50 -128 -121 -266zM1022 119q4 -5 9 -13t13.5 -24.5t6.5 -22.5l-23 -84l-18 11q-166 23 -444.5 3.5t-407.5 -61.5q-51 -17 -87.5 6t-51 68t-11.5 102t25 107q101 59 331 66t428.5 -30t229.5 -91q2 -2 -4 0l-6 2l28 -35zM2054 31q4 -17 -4 -31
q-4 -5 -19.5 -10t-29.5 -8l-14 -2l10 -15l-43 -4l8 -6q1 -1 0 -2q-77 -18 -231 102q-80 -51 -152 -51q-127 0 -234.5 44t-178.5 115.5t-121 164t-72.5 187t-22.5 187.5q0 134 20.5 253.5t49.5 195t61 133t52.5 82t27.5 27.5q52 23 107 5t99 -56.5t56 -75.5q3 -10 4.5 -19
t1.5 -15.5t-2.5 -13t-4 -9.5t-6.5 -8t-7 -6.5t-8 -5.5t-8 -5q-123 -213 -123 -477q0 -110 20.5 -202.5t50 -148t64 -95.5t59.5 -56t39 -17q21 -3 62 27q-119 135 -154 262q19 49 54.5 76t73.5 28t76 -24.5t62 -73.5q4 -8 13.5 -25.5t13.5 -25.5q51 138 51 324
q0 97 -15 177.5t-38.5 132t-52.5 91t-58 60t-52.5 33t-38.5 15.5l-15 3l-15 6l21 12q-47 13 -47 21q0 1 20 5.5t51.5 9.5t55.5 7q-25 3 -52 2t-49 -5l-22 -3q29 29 68 45q38 17 84 19.5t96.5 -12t99.5 -44.5t93.5 -82t78.5 -120t54 -164.5t20 -208.5q0 -347 -170 -568
q77 -83 162 -149z" />
    <glyph glyph-name="oa" unicode="oa" horiz-adv-x="1765" 
d="M49 918q0 81 16 159t38.5 133t48 99t44.5 66t27 26q45 18 90 1t79 -47t38 -52q5 -10 0 -28.5t-20 -21.5q-1 -2 -10 -17.5t-12.5 -22t-12 -22.5t-12.5 -27t-11 -29t-10.5 -34.5t-8 -36.5t-6 -42t-1.5 -45q0 -65 12.5 -120t30.5 -88.5t38.5 -57t36 -33t23.5 -10.5
q12 -1 30.5 10.5t39.5 39t39 66t30 97.5t12 127q0 61 -10.5 110.5t-26.5 78.5t-36 50.5t-40 30.5t-36 13.5t-27 4.5h-10l-8 2q1 0 2 0.5t4.5 2.5t5.5 3.5t3.5 4t0.5 4.5l-4 3q-4 3 -7 6t-3 5q7 21 25 29q23 10 55.5 11.5t71.5 -8t79 -29t77 -54.5t66 -81t46.5 -112
t17.5 -143q0 -152 -48 -278.5t-138.5 -202.5t-206.5 -74q-64 1 -124 28.5t-105 72t-82.5 100.5t-61 115.5t-36.5 115.5t-13 101zM1772 203q0 -7 15 -53t15 -52q-2 -34 -14 -65q-2 -4 -7.5 -9t-12 -9t-7.5 -5q-3 -4 -3 -9t-3 -7q-3 -4 -11 -7.5t-9 -4.5l-33 -5
q-31 0 -86.5 82t-120.5 220q-32 -14 -45 -17q-83 9 -453 -39q-77 -148 -151 -266q-4 -2 -7 3t-7 13.5t-9 12.5q-3 3 -14.5 -0.5t-15.5 0.5l-13 63q-20 5 -32 23q-231 14 -558 -90q-51 -17 -87.5 5.5t-50.5 67.5t-11 102t25 107q82 48 213 65.5t255.5 6.5t206.5 -43
q35 89 55.5 145t64.5 187.5t72 239.5t55.5 254.5t37.5 277.5q237 29 309 -17q151 4 164 -112q27 -224 59 -370q75 -340 234 -701q1 -9 -2 -6q-3 1 -9 8q-9 8 -9 4zM1128 506q130 3 269 -10q-75 179 -137 362q-61 -179 -132 -352z" />
    <glyph glyph-name="oo" unicode="oo" horiz-adv-x="1648" 
d="M25 268q-22 -50 -25 -107t11.5 -102t51 -67.5t87.5 -5.5q72 23 217 48.5t338 46.5t426.5 20.5t431.5 -29.5l18 -11q19 70 23 84q3 15 -21 48q-4 6 -146.5 30t-364 43t-380.5 4q96 13 216.5 13t224 -9.5t193.5 -20.5t142 -21l52 -9l-27 33q3 -1 5.5 -1.5t4.5 1.5
q-30 53 -351.5 80t-673 9t-453.5 -77zM-6 922q0 81 16 159t38.5 133t48 99t44.5 66t27 26q45 18 90 1t79 -47t38 -52q4 -14 -1 -30.5t-20 -19.5q-1 -2 -10 -17.5t-12.5 -22t-12 -22.5t-12.5 -27t-11 -29t-10.5 -34.5t-8 -36.5t-6 -42t-1.5 -45q0 -65 12.5 -120t30.5 -88.5
t39 -57t36.5 -33t23.5 -10.5q12 -1 30.5 10.5t39.5 39t39 66t30 97.5t12 127q0 61 -10.5 110.5t-26.5 78.5t-36 50.5t-40 30.5t-36 13.5t-26 4.5h-11l-8 3q1 0 2 0.5t4.5 2t5.5 3t3.5 4t0.5 4.5l-4 3q-4 3 -7 6t-3 5q7 22 24 29q23 10 56 11.5t72 -8t79 -29t77 -54.5t66 -81
t46.5 -112t17.5 -143q0 -152 -48 -278.5t-138.5 -202.5t-206.5 -74q-64 1 -124 28.5t-105 72t-82.5 100.5t-61 115.5t-36.5 115.5t-13 101zM821 922q0 81 16 159t38.5 133t48 99t44.5 66t27 26q45 18 90 1t79 -47t38 -52q5 -10 0 -28.5t-20 -21.5q-1 -2 -10 -17.5t-12.5 -22
t-12 -22.5t-12.5 -27t-11 -29t-10.5 -34.5t-8 -36.5t-6 -42t-1.5 -45q0 -65 12.5 -120t30.5 -88.5t38.5 -57t36 -33t23.5 -10.5q12 -1 30.5 10.5t40 39t39.5 66t30 97.5t12 127q0 84 -19.5 145t-46.5 87t-54.5 40.5t-46.5 15.5h-20l-8 3q1 0 2 0.5t4.5 2t5.5 3t3.5 4
t0.5 4.5l-4 3q-4 3 -7 6t-3 5q7 21 25 29q23 10 55.5 11.5t71.5 -8t79 -29t77 -54.5t66 -81t46.5 -112t17.5 -143q0 -152 -48 -278.5t-138.5 -202.5t-206.5 -74q-64 1 -124 28.5t-105 72t-82.5 100.5t-61 115.5t-36.5 115.5t-13 101z" />
    <glyph glyph-name="ou" unicode="ou" horiz-adv-x="1820" 
d="M39 268q-22 -50 -25 -107t11.5 -102t51 -67.5t87.5 -5.5q154 50 326 76.5t321 5.5l18 -11q19 70 23 84q2 6 -5.5 21t-15.5 27l-8 12l17 4l-27 33q3 -1 5.5 -1.5t4.5 1.5q-23 41 -119.5 69t-215 35.5t-245.5 -11t-204 -63.5zM1432 1432q111 -25 198.5 -120t132 -228
t64.5 -288t-4 -304t-74.5 -269.5t-146 -192t-218.5 -65.5q-101 5 -186 35.5t-144.5 76.5t-107 110t-77 128.5t-50 139.5t-30 136.5t-13.5 125.5q-44 -151 -139.5 -241t-222.5 -87q-64 1 -124 28.5t-105 72t-82.5 100.5t-61 115.5t-36.5 115.5t-13 101q0 81 16 159t38.5 133
t48 99t44.5 66t27 26q45 18 90 1t79 -47t38 -52v-2q13 4 10 12l-4 3q-4 3 -7 6t-3 5q7 22 24 29q24 10 58 11t74 -8.5t81.5 -33t78.5 -57.5t66.5 -88t43.5 -119q10 59 23.5 122t21.5 97l8 33q-2 6 -4 14t-4.5 28t4.5 21q22 19 77 24t113 -5.5t102.5 -51t43.5 -104.5
q0 -7 -18.5 -99.5t-33.5 -213.5t-20.5 -261t25 -279t98.5 -230q105 36 174.5 135t96.5 225.5t28 270t-23 269t-65.5 221.5t-91.5 130l14 19q17 0 35 -3l5 -4q6 -4 14.5 -11t20.5 -16.5t25 -21.5t27 -25.5t28 -29t26 -32t22.5 -35t17.5 -35.5q-6 21 -15.5 42t-20 38.5
t-22.5 34t-23.5 30t-22.5 25t-20 19.5t-16 14l-10.5 9t-2.5 3zM410 672q12 -1 30.5 10.5t39.5 39t39 66t30 97.5t12 127q0 61 -10.5 110.5t-26.5 78.5t-36 50.5t-40 30.5t-36 13.5t-26 4.5h-11q2 -14 -3.5 -28t-19.5 -15q-1 -2 -10 -17.5t-12.5 -22t-12 -22.5t-12.5 -27
t-11 -29t-10.5 -34.5t-8 -36.5t-6 -42t-1.5 -45q0 -65 12.5 -120t30.5 -88.5t39 -57t36.5 -33t23.5 -10.5z" />
    <glyph glyph-name="oq" unicode="oq" horiz-adv-x="1695" 
d="M1675 418q2 -15 -4 -25q-4 -4 -16 -6.5t-23 -2.5l-10 -1l6 -12h-35l6 -4q2 -1 0 -2q-49 -6 -139 71q-87 -62 -188 -59q-64 1 -124 28.5t-105 72t-82.5 100.5t-61 115t-36.5 115t-13 101q0 81 16 159t38.5 133t48 99.5t44.5 66.5t27 26q45 18 90 1t79 -47.5t38 -52.5v-2
q13 4 10 13l-4 3q-4 3 -7 6t-3 5q7 22 24 29q23 10 56 11.5t72 -8t79 -29t77 -54.5t66 -81t46.5 -112t17.5 -143q0 -235 -106 -391q43 -59 102 -117zM1268 659q4 0 10 3q-44 81 -53 145q32 59 85 68t89 -35q20 72 20 159q0 61 -10.5 110.5t-26.5 79t-36 50.5t-40 30t-36 14
t-26 5h-11q2 -14 -3.5 -27t-19.5 -16q-1 -2 -10 -17.5t-12.5 -22t-12 -22.5t-12.5 -27t-11 -29t-10.5 -34.5t-8 -36.5t-6 -42t-1.5 -45q0 -65 12.5 -120t30.5 -88.5t39 -57.5t36.5 -33.5t23.5 -10.5zM735 258q109 9 229 5t237 -16.5t211.5 -27t153 -26t60.5 -13.5
q22 -39 19 -47l-23 -84l-18 10q-198 29 -431 29.5t-426 -20.5t-337.5 -46.5t-216.5 -48.5q-51 -17 -87.5 6t-51 68t-11.5 102t25 107q102 59 453.5 77t673 -9t351.5 -80q1 -3 -6 -1l-4 1l27 -33q-20 4 -54.5 10t-137 19.5t-198.5 21.5t-219 8.5t-219 -12.5zM442 377
q-64 1 -124 28.5t-105 72t-82.5 100.5t-61 115t-36.5 115t-13 101q0 81 16 159t39 133t48.5 99.5t44.5 66.5t27 26q45 18 90 1t78.5 -47.5t37.5 -52.5v-2q14 5 11 13l-4 3q-5 3 -8 6t-3 5q7 21 25 29q23 10 56 11.5t72 -8t79 -29t77 -54.5t66 -81t46.5 -112t17.5 -143
q0 -152 -48 -278.5t-139 -202.5t-207 -74zM381 1245q-1 -2 -10 -17.5t-12.5 -22t-12 -22.5t-12.5 -27t-11 -29t-10.5 -34.5t-8 -36.5t-6 -42t-1.5 -45q0 -65 12.5 -120t30.5 -88.5t38.5 -57.5t36 -33.5t23.5 -10.5q12 -1 30.5 10.5t40 39t39.5 66t30 97.5t12 127
q0 84 -19.5 145t-46.5 87.5t-54.5 41t-47.5 15.5h-19q2 -14 -3 -27t-19 -16z" />
    <glyph glyph-name="uu" unicode="uu" horiz-adv-x="1638" 
d="M10 907q-3 130 13 242.5t34.5 165.5t32.5 59q46 16 93.5 0.5t82 -47.5t29.5 -53q-28 -116 -38.5 -214t-5.5 -163.5t20 -117t33.5 -80t39.5 -47t34 -24.5t21 -7q13 -1 34.5 8.5t48.5 34.5t50.5 60t39.5 92t16 124q0 80 -6.5 147t-16 105.5t-19 65.5t-16.5 37l-6 10l-8 2
q1 0 2 0.5t4.5 2t5.5 3t3.5 4t0.5 4.5q-12 12 -12 14q0 19 25 29q23 7 48.5 8.5t53 -13t53 -35.5t48.5 -59.5t40.5 -85.5t27 -112t9.5 -139q-2 -152 -49.5 -277.5t-138 -201.5t-205.5 -74q-77 1 -145.5 35t-117.5 90t-85 126t-54.5 142t-19.5 139zM842 911q-3 130 13 242.5
t34.5 165.5t32.5 59q46 16 93 0.5t81.5 -47.5t29.5 -53q-28 -116 -38.5 -214t-5.5 -163.5t20 -117t34 -80t39.5 -47t34 -24.5t21.5 -7q13 -1 34.5 8.5t48.5 34.5t50 60t39 92t16 124q0 80 -6.5 147t-15.5 105.5t-18.5 65.5t-16.5 37l-6 10l-8 2q1 0 2 0.5t4.5 2t5.5 3t3.5 4
t0.5 4.5q-12 12 -12 14q0 19 24 29q23 7 48.5 8.5t53 -13t53.5 -35.5t49 -59.5t40.5 -85.5t27 -112t9.5 -139q-2 -152 -49.5 -277.5t-138 -201.5t-205.5 -74q-77 1 -145.5 35t-117.5 90t-85 126t-54.5 142t-19.5 139zM45 264q-22 -50 -25 -107t11.5 -102t51 -67.5t87.5 -5.5
q72 23 217 48.5t338 46.5t426.5 20.5t431.5 -29.5l19 -11q18 70 22 84q3 15 -20 47q-2 2 -60.5 13.5t-152.5 26t-211.5 27t-237.5 16.5t-229 -5q96 13 216.5 13t223.5 -9.5t193 -20.5t142 -21l52 -9l-27 33q3 -1 6 -1.5t5 1.5q-30 53 -352 80t-673.5 9t-453.5 -77z" />
    <glyph glyph-name="ua" unicode="ua" horiz-adv-x="1769" 
d="M43 913q-3 130 13.5 242.5t35.5 165.5t33 59q47 16 100.5 1t96.5 -47t38 -54q-28 -116 -40 -214t-10 -163.5t13.5 -117t27 -80t33.5 -47t29.5 -24.5t18.5 -7q17 -2 46.5 16t62.5 53t56.5 102t23.5 150q0 80 -6.5 146.5t-16 105t-19 65.5t-15.5 37l-7 9l-8 2q1 0 2 0.5
t4.5 2t5.5 3t3.5 4t0.5 4.5q-12 12 -12 14q0 19 25 29q20 8 42 8.5t46 -7t47.5 -25t45 -43t40 -62t32 -81t21 -102t6.5 -122.5q-2 -153 -49.5 -279t-138 -202t-205.5 -74q-77 1 -145.5 35.5t-117.5 90.5t-85 125.5t-54.5 141.5t-19.5 139zM1774 207q0 -7 15 -53t15 -52
q-2 -34 -14 -65q-2 -4 -7.5 -9t-12 -9t-7.5 -5q-3 -4 -3 -9t-3 -7q-3 -4 -10.5 -7.5t-9.5 -4.5q-8 -3 -16.5 -4t-12.5 0h-4q-31 0 -86.5 82t-120.5 219q-32 -14 -45 -17q-83 9 -453 -39q-77 -148 -151 -266q-4 -2 -7 3t-7 13.5t-9 12.5q-3 3 -14.5 -0.5t-15.5 0.5
q-11 33 -11 61l-10 4q-240 33 -604 -82q-49 -16 -84 6t-48.5 66t-10.5 99.5t24 103.5q84 48 220.5 65t263 2t198.5 -51q3 8 27.5 72.5t39 103.5t43 121.5t47.5 146.5t44 157t42 173.5t31.5 177t20.5 185.5q237 29 309 -17q151 4 164 -112q27 -224 59 -370q75 -340 234 -701
q1 -9 -2 -6q-3 1 -9 8q-9 8 -9 4zM1130 510q130 3 269 -10q-75 179 -137 362q-61 -179 -132 -352z" />
    <glyph glyph-name="uq" unicode="uq" horiz-adv-x="1785" 
d="M4 913q-3 130 13.5 242.5t35.5 165.5t33 59q47 16 101 1t97 -47t38 -54q-28 -116 -40 -214t-10 -163.5t13.5 -117t26.5 -80t33 -47t29.5 -24.5t18.5 -7q17 -2 46.5 16t62.5 53t56.5 102t23.5 150q0 80 -6.5 146.5t-16 105t-19 65.5t-16.5 37l-6 9l-8 2q1 0 2 0.5t4.5 2
t5.5 3t3.5 4t0.5 4.5q-12 12 -12 14q0 19 25 29q20 8 42 8.5t46 -7t47.5 -25t45 -43t40 -62t32 -81t21 -102t6.5 -122.5q-2 -153 -49.5 -279t-138 -202t-205.5 -74q-77 1 -145.5 35.5t-117.5 90.5t-85 125.5t-54.5 141.5t-19.5 139zM49 246q-21 -48 -24 -103.5t10.5 -99.5
t48.5 -66t84 -6q364 115 604 82l19 -10q16 68 22 82q2 6 -5.5 20.5t-15.5 25.5l-8 11l17 4l-27 33l10 -2q-22 40 -112 67t-200.5 34t-229.5 -11t-193 -61zM1855 31q4 -17 -4 -31q-4 -5 -19.5 -10t-29.5 -8l-14 -2l10 -15l-43 -4l8 -6q1 -1 0 -2q-77 -18 -231 102
q-80 -51 -152 -51q-127 0 -234 44t-178.5 115.5t-121 164t-72 187t-22.5 187.5q0 134 20.5 253.5t49.5 195t61 133t52.5 82t27.5 27.5q52 23 107 5t99 -56.5t56 -75.5q4 -12 5.5 -21.5t-0.5 -17.5t-3 -13t-7 -10t-8 -7t-9.5 -7t-8.5 -6q-123 -213 -123 -477
q0 -110 20.5 -202.5t50 -148t64 -95.5t60 -56t39.5 -17q20 -3 61 27q-119 135 -154 262q19 49 54.5 76t74 28t76.5 -24.5t62 -73.5q4 -8 13 -25.5t13 -25.5q51 138 51 324q0 97 -15 177.5t-38.5 132t-52.5 91t-58 60t-52.5 33t-38.5 15.5l-15 3l-14 6l20 12q-47 13 -47 21
q0 1 20 5.5t51.5 9.5t55.5 7q-25 3 -52 2t-49 -5l-22 -3q29 29 68 45q38 17 84 19.5t96.5 -12t99.5 -44.5t93.5 -82t78.5 -120t54 -164.5t20 -208.5q0 -347 -170 -568q77 -83 162 -149z" />
    <glyph glyph-name="uo" unicode="uo" horiz-adv-x="1812" 
d="M4 913q-3 130 13.5 242.5t35.5 165.5t33 59q47 16 101 1t97 -47t38 -54q-28 -116 -40 -214t-10 -163.5t13.5 -117t26.5 -80t33 -47t29.5 -24.5t18.5 -7q17 -2 46.5 16t62.5 53t56.5 102t23.5 150q0 80 -6.5 146.5t-16 105t-19 65.5t-16.5 37l-6 9l-8 2q1 0 2 0.5t4.5 2
t5.5 3t3.5 4t0.5 4.5q-12 12 -12 14q0 19 25 29q20 8 42 8.5t46 -7t47.5 -25t45 -43t40 -62t32 -81t21 -102t6.5 -122.5q-2 -153 -49.5 -279t-138 -202t-205.5 -74q-77 1 -145.5 35.5t-117.5 90.5t-85 125.5t-54.5 141.5t-19.5 139zM49 246q-21 -48 -24 -103.5t10.5 -99.5
t48.5 -66t84 -6q364 115 604 82l19 -10q16 68 22 82q2 6 -5.5 20.5t-15.5 25.5l-8 11l17 4l-27 33l10 -2q-22 40 -112 67t-200.5 34t-229.5 -11t-193 -61zM766 711q0 108 12.5 204t32 163t45.5 123.5t49 90t46.5 59t35.5 34.5t17 12q38 20 82.5 9.5t83 -36t64.5 -60.5
t26 -63q0 -13 -18.5 -38t-45 -64t-52.5 -93t-44.5 -142.5t-18.5 -194.5q0 -112 20.5 -206.5t50 -151t64 -97t60 -57t39.5 -17.5q20 -2 50 18.5t65 67.5t65 112t50 165.5t20 214.5q0 104 -16.5 187t-43 133t-58 85.5t-63.5 50.5t-58.5 23t-43.5 8h-16l-15 4l21 11q9 7 6 12
t41 -0.5t97 -27t73 -56.5q-16 42 -73.5 68t-106.5 34l-49 9q0 35 38 51q38 17 85.5 21t100.5 -7.5t105 -38.5t99.5 -77t83.5 -116t57.5 -162.5t21.5 -211.5q0 -148 -32 -277t-82.5 -216.5t-112.5 -150.5t-122 -92.5t-111 -29.5q-127 0 -233.5 45t-177.5 118t-120.5 167.5
t-71.5 191t-22 191.5z" />
    <glyph glyph-name="qa" unicode="qa" horiz-adv-x="1765" 
d="M926 520q1 -1 1.5 -3.5t1.5 -8.5t-1 -10q-2 -5 -13 -11.5t-21 -10.5l-11 -3l8 -10l-31 -8q0 -2 6 -4q-54 -24 -194 53q-103 -119 -250 -119q-76 1 -145.5 39.5t-118.5 98.5t-85.5 131.5t-54.5 140t-18 123.5q0 81 15 157.5t36.5 129t46 94.5t42.5 62.5t26 24.5
q45 17 90 1t79 -47.5t34 -53.5q0 -13 -14.5 -40t-32 -57t-32 -87.5t-14.5 -124.5q0 -65 12.5 -120t30.5 -88.5t39 -57t36.5 -33t23.5 -10.5q15 0 33 12q-45 52 -64 96q15 67 65 88.5t99 -14.5q18 81 18 158q0 79 -16.5 137.5t-40.5 85t-47.5 41.5t-40.5 16l-16 2l-11 2
l17 15q-1 2 -7 7t-6 7q0 19 25 29q23 10 54.5 11t68.5 -9.5t74.5 -30.5t72 -55t61.5 -80t42.5 -108.5t15.5 -137.5q-3 -171 -63 -309q73 -60 159 -107zM811 188l-18 -4q4 -5 9 -12.5t13 -23t6 -21.5l-22 -84l-19 8q-254 36 -620 -82q-51 -17 -87.5 5.5t-51 68t-11.5 102
t25 105.5q77 45 199.5 63.5t236.5 12t207 -34t117 -68.5q1 -3 -6 -1l-5 1zM1769 205q0 -7 15.5 -53t15.5 -52q-2 -34 -14 -65q-2 -4 -7.5 -9t-12 -9t-7.5 -5q-3 -4 -3 -9t-3 -7q-3 -4 -11 -7.5t-9 -4.5q-8 -3 -16.5 -4t-12.5 0h-4q-31 0 -86.5 82t-120.5 219
q-32 -14 -45 -17q-83 9 -453 -39q-77 -148 -151 -266q-4 -2 -7 3t-7 13.5t-9 12.5q-3 3 -14.5 -0.5t-15.5 0.5l-13 63q-29 6 -39 35q-2 7 -0.5 25t3.5 37l3 20q-1 -2 -3.5 -4t-8 -7t-8.5 -5t-6 4q-7 47 -2 75q4 13 42 111t73 201.5t77 244.5t73 301.5t42 309.5
q237 29 309 -17q151 4 164 -112q27 -224 59 -370q75 -340 234 -701q1 -8 -2 -7q-2 1 -9 9q-10 8 -10 4zM1126 508q130 3 269 -10q-80 192 -138 362q-65 -193 -131 -352z" />
    <glyph glyph-name="qo" unicode="qo" horiz-adv-x="1650" 
d="M825 418q2 -15 -4 -25q-4 -4 -16 -6.5t-23 -2.5l-10 -1l6 -12h-35q-1 -1 7 -6q-50 -6 -140 71q-87 -62 -188 -59q-64 1 -124 28.5t-105 72t-82.5 100.5t-61 115t-36.5 115t-13 101q0 81 16 159t38.5 133t48 99.5t44.5 66.5t27 26q45 18 90 1t79 -47.5t38 -52.5v-2
q13 4 10 13l-4 3q-4 3 -7 6t-3 5q7 22 24 29q23 10 56 11.5t72 -8t79 -29t77 -54.5t66 -81t46.5 -112t17.5 -143q0 -235 -106 -391q43 -59 102 -117zM418 659q4 0 10 3q-44 81 -53 145q32 59 85 68t89 -35q20 72 20 159q0 61 -10.5 110.5t-26.5 79t-36 50.5t-40 30t-36 14
t-26 5h-11q2 -14 -3.5 -27t-19.5 -16q-1 -2 -10 -17.5t-12.5 -22t-12 -22.5t-12.5 -27t-11 -29t-10.5 -34.5t-8 -36.5t-6 -42t-1.5 -45q0 -65 12.5 -120t30.5 -88.5t39 -57.5t36.5 -33.5t23.5 -10.5zM735 258q109 9 229 5t237 -16.5t211.5 -27t153 -26t60.5 -13.5
q22 -39 19 -47l-23 -84l-18 10q-198 29 -431 29.5t-426 -20.5t-337.5 -46.5t-216.5 -48.5q-51 -17 -87.5 6t-51 68t-11.5 102t25 107q102 59 453.5 77t673 -9t351.5 -80q1 -3 -6 -1l-4 1l27 -33q-20 4 -54.5 10t-137 19.5t-198.5 21.5t-219 8.5t-219 -12.5zM1264 369
q-64 1 -124 28.5t-105 72t-82.5 100.5t-61 115t-36.5 115t-13 101q0 81 16 159t38.5 133t48 99t44.5 66t27 26q45 18 90 1t79 -47t38 -52v-2q13 4 10 12q-14 14 -14 15q7 20 24 28q23 10 56 11.5t72 -8t79 -29t77 -54.5t66 -80.5t46.5 -111.5t17.5 -143q0 -152 -48 -278.5
t-138.5 -202.5t-206.5 -74zM1202 1237q-1 -2 -10 -17.5t-12.5 -22t-12 -22.5t-12.5 -27t-11 -29t-10.5 -34.5t-8 -36.5t-6 -42t-1.5 -45q0 -65 12.5 -120t30.5 -88.5t39 -57.5t36.5 -33.5t23.5 -10.5q12 -1 30.5 10.5t39.5 39t39 66t30 97.5t12 127q0 61 -10.5 110.5
t-26.5 79t-36 50.5t-40 30t-36 14t-26 5h-11q2 -14 -3.5 -27t-19.5 -16z" />
    <glyph glyph-name="qu" unicode="qu" horiz-adv-x="1845" 
d="M901 174l-18 -4q4 -5 9 -12.5t13 -23t6 -21.5l-22 -84l-19 8q-151 22 -366.5 -5t-358.5 -73q-51 -17 -87.5 5.5t-51 68t-11.5 102t25 105.5q102 59 299.5 72t365.5 -18t200 -85q1 -3 -6 -1l-5 1zM1464 1419q111 -25 198.5 -120t132.5 -228t64.5 -287.5t-4.5 -303.5
t-74 -269.5t-145.5 -192t-218.5 -65.5q-100 5 -186 35.5t-147.5 77t-111 109.5t-80.5 128t-52 139l-2 -2q-54 -23 -195 54q-103 -119 -250 -119q-76 1 -145.5 39.5t-118.5 98t-85.5 131t-54.5 140t-18 123.5q0 81 15 157.5t36.5 129.5t46 95t42.5 62.5t26 24.5q45 17 90 1
t79 -47.5t34 -53.5q0 -13 -14.5 -40t-31.5 -57t-31.5 -87.5t-14.5 -124.5q0 -65 12.5 -120t30.5 -88.5t38.5 -57.5t36 -33.5t23.5 -10.5q13 0 33 13q-45 52 -64 96q15 67 65 88.5t99 -14.5q19 85 19 157q0 79 -16.5 137.5t-40.5 85t-48 42t-40 16.5l-17 2l-10 2l16 14
q-1 2 -6.5 7.5t-5.5 7.5q0 18 24 28q23 10 54.5 11t68.5 -9t74.5 -30t72 -55t61.5 -80t42.5 -108.5t15.5 -137.5q-3 -171 -63 -309q51 -40 90 -64q-10 56 -12 112t1 114.5t3 66.5q2 81 21 194.5t37 187.5l18 73q-1 1 -2 3t-4 7.5t-5.5 11t-5 12.5t-4 12.5t-1 10t2.5 6.5
q22 19 79 24t118 -5.5t107.5 -51t45.5 -104.5q0 -7 -18.5 -99.5t-33.5 -213.5t-20 -261.5t25.5 -279.5t98.5 -230q105 36 174.5 135.5t96.5 225.5t28 269.5t-23.5 269.5t-66 222t-91.5 130l15 18q23 0 35 -2l6 -4q5 -4 13.5 -11t20.5 -16.5t25 -21.5t27 -25.5t28 -29.5
t26 -32.5t22.5 -35t17.5 -35.5q-6 21 -15.5 42t-20 38.5t-22.5 34t-23.5 30t-22.5 25t-20.5 19.5t-16.5 14l-10.5 9t-2.5 3zM831 444q7 0 9 -2l-2 4z" />
    <glyph glyph-name=".notdef" horiz-adv-x="536" 
 />
    <glyph glyph-name=".null" horiz-adv-x="0" 
 />
    <glyph glyph-name="nonmarkingreturn" horiz-adv-x="682" 
 />
    <glyph glyph-name="space" unicode=" " horiz-adv-x="536" 
 />
    <glyph glyph-name="exclam" unicode="!" horiz-adv-x="454" 
d="M408 1407q3 -37 -32 -428t-61 -483q-7 -24 -31.5 -44.5t-55 -32.5t-60.5 -17.5t-51.5 -2t-24.5 16.5q-26 108 -38 259.5t-12 286t1.5 256.5t-4.5 196.5t-25 80.5q24 42 87.5 62t129.5 13t119.5 -50t57.5 -113zM29 236q9 6 24 15.5t59.5 27.5t85 23.5t90.5 -11.5t87 -62
q10 -38 -1 -105t-27.5 -121.5t-16.5 -55.5q-3 -19 -46 -42.5t-93.5 -34t-92.5 2.5q-32 65 -45.5 143t-15.5 140.5t-8 79.5z" />
    <glyph glyph-name="quotedbl" unicode="&#x22;" horiz-adv-x="546" 
d="M-37 1544q24 19 41.5 29.5t43.5 18t46.5 1t44.5 -31.5t45 -70q-18 -57 -25.5 -134.5t-6.5 -147.5t4.5 -131.5t7.5 -101t4 -40.5q-8 -33 -15.5 -50t-13.5 -24t-15.5 -1.5t-16.5 13.5t-22.5 26.5t-27.5 31.5q-39 57 -65.5 160t-35 198t-7 169.5t13.5 84.5zM258 1528
q30 22 62.5 35t70 16.5t71 -22.5t54.5 -80q-22 -57 -36 -145t-19.5 -173.5t-7 -161.5t-1 -126.5t0.5 -51.5q-12 -38 -27 -57t-28 -23t-31.5 8t-31.5 24.5t-34 37.5q-34 57 -52 176.5t-19 234.5t7 206t21 102z" />
    <glyph glyph-name="numbersign" unicode="#" horiz-adv-x="1638" 
d="M1622 973q-4 -1 6 -6q5 -2 20 -9q25 -12 25 -14q-50 -16 -102 -31q-3 -1 -86.5 -5.5t-89.5 -6.5l62 -4l61 -4q-25 -7 -65 -18t-67.5 -19t-46.5 -14q-45 0 -112.5 -5.5t-113 -11t-48.5 -6.5q-45 -5 -53 -6q-9 -72 -15 -168q383 35 637 -18q13 -13 -61 -23l-37 -4
q-4 -1 5 -5q28 -16 28 -17q-52 -14 -129 -33q-2 -1 -15.5 -8.5t-25 -13.5t-15.5 -7l43 2h1h1h1h1h1h2l49 2q-33 -10 -132 -25t-116 -20q-25 0 -59.5 -2.5t-65.5 -5.5t-58.5 -6t-44.5 -5.5t-18 -2.5v-146q0 -18 -32 -129q-62 -212 -108 -202q-5 1 -9 4q-38 159 -45 442
q-79 -15 -150 -33v-113q0 -17 -32 -110q-59 -174 -105 -167q-6 0 -12 5q-31 129 -41 336q-36 -10 -82.5 -24t-71.5 -22t-60 -18t-49 -12t-38 -5.5t-27 1.5q-36 10 -56.5 32.5t-24.5 47t-3 48t5 38.5l5 16q4 4 52 19.5t144.5 42.5t201.5 51q0 51 4 145q-35 -9 -78.5 -21
t-69 -19t-60 -16t-51.5 -13t-43 -8.5t-34 -3.5t-25 2q-39 10 -62 33.5t-28 49.5t-3.5 50.5t6.5 40.5l5 16q4 4 59 21t165.5 45t230.5 53q6 101 15.5 194t17 142.5t10.5 52.5q3 2 8.5 4.5t21.5 8t31.5 8.5t36.5 2t38.5 -8t35 -24.5t29.5 -45.5q3 -8 5 -19.5t1.5 -29t-1.5 -33
t-4.5 -43.5t-6 -47.5t-7.5 -58t-8 -62.5q13 2 56.5 9.5t68.5 10.5q6 94 15 180.5t15.5 131t8.5 49.5q6 3 16 7.5t38.5 11t52.5 4t51.5 -22.5t42.5 -58q5 -11 6.5 -27t-1 -47t-5 -51t-9.5 -72.5t-10 -78.5q436 43 754 -19q6 -6 -24 -11q-31 -6 -144 -15zM797 621q0 53 4 159
q-18 -4 -65.5 -13t-71.5 -15q-1 -11 -6 -67.5t-7 -88.5q10 2 63.5 11t82.5 14z" />
    <glyph glyph-name="dollar" unicode="$" horiz-adv-x="1116" 
d="M1139 346q0 -72 -15 -127.5t-37 -92t-62.5 -62.5t-76.5 -39.5t-96 -20.5t-103 -8.5t-114 -1.5l-10 -209l-37 -64q-20 14 -43 39q-26 79 -45 242q-181 26 -316 121.5t-135 195.5q0 67 15 123t30 78l15 23l47 57l12 -25q-4 -63 19.5 -112.5t68.5 -82t98.5 -52.5t118.5 -31
q-8 160 -10 254q-78 26 -138 49.5t-125 57t-107.5 68t-70.5 80t-28 95.5q1 156 22 160q0 40 37 78.5t101.5 71.5t138.5 59.5t162 50.5l2 225l-19 25q3 0 18 5.5t27.5 8.5t33 0t38.5 -14.5t38.5 -40.5t37.5 -74q10 -30 16 -88q186 39 236 39q7 -4 19 -11.5t38.5 -33.5t41 -55
t14 -76.5t-28.5 -97.5q-117 0 -308 -50v-274q480 -187 480 -463zM250 944q0 -5 22 -12.5t82 -24.5t101 -30q0 98 -2 145q-56 -18 -104 -35t-73.5 -28.5t-25.5 -14.5zM645 291q99 5 167.5 25t68.5 46q0 31 -58 60.5t-172 66.5q0 -9 -6 -198z" />
    <glyph glyph-name="ampersand" unicode="&#x26;" horiz-adv-x="1454" 
d="M1047 451q1 -1 12 -11.5t12 -12.5t10.5 -13t11 -17t8 -19.5t8 -26.5t4.5 -32t4 -42t1 -50q0 -86 -92.5 -164t-247.5 -126t-327 -48q-43 0 -95 10.5t-112 32t-115.5 59.5t-101 86.5t-72.5 119.5t-27 153q0 149 76.5 287t202.5 233q-129 106 -129 256q0 61 17.5 124.5
t57.5 127t97.5 113t146 80.5t195.5 31q105 0 170 -71t65 -142q0 -72 -206 -72q-65 0 -127 -19.5t-106.5 -47t-79 -58t-51.5 -53.5t-17 -31q0 -10 19.5 -30t71 -46t120.5 -41q73 17 131 17q64 0 111 -76q43 -70 36 -134q-9 -62 -65 -63q-87 0 -189 -43t-182.5 -104.5
t-134.5 -130.5t-54 -119q0 -57 118 -106.5t272 -49.5q96 0 186 20t150.5 48t108 59t69.5 52t24 28q2 8 -2 20.5t-9 20.5l-5 8q0 2 -0.5 5t0.5 10t4 10t10 0.5t17 -12.5zM1493 944q73 -11 125.5 -88.5t52.5 -138.5q0 -31 -21.5 -53t-41.5 -29.5t-27 -5.5q-82 19 -183 5.5
t-208.5 -55t-195.5 -90.5t-144.5 -102.5t-56.5 -91.5q-9 -27 -39 -27q-3 0 -10 2.5t-19 13.5t-22.5 29t-18.5 53t-8 80q0 48 48 119t132.5 143.5t186 132.5t222.5 90t228 13z" />
    <glyph glyph-name="quotesingle" unicode="'" horiz-adv-x="372" 
d="M39 1626q27 21 65.5 35t83 16.5t87 -23.5t67.5 -81q-18 -57 -25.5 -134t-6.5 -146.5t4.5 -130t7.5 -100t4 -40.5q-12 -47 -35 -66t-51 -12t-54.5 25t-52.5 45q-39 57 -65.5 160t-35 198t-7 169.5t13.5 84.5z" />
    <glyph glyph-name="parenleft" unicode="(" 
 />
    <glyph glyph-name="parenright" unicode=")" 
 />
    <glyph glyph-name="asterisk" unicode="*" horiz-adv-x="1509" 
d="M1520 1133q-13 -80 -66.5 -158.5t-136 -145t-183 -123t-216.5 -102.5q30 -48 32 -51q281 -149 307 -260q18 -68 13.5 -109.5t-10.5 -54.5t-15 -18q-11 -18 -24 -21q-146 88 -320 326q-69 43 -145 82q-31 -214 -85 -379.5t-108 -208.5q-25 -3 -44.5 11.5t-29 37t-15.5 45
t-8 38.5l-1 17q10 29 44.5 117t60.5 169t44 169q-189 -43 -355 -36t-241 69q-45 37 -64 82.5t-13.5 84t13 62t15.5 35.5q0 1 1 3t1 3q188 24 508 -74q58 4 168 23q0 10 1 30.5t1 30.5q-79 162 -112 288.5t-5 187.5q20 43 40.5 73t35 41.5t26 17t17.5 4.5l6 -1q-2 -2 -2 -6h7
q127 -179 124 -576q8 -20 23 -51q317 91 711 328z" />
    <glyph glyph-name="plus" unicode="+" horiz-adv-x="1081" 
d="M928 889q52 -8 77.5 -83.5t8 -150.5t-71.5 -82q-10 -1 -48.5 2.5t-106.5 9.5t-128 9q-24 -384 -22 -442q0 -5 -18.5 -7t-46.5 5.5t-57.5 24.5t-55.5 56t-37 93q-26 129 -39 268q-154 -10 -260 -53q-49 -20 -80 55q-31 78 -18 176q15 106 75 125l6 2q120 25 250 31
q-9 158 -20 234.5t-35 84.5q18 16 39 26.5t36 16t38 7.5t32.5 2t32.5 -1.5t25 -1.5q45 -2 80.5 -16.5t56 -33.5t34 -41.5t18 -38.5t3.5 -25q0 -2 -14 -221q109 -8 246 -31z" />
    <glyph glyph-name="comma" unicode="," horiz-adv-x="382" 
d="M49 465q27 22 66.5 36t84.5 17t88 -23t68 -81q-18 -57 -29.5 -122.5t-15 -115.5t-5.5 -97.5t-1 -69t0 -29.5q-12 -47 -35.5 -66t-52 -12.5t-55.5 24.5t-53 45q-39 57 -60.5 142t-23.5 158t5 128.5t19 65.5z" />
    <glyph glyph-name="hyphen" unicode="-" horiz-adv-x="1089" 
d="M809 668l-18 -4q4 -5 9 -12.5t13 -23.5t6 -22l-22 -84l-19 8q-56 2 -137.5 6.5t-118 6t-89 0t-95 -10t-92.5 -24.5q-51 -17 -87.5 5.5t-51 67.5t-11.5 101.5t25 105.5q134 47 272.5 46t252.5 -38.5t147 -93.5q1 -3 -6 -1l-5 1z" />
    <glyph glyph-name="period" unicode="." horiz-adv-x="364" 
d="M10 406q27 21 65.5 32.5t83.5 10.5t92.5 -28.5t82.5 -80.5q9 -29 2 -74t-17.5 -78.5t-22.5 -64.5l-11 -31q-3 -29 -61.5 -42t-114.5 9q-65 100 -94.5 212.5t-4.5 134.5z" />
    <glyph glyph-name="slash" unicode="/" horiz-adv-x="847" 
d="M629 1550h21t47 -6.5t61 -19t50.5 -42.5t27.5 -73q3 -39 -61 -191t-155 -344.5t-212 -485.5t-207 -554q-1 -4 -15.5 -10t-36.5 -7t-45 5.5t-43 33t-28 70.5q27 154 119 409t187.5 478.5t183.5 439.5t106 297z" />
    <glyph glyph-name="zero" unicode="0" horiz-adv-x="1107" 
d="M627 1364q38 0 78 -6t90 -22.5t94.5 -42t88 -69.5t74.5 -100t50.5 -137t19.5 -178q0 -194 -40.5 -351.5t-108 -255.5t-148.5 -152t-168 -60q-124 -9 -226 19.5t-171.5 86.5t-121.5 139t-79 176t-41 199.5t-10.5 208t16 201t34.5 180t49.5 144.5t56.5 94q70 34 128 24
t98 -47t52 -88q24 15 54 25q28 12 131 12zM586 1274q-109 -64 -116 -191t72 -269t216 -267q61 145 61 264q0 384 -133 457q-51 27 -100 6zM537 197q18 0 69.5 70t100.5 167q-97 55 -183 156.5t-139 220.5q-2 -35 -2 -111q0 -117 14 -210.5t33 -146t42 -87.5t39 -47t26 -12z
" />
    <glyph glyph-name="one" unicode="1" horiz-adv-x="677" 
d="M479 1577q28 -3 54.5 -9t56.5 -18.5t50.5 -31t36.5 -45.5t15 -62.5t-14 -81.5q-66 -190 -110 -365.5t-62 -305t-23.5 -241t1 -187t15 -128.5t15.5 -80.5t6 -29.5q-4 -8 -28 -20t-55.5 -20.5t-66 2.5t-53.5 46q-134 250 -102 694q-38 -12 -77.5 -2t-66.5 34t-48 53
t-22.5 55.5t9.5 42.5q61 68 156.5 243t161.5 316l65 141q43 8 86 0z" />
    <glyph glyph-name="two" unicode="2" horiz-adv-x="1019" 
d="M754 332q200 -45 309 -204q58 -85 64 -155q2 -30 -9 -28q-3 0 -6 2q-2 2 -9 7q-278 220 -843 -69q-47 6 -108 54t-107 118.5t-47 130.5q-2 6 2 19q12 43 68 72q153 185 377.5 528.5t224.5 419.5q-39 8 -116.5 -45t-149 -121t-137 -124t-83.5 -52q-39 8 -96 70.5
t-57 111.5q1 65 116.5 184t258 207t210.5 72q56 -13 111.5 -47t104 -86t78 -128t28.5 -163q-1 -100 -139 -329.5t-307 -424.5q167 0 262 -20z" />
    <glyph glyph-name="three" unicode="3" horiz-adv-x="1136" 
d="M709 1034q96 -26 177 -72t134.5 -97.5t95.5 -112.5t65 -116t38 -109.5t19.5 -90t4.5 -61.5q0 -47 -19.5 -98.5t-68 -108t-118 -101t-181.5 -73.5t-248 -29q-137 0 -251.5 30.5t-190 79t-128 110.5t-76 123.5t-23.5 119.5q0 53 15.5 101t37.5 79.5t43.5 55.5t36.5 34
l16 11l8 3q10 -2 -4 -53q-38 -125 42 -221t223 -137.5t296.5 -52t276.5 27.5t149 109q-42 81 -110.5 148t-146.5 111t-164.5 75t-168 43.5t-153.5 12t-125 -14.5q-7 -2 -22 18.5t-28 53.5t-21 69.5t0 73t34 57.5v6q2 0 4.5 1t3.5 1q29 18 66 21q7 1 20.5 2t20.5 2
q194 52 356 154q-376 -27 -483 -27q-64 0 -97.5 85t-20 170t64.5 85l-2.5 -2.5t-3.5 -6t-2 -8t3.5 -7t12.5 -5.5q92 -4 394 -1.5t441 5.5v2v-2q7 0 9 2q10 0 24 -34q43 -67 43 -185q0 -74 -89 -139.5t-230 -116.5z" />
    <glyph glyph-name="four" unicode="4" horiz-adv-x="1071" 
d="M903 997q47 -10 94 -46.5t71 -79t11 -68.5q-45 -86 -76.5 -235t-40.5 -255l-8 -106q-3 -14 -9.5 -47.5t-12 -56.5t-15 -55.5t-21.5 -54t-28 -41.5t-38.5 -28t-49.5 -4q-49 40 -78 227t-12 404q-337 -109 -540 -217q-27 -14 -72 8t-81 71.5t-36 102.5q0 62 13.5 95
t50.5 59q49 116 90 219.5t69.5 184t51 148t36 120t22.5 91t13.5 71t6 49t2.5 35t1 20.5q2 18 61 15q100 -4 179 -58q135 -92 85 -269q-9 -33 -24 -67q-24 -54 -87.5 -200t-92.5 -208q165 43 312 53q28 80 65.5 106.5t87.5 16.5z" />
    <glyph glyph-name="five" unicode="5" horiz-adv-x="1210" 
d="M672 1006q139 0 262.5 -70t197.5 -188.5t74 -251.5q0 -110 -63.5 -218t-154.5 -182.5t-191 -121t-176 -46.5q-81 0 -158.5 33.5t-133.5 83.5t-99.5 106t-65 103t-21.5 74q0 52 9 95t21.5 68t25 43t21.5 24l9 7q5 -1 12 -4t19 -14.5t12 -26.5l-6 -28q-13 -38 -15 -70.5
t4 -55.5t22 -41.5t32.5 -30t43 -19.5t45.5 -12t48.5 -6t43.5 -2.5t38 -0.5q65 0 146.5 45.5t145.5 108t108.5 128.5t44.5 105q0 44 -129.5 49.5t-332 -27.5t-398.5 -94q-27 -8 -79.5 29.5t-89 98.5t-18.5 108q-5 17 5.5 38.5t24.5 34.5l13 13q21 25 54.5 67t104.5 144
t105 172q-38 51 -65 115q-8 18 10 31.5t39 13.5h8q8 21 23 37t31 16q51 0 104 -47q95 6 181 16.5t151 24t117 26.5t93.5 28.5t65 25.5t47 21.5t25.5 12.5q16 7 46 -40q52 -81 54 -174q4 -149 -146 -206q-40 -14 -89 -22q-312 -46 -473 -10q-51 -113 -88 -172q155 35 305 35z
" />
    <glyph glyph-name="six" unicode="6" horiz-adv-x="1159" 
d="M475 668l-53 -21l-25 4l74 43l-125 -32l109 57l102 26l-16 11l-172 -47l39 22l116 41q-26 4 -69 -8q-11 -3 -21 -6.5t-22.5 -9t-22.5 -9.5q-34 -13 -36 -8q-2 4 34 23q101 51 214.5 51t209.5 -42t175.5 -108t125 -151t45.5 -166q0 -99 -48 -183.5t-122.5 -137.5
t-159.5 -83t-165 -30q-49 0 -107.5 14t-122 43t-125.5 70t-117.5 99.5t-97.5 126.5t-67 156t-25 183q0 132 43 274.5t109.5 258.5t142.5 211.5t147 148.5t117 53q23 0 75.5 -24.5t102 -70.5t49.5 -91q-1 -14 -52.5 -69t-123 -136.5t-142.5 -180.5t-121 -225t-50 -245
q0 -174 62 -262t150.5 -83.5t177 47t150.5 120t62 145.5q0 31 -6 57t-15.5 44t-23.5 32t-28 23t-31 15t-31.5 8.5t-30 3.5t-25 0.5t-18.5 -0.5l-10 -1q-14 21 -25 23q-34 17 -106 -10q-31 -9 -37.5 -5t-14 9.5t-22.5 1.5z" />
    <glyph glyph-name="seven" unicode="7" horiz-adv-x="1097" 
d="M1104 1386q30 -39 51.5 -91.5t30 -104.5t-5.5 -95t-52 -59q-217 -89 -342 -276q69 -9 105 -25q22 -9 29.5 -29.5t3 -43.5t-12.5 -44t-16 -35l-8 -14q-9 1 -25.5 2t-70 3t-101.5 -1q-92 -230 -135 -606q-10 -100 -105 -19q-30 26 -55 56q-37 278 17 543q-37 -7 -90 -25
q-35 -12 -61 46.5t-17 123t55 68.5q98 10 176 10q80 217 227 395q-363 -8 -593 -84q-59 -21 -102 76.5t-29 205.5t92 114q319 27 600.5 14t382.5 -55q36 -13 51 -50z" />
    <glyph glyph-name="eight" unicode="8" horiz-adv-x="993" 
d="M950 1552q60 -4 89 -107q27 -93 12 -177q-10 -60 -37 -57q-5 0 -10 3q-62 35 -305.5 -11t-422.5 -130q101 -49 213 -147l13 12l303 262l-211 -225l209 176l-6 -23l-90 -116l36 14l-63 -80l47 45l6 -30l-96 -189q113 -138 175 -281t44 -258q-14 -83 -48 -151.5t-79 -114
t-99 -76t-107 -42.5t-103 -9q-59 3 -107.5 33t-80.5 78t-54.5 108.5t-32 126.5t-9.5 131t9 123q16 111 154 279q-179 115 -262 203q-50 51 -66.5 139t-0.5 163.5t53 102.5q59 43 176 82t242 64t242 44t192 27zM692 319q10 68 -45 134.5t-164 142.5q-136 -164 -151 -274
q-18 -113 71 -141q73 -22 169 20q87 38 113 96q5 11 7 22z" />
    <glyph glyph-name="nine" unicode="9" horiz-adv-x="1075" 
d="M737 1520q90 -4 161.5 -33t114 -74t63 -98t16.5 -109q-5 -71 -64 -326.5t-103.5 -497t-23.5 -329.5q24 -103 -40 -99q-53 4 -129 65q-25 19 -32 30q-100 157 -59 539q-78 -47 -151.5 -70.5t-116.5 -23.5q-111 0 -205 72.5t-142.5 181.5t-41.5 221q6 85 68.5 223
t150.5 249t153 111q66 0 118 -12t82.5 -31.5t51.5 -43t29 -46.5t12 -42.5t3 -31.5l-1 -12q-70 -12 -147 -90t-135 -206.5t-68 -264.5q128 55 247 169t183 247q12 100 14 137q3 41 -1.5 78t-11 57t-11 35t-1.5 20t17 5z" />
    <glyph glyph-name="colon" unicode=":" horiz-adv-x="440" 
d="M70 532q27 21 65 33t83 11t92.5 -28.5t82.5 -80.5q9 -29 2 -74t-17.5 -78.5t-21.5 -64.5l-12 -31q-3 -29 -61.5 -42t-114.5 9q-65 100 -94 212t-4 134zM63 1278q27 22 61 33t74 10t83 -28.5t79 -80.5q6 -29 4 -61.5t-11 -72t-17.5 -69.5t-16.5 -54t-8 -25
q-6 -27 -62 -24.5t-114 26.5q-33 50 -54.5 109.5t-28 107t-4 83.5t14.5 46z" />
    <glyph glyph-name="semicolon" unicode=";" horiz-adv-x="428" 
d="M53 483q27 22 66 36t84 17t87.5 -23t67.5 -81q-17 -57 -26.5 -128t-11.5 -131.5t-1 -112t3 -84t2 -33.5q-12 -47 -35.5 -66t-52 -12.5t-56 24.5t-53.5 45q-51 75 -74.5 206t-20 230t20.5 113zM37 1280q27 22 61 33t74 10t83 -28.5t79 -80.5q6 -29 4 -61.5t-11 -72
t-17.5 -69.5t-16.5 -54t-8 -25q-6 -27 -62 -24.5t-114 26.5q-33 50 -54.5 109.5t-28 107t-4 83.5t14.5 46z" />
    <glyph glyph-name="less" unicode="&#x3c;" horiz-adv-x="1449" 
d="M682 977q266 7 756 -27q-14 -57 -102 -135t-171 -104q-2 0 -475 -39q90 -54 94 -76q3 -27 -1 -58.5t-18.5 -65.5t-37.5 -60t-61.5 -40t-87.5 -7q-39 45 -99.5 92.5t-120.5 83.5t-113.5 65.5t-89 47t-36.5 18.5q-49 52 -33 96q-14 35 20 88q1 1 32.5 25t78.5 62.5t99 85.5
t102.5 104.5t79.5 109.5q62 18 107 6t75.5 -47t46.5 -72.5t18 -72.5q0 -20 -63 -80z" />
    <glyph glyph-name="equal" unicode="=" horiz-adv-x="1036" 
d="M207 1092q129 12 232.5 14.5t181.5 -5.5t122.5 -16t102.5 -22q51 -12 76.5 -81.5t8 -132t-72.5 -56.5q-366 37 -633 -15q-56 -11 -86.5 65t-11.5 159t80 90zM207 700q145 32 344 27t295 -35q50 -16 75.5 -84.5t8.5 -133t-72 -71.5q-12 -1 -69.5 7.5t-127.5 16.5t-190.5 0
t-247.5 -38q-56 -14 -85.5 57.5t-10.5 154.5t80 99z" />
    <glyph glyph-name="greater" unicode="&#x3e;" horiz-adv-x="1488" 
d="M1360 799q17 -45 -33 -97q-1 -2 -36 -19t-89 -46.5t-113.5 -65.5t-120.5 -83.5t-100 -92.5q-48 -7 -87 7t-62 40.5t-37.5 60t-18.5 65.5t-1 59q3 18 79 65q-165 -1 -395 9t-338 20q15 57 103.5 135t171.5 102q4 0 84 7t201 17.5t206 16.5q-74 67 -74 88q2 35 18 72.5
t47 73t76 47.5t107 -6q30 -52 80.5 -109.5t102.5 -104.5t99 -85.5t78.5 -62.5t32.5 -25q32 -55 19 -88z" />
    <glyph glyph-name="question" unicode="?" horiz-adv-x="897" 
d="M616 1640q86 0 153 -22.5t104.5 -55t62 -74t32 -73.5t7.5 -59q0 -69 -57.5 -165.5t-139.5 -193t-163.5 -192.5t-139 -191t-57.5 -163l67 6q3 -13 6.5 -32.5t-1.5 -59.5t-29 -56q-12 -6 -31 -6.5t-42 10.5t-47 27t-46.5 42.5t-40.5 56t-28.5 69t-10.5 80.5q0 71 49.5 180
t120 216t141.5 204.5t120.5 165.5t49.5 80q0 6 -33.5 -3.5t-86 -35t-110 -64t-114 -101.5t-88.5 -136q-51 -57 -107 -53t-100.5 33t-44.5 50q2 43 30.5 106.5t83.5 134.5t125.5 132.5t167 102t197.5 40.5zM219 176q4 3 10.5 7.5t27.5 15t42 18.5t50 12.5t55 1.5t54.5 -18
t51.5 -43q9 -32 -0.5 -88t-23 -101.5t-13.5 -46.5q-5 -26 -72.5 -47t-111.5 -2q-33 50 -42 114.5t-11 112.5t-17 64z" />
    <glyph glyph-name="at" unicode="@" horiz-adv-x="1427" 
d="M692 1419q286 15 490 -161q153 -133 211 -327q54 -185 -2 -332q-57 -148 -208 -191q-53 -15 -116 -15q-51 0 -105 22t-92.5 51.5t-64 56t-27.5 38.5q-2 9 -4 21q-60 -105 -213 -105q-127 0 -178 109q-45 96 -14 219q31 120 113 177q49 34 108 34t109 -44.5t81 -115.5
q16 -24 29 -59q29 -64 71.5 -98.5t86.5 -38t88 16t78 57t55.5 92t21.5 114.5q0 119 -133 192t-327 65q-216 -8 -367 -116q-190 -135 -190 -374q0 -122 27.5 -212t74 -138.5t107 -76t127.5 -29t134 6.5t127.5 27.5t107 37t74.5 31.5l27 13q19 -60 19.5 -111t-16 -87.5
t-42.5 -66t-63 -48t-74.5 -32t-79.5 -20t-75.5 -9.5t-65.5 -3q-35 0 -83 14t-105 43.5t-114 71.5t-110 102.5t-94 130.5t-65.5 161.5t-24.5 191.5q0 147 38 266t98.5 191.5t133.5 126t146 77t133.5 37.5t98.5 15zM506 700q17 -7 37.5 -6t38.5 10t34.5 22t26.5 30.5t13.5 35
t-4.5 36t-27 32.5q-18 -6 -36 -29.5t-44.5 -68t-38.5 -62.5z" />
    <glyph glyph-name="A" unicode="A" horiz-adv-x="1062" 
d="M1055 205q0 -7 15 -53t15 -52q-2 -34 -14 -65q-2 -4 -7.5 -9t-12 -9t-7.5 -5q-3 -4 -3 -9t-3 -7q-4 -4 -11 -7.5l-9 -4.5q-8 -3 -16 -4t-12 0h-5q-31 0 -86.5 82t-120.5 219q-32 -14 -45 -17q-82 9 -452 -39q-72 -139 -152 -266q-4 -2 -7 3t-7 13.5t-9 12.5
q-3 3 -14.5 -0.5t-15.5 0.5l-13 63q-28 6 -38 35q-2 7 -0.5 25t3.5 37l3 20q-1 -2 -3.5 -4t-8.5 -7t-9 -5t-6 4q-7 47 -2 75q4 13 42 111t73 201.5t77 244.5t73 301.5t42 309.5q237 29 309 -17q151 4 164 -112q27 -224 59 -370q75 -339 234 -701q1 -9 -2 -6q-3 1 -9 8
q-9 8 -9 4zM412 508q129 3 268 -10q-75 179 -137 362q-65 -193 -131 -352z" />
    <glyph glyph-name="B" unicode="B" horiz-adv-x="1275" 
d="M1270 475q5 -95 -24.5 -171.5t-85.5 -129t-136 -88t-173 -51.5t-200 -17q-4 0 -62 -1t-88.5 0t-85 6.5t-98.5 17.5q-20 -35 -22 -39q-8 -10 -17 -2t-14 25q-2 -12 -4 -26t-3 -19.5t-3.5 -10.5t-7.5 -8t-16 -20.5t-15 -18.5q-5 21 -8 162q-176 95 -207 332q74 -46 201 -76
q-4 227 -8 328q-31 0 -105 -4q-4 3 -11 8t-22.5 25t-23 43t-5.5 62t21 83q8 8 51 16l-2 23q35 8 88 22q-7 122 -12 199q-35 0 -47 8q-27 20 -41 82t6 100q23 5 60 11q-3 15 -9 24q6 3 16.5 6.5t41.5 11.5t59 10.5t62 -2.5t59 -22q395 42 565 -8q84 -61 84 -272q-1 -4 -3 -11
t-14 -28t-29 -41.5t-52 -48.5t-80 -52q87 -21 157.5 -55t129.5 -85.5t93.5 -127.5t39.5 -170zM446 1161q0 -24 1.5 -68t1.5 -65q222 76 299 141q-28 16 -302 -8zM1016 475l-2 21q-20 72 -153 118q-148 52 -415 58q-7 -202 -28 -359q359 -11 598 162z" />
    <glyph glyph-name="C" unicode="C" horiz-adv-x="1054" 
d="M1044 676q27 -110 21 -209.5t-49 -184.5t-108.5 -147t-158.5 -97.5t-198 -35.5q-70 0 -137.5 17.5t-131 51.5t-116 89t-91 125.5t-58.5 165.5t-17 204q12 343 227 552q146 142 337 183q152 33 247 -13q74 -35 72 -105q-2 -74 -35.5 -156.5t-79.5 -101.5
q-167 78 -300 29.5t-216.5 -168t-87.5 -250.5q-2 -49 25.5 -103.5t75.5 -101t120.5 -77t151.5 -30.5q75 0 148 28t127.5 71t97.5 92.5t65.5 95.5t23.5 78q3 34 13 33.5t21 -17.5z" />
    <glyph glyph-name="D" unicode="D" horiz-adv-x="1239" 
d="M-172 1356q12 12 59 22.5t119.5 17.5t164.5 5t194 -11.5t207.5 -36.5t204.5 -65t186.5 -101.5t152.5 -142.5t102.5 -190.5t36.5 -243.5q-1 -102 -35 -187.5t-88 -142.5t-127 -101.5t-145 -70t-149.5 -41.5t-133 -21t-102.5 -5q-9 0 -55 4l-12 -27l-37 2l-21 -49l-22 6
q-13 -24 -19 -24q-3 19 -6 119q-44 15 -82 37t-76 59.5t-64.5 85t-43.5 117t-17 151.5q1 3 3.5 7t8 12t10 10.5t8 -4.5t3.5 -27q0 -40 69 -87.5t173 -74.5q-12 519 -37 736q-181 6 -369 -39q-26 10 -49.5 48t-36 84t-7.5 94t32 75zM473 336q1 0 4 1t4 1v242l-18 -242
q1 0 4.5 -1t5.5 -1zM1085 676q6 91 -149.5 207.5t-392.5 173.5q-2 -239 -25 -719q125 10 255.5 63t218.5 129t93 146z" />
    <glyph glyph-name="E" unicode="E" horiz-adv-x="1019" 
d="M307 354q237 83 480 128.5t407 17.5q-1 -6 -10.5 -19t-19.5 -23l-9 -9l-10 -25l-78 -39l57 -6q-55 -22 -90 -49q-14 -12 -33.5 -37t-33.5 -31q-18 0 -136.5 -32t-331 -108.5t-395.5 -168.5q-31 -16 -72 47.5t-49 133t35 106.5q21 9 45 18q-1 36 -3.5 227t-4.5 282.5
t-7 237t-13 230t-19 121.5q9 4 25 9t59.5 12.5t79.5 4.5q202 31 817 31v-53q-36 -16 -63 -45l-47 -37h41l-66 -37l-2 -24q-82 -37 -94 -41q-4 0 -61.5 -10t-161.5 -29t-174 -31q0 -8 -1 -24.5t-1 -24.5q-3 -78 -9 -152q295 41 516 41l-16 -43l-8 -49l-64 -37h27l-68 -45
l5 -20l-74 -21l-12 -24q-74 -36 -103 -48q-1 0 -227 -61q-10 -135 -27 -244z" />
    <glyph glyph-name="F" unicode="F" horiz-adv-x="1011" 
d="M944 1458q14 -12 30 -47t23 -80.5t0 -88t-46 -72t-107 -29.5q-4 0 -73 -4.5t-184.5 -12t-203.5 -12.5q-1 -29 -3 -86t-3 -86q252 27 457 27q0 -5 -4 -16t-8 -19l-5 -8l-6 -50l-63 -34l24 -2l-65 -43l2 -21l-74 -18l-14 -25q-72 -35 -103 -47q-4 0 -156 -39l-28 -418
l-15 17l-8 -51l-24 -7l-27 -77l-59 -37l-35 -49l-19 10l-16 -53q-17 -25 -25 -25q-5 26 -10.5 218t-13.5 472t-19 459l-24 6l14 25l-39 12l-55 12l18 21l-30 26l33 29l-80 2q-17 25 -17 37q12 1 166 26q-5 66 -16 117q-2 7 6 18t22 15q34 10 66.5 13.5t77.5 0t84 -33
t63 -82.5q514 84 592 110z" />
    <glyph glyph-name="G" unicode="G" horiz-adv-x="1081" 
d="M1075 578q16 -157 -45 -288t-184.5 -207.5t-282.5 -76.5q-70 0 -137.5 17.5t-131 51.5t-116 89t-91 125.5t-58.5 165.5t-17 204q12 343 227 552q146 142 337 183q152 33 247 -13q74 -35 72 -105q-2 -74 -35.5 -156.5t-79.5 -101.5q-167 78 -300 29.5t-216.5 -168
t-87.5 -250.5q-2 -49 25.5 -103.5t75.5 -101t120.5 -77t151.5 -30.5q119 0 223.5 64.5t173.5 155.5q-65 4 -167 13t-173 16t-76 7q-98 29 -208 172q-3 3 26.5 10t92.5 18t153 24q-38 2 -77 0.5t-79.5 -5t-71 -7t-51.5 -6.5t-22 -3q-22 6 -25 17q27 3 108.5 14.5t146.5 20
t163 18t157 9.5t128 -5q39 -5 66.5 -56t36 -111.5t1.5 -104.5z" />
    <glyph glyph-name="H" unicode="H" horiz-adv-x="997" 
d="M1012 1350q8 -25 8 -63.5t-5.5 -86t-15.5 -125.5q-2 -9 -2.5 -14.5t-1.5 -13.5t-2 -15q-24 -194 -37 -401t-14 -317v-111l-8 -21l-12 2l-13 -63l-14 2l-14 4l-29 -125l-23 18l-10 -18l-24 -2q-7 -31 -15 -33q-4 -2 -14 -2q-64 163 -90 451q-12 -9 -27 -13q-23 0 -55 -3
t-75 -9.5t-73 -11.5t-83 -14.5t-72 -12.5l-10 -149l-15 18l-10 -53l-25 -6l-26 -78l-60 -37l-34 -49l-19 12l-16 -55q-19 -23 -27 -25q-5 29 -11 347.5t-19.5 665t-34.5 450.5q-2 7 5 17.5t23 14.5q23 7 47 12t57.5 5t63 -7.5t59.5 -29.5t51 -57.5t32.5 -94.5t9.5 -137
q-4 -155 -21 -475q168 21 351 4q-8 256 -1 458.5t23 303.5q46 20 115.5 24.5t133.5 -16t79 -65.5z" />
    <glyph glyph-name="I" unicode="I" horiz-adv-x="442" 
d="M47 1401q0 7 7.5 17t19.5 14q22 6 44.5 10t54.5 3t60 -9.5t56 -30.5t48 -56t32 -91t10 -130q-4 -176 -16.5 -393.5t-23.5 -346.5l-11 -130q-9 -16 -29 -49l-41 -82q-25 -9 -39 -27l-16 -41l-17 2l-24 -38q-2 1 -4.5 2.5t-7.5 4t-7 1.5q-5 -2 -12.5 -14.5t-11.5 -12.5
q-5 27 -13 332t-23 636t-36 429z" />
    <glyph glyph-name="J" unicode="J" horiz-adv-x="1024" 
d="M319 696q-32 -93 -22 -188t46 -176.5t93 -147.5q104 31 172 130t93 227t24 274.5t-27 274.5t-70 225t-96 127l15 20q6 0 17.5 -1t17.5 -1q4 0 41 -26t86 -75t69 -95q-35 110 -156 197l-6 5q81 -13 150 -62.5t116.5 -124t80 -169.5t46 -199.5t9.5 -212.5t-24.5 -209.5
t-60.5 -191.5t-94.5 -156.5t-131.5 -105.5t-166 -39q-138 0 -243 41.5t-163 107t-87.5 146.5t-27.5 159.5t27 147.5q29 81 92.5 121.5t117 31t62.5 -54.5z" />
    <glyph glyph-name="K" unicode="K" horiz-adv-x="1062" 
d="M1018 1210q-25 -108 -112.5 -228t-211.5 -232q80 -80 148.5 -214t100 -280t5.5 -244q2 54 -5 108t-18.5 92t-23 68.5t-19.5 45.5l-8 16q9 -30 21.5 -76t28 -142t2.5 -136l-11 12q-22 -43 -36 -45l-58 -10l-18 20q-33 130 -138.5 319t-191.5 291q-92 -59 -145 -83
l-21 -291q-15 -23 -35 -60q-6 -7 -17 -28t-19 -39l-7 -17q-27 -8 -41 -24l-18 -41h-16l-25 -41l-20 10q-5 -3 -13 -16t-12 -13q-6 29 -14.5 340.5t-24 650t-37.5 439.5q0 8 8 18t23 13q22 6 45.5 10t56 2.5t62 -10t59 -30.5t50 -56.5t32.5 -92t10 -131.5q-2 -102 -10 -292
q52 44 101 97t104 127t100.5 171.5t71.5 202.5q17 31 57 35t83.5 -16t82.5 -51t61 -72t13 -77z" />
    <glyph glyph-name="L" unicode="L" horiz-adv-x="856" 
d="M889 463l2 -76l-29 -57l12 -6q-22 -21 -36 -25q-12 0 -104.5 -46t-253 -143t-302.5 -204q-28 -20 -89 46q-69 75 -99 165q-35 107 26 139q13 9 29 16q16 209 24.5 331.5t18 327.5t2 333.5t-32.5 177.5q8 4 21 9t51 15t72.5 12t76.5 -10t72 -40.5t51 -88.5t21 -147
q0 -302 -96 -778q355 162 565 147q1 -2 -3 -4.5t-11 -5t-13.5 -5.5t-10.5 -6t-3 -5q2 -4 31 -12t30 -13q2 -5 -3.5 -17t-11.5 -21z" />
    <glyph glyph-name="M" unicode="M" horiz-adv-x="1378" 
d="M1321 1049q3 -201 19 -414.5t31 -326.5l15 -113l-20 -74l-20 -4l-9 -51l-16 -62l-27 -4l-4 -47q-23 4 -33 -2q-3 -1 -5 -11.5t-5 -11.5q-77 140 -135 375t-94 504q-108 -339 -240 -690q-4 -13 -26.5 -27t-53.5 -19.5t-62 0t-54.5 35.5t-28.5 82q-26 59 -100 241.5
t-115 279.5q-15 -136 -33 -271.5t-29 -202.5l-10 -67l-26 4l-78 -137l-53 -17l-17 -32q-4 3 -10 7t-19.5 9.5t-21.5 1.5t-21.5 -28.5t-19.5 -24.5q14 139 28 403.5t19.5 543.5t-8.5 439q0 2 -4 6l4 3q-3 43 -8 61l9 3t25 5.5t37.5 5.5t44.5 1t50 -7q91 19 165.5 -2.5
t94.5 -87.5q126 -433 198 -713q125 338 314 719q-2 18 -2 45q43 27 111 40.5t134 1.5t88 -56q8 -16 12.5 -36.5t6 -46t2 -58.5t0 -75.5t0.5 -96.5z" />
    <glyph glyph-name="N" unicode="N" horiz-adv-x="1060" 
d="M1030 1174q-6 -201 -6 -370t4 -272.5t10 -191.5t13 -126.5t11.5 -77.5t6.5 -45t-2 -28q-11 -32 -85.5 -55t-135.5 -18q-42 5 -65 33t-33 90q-66 98 -150 246t-129 233t-141 272q-10 -148 -23 -309t-21 -249l-8 -87l-12 4l-51 -100l-31 -17l-24 -67l-25 20l-29 -69
q-24 0 -36 -6q-11 -6 -25 -25q-5 29 -7 352.5t-11.5 659t-30.5 409.5q35 13 84 19q44 18 91 23.5t92 -2.5t81.5 -36.5t54.5 -74.5q112 -303 346 -797q11 278 40 578t55 395q3 -2 7 -23.5t7 -23.5q2 -2 5 4.5l6 13t5 4.5q3 -3 14.5 -39.5t14.5 -40.5q5 -5 14.5 -6t16.5 0l6 2
q55 -94 90 -184z" />
    <glyph glyph-name="O" unicode="O" horiz-adv-x="1056" 
d="M-33 711q0 108 12.5 204t32 163t45.5 123.5t49 90t46.5 59t35.5 34.5t17 12q37 20 82 9.5t83.5 -36t64.5 -60.5t26 -63q0 -13 -18.5 -38t-44.5 -64t-52 -93t-44.5 -142.5t-18.5 -194.5q0 -112 20.5 -206.5t50 -151t64 -97t59.5 -57t39 -17.5q20 -2 50 18.5t65 67.5
t65 112t50 165.5t20 214.5q0 104 -16.5 187t-43 133t-58 85.5t-63.5 50.5t-58.5 23t-42.5 8h-17l-14 4l21 12q8 6 5 11t41 -0.5t97 -27t73 -56.5q-16 42 -73.5 68t-106.5 34l-49 9q0 34 39 51q38 17 85.5 21t100.5 -7.5t105 -38.5t99.5 -77t83.5 -116t57.5 -162.5
t21.5 -211.5q0 -148 -32 -277t-83 -216.5t-113 -150.5t-122 -92.5t-111 -29.5q-127 0 -233.5 45t-177.5 118t-120.5 167.5t-71.5 191t-22 191.5z" />
    <glyph glyph-name="P" unicode="P" horiz-adv-x="1138" 
d="M1141 897q-1 -90 -32.5 -163.5t-80 -120.5t-117.5 -82.5t-132.5 -53.5t-138.5 -29t-123 -13.5t-97 -2.5l-17 -233q-13 -25 -36 -62l-43 -86q-25 -8 -41 -26l-19 -45l-16 2l-27 -41l-18 10q-4 -3 -13 -16.5t-14 -14.5q-5 31 -20 586q-168 108 -168 350l3 6t7.5 10.5
t9.5 8.5t7 -4t3 -23q0 -25 34.5 -55t94.5 -56q-5 166 -16 355q-11 -2 -37.5 -7.5t-40.5 -7.5q-37 -26 -79 31q-43 60 -48 138q-5 94 61 117q5 2 11 3q8 2 45 10t59 11v6q-2 7 5.5 18t21.5 15q117 31 197 -9q74 6 142.5 6t142 -6.5t138 -23.5t125.5 -43.5t108.5 -69t84 -96.5
t55.5 -129t19 -164zM977 942q6 82 -140.5 137t-383.5 51v-18q-6 -193 -19 -420q124 3 247 37t207.5 91.5t88.5 121.5z" />
    <glyph glyph-name="Q" unicode="Q" horiz-adv-x="1124" 
d="M1133 31q3 -17 -5 -31q-4 -5 -19.5 -10t-29.5 -8l-14 -2l10 -15l-43 -4l8 -6q1 -1 0 -2q-77 -18 -231 102q-80 -51 -152 -51q-127 0 -234 44t-178.5 115.5t-121 164t-72 187t-22.5 187.5q0 134 20.5 253.5t49.5 195t61 133t52.5 82t27.5 27.5q52 23 107 5t99 -56.5
t56 -75.5q4 -12 5.5 -21.5t-0.5 -17.5t-3 -13t-7 -10t-8 -7t-9.5 -7t-8.5 -6q-123 -213 -123 -477q0 -110 20.5 -202.5t50 -148t64 -95.5t60 -56t39.5 -17q20 -3 61 27q-119 135 -154 262q19 49 54.5 76t74 28t76.5 -24.5t62 -73.5q4 -8 13 -25.5t13 -25.5q52 141 52 324
q0 97 -15 177.5t-39 132t-53 91t-57.5 60t-52.5 33t-39 15.5l-15 3l-14 6l20 12q-47 13 -47 21q0 1 20 5.5t51.5 9.5t55.5 7q-25 3 -52 2t-49 -5l-22 -3q29 29 68 45q38 17 84 19.5t96.5 -12t99.5 -44.5t93.5 -82t78.5 -120t54 -164.5t20 -208.5q0 -347 -170 -568
q77 -83 162 -149z" />
    <glyph glyph-name="R" unicode="R" horiz-adv-x="1120" 
d="M1159 870q-3 -266 -274 -385q59 -107 82.5 -227t1.5 -213q5 84 -13 165t-38 120l-21 39q9 -29 21 -75.5t27 -141t3 -132.5l-10 13q-25 -41 -37 -43l-53 -13l-19 21q-50 194 -225 418q-96 -13 -182 -13h-12l-15 -210q-15 -25 -35 -58l-41 -82q-24 -8 -38 -26l-17 -41
l-16 2l-25 -39q-2 1 -4 2.5t-7 4t-7 1.5q-5 -2 -13 -14.5t-12 -12.5q-5 28 -20 547q-108 67 -148 199q-14 56 -8 84q7 -41 27 -88.5t35 -61.5q-28 56 -38.5 110t-2.5 89q8 -23 42 -48.5t87 -47.5q-7 155 -19 379q-47 -7 -125 -25q-33 13 -60 65t-29 106.5t32 92.5
q13 12 60.5 28.5t121.5 31.5t164 26.5t188.5 9.5t195 -16.5t183 -54.5t152 -100.5t104 -159.5t37.5 -226zM999 928q6 91 -146 149.5t-415 48.5q2 -20 2 -71q-3 -184 -16 -393q123 1 255 38.5t223.5 100t96.5 127.5z" />
    <glyph glyph-name="S" unicode="S" horiz-adv-x="1046" 
d="M813 1464q7 -4 18.5 -12t37 -35.5t39 -58.5t10 -81t-34.5 -103q-110 0 -250 -26.5t-228 -54.5t-88 -36q-1 -6 31.5 -18.5t85.5 -29t120.5 -43.5t138 -59.5t136.5 -80.5t117 -102.5t79.5 -129.5t23.5 -158q-6 -92 -29.5 -165.5t-63.5 -123t-89 -84t-112.5 -53.5t-127 -27
t-138.5 -8q-81 0 -156.5 31.5t-129.5 82t-94.5 111t-59.5 120.5t-16 108q4 71 14.5 136.5t19.5 95.5l9 30q-1 -9 -2 -26t-3 -69.5t-1 -105.5q1 44 7 100t11 90l6 34l33 37l10 -25q-17 -296 189 -387q140 -61 337 -18q129 28 190 77q22 19 24 33q2 32 -34.5 62t-98 55
t-140 54.5t-160.5 57.5t-160 66t-138.5 78.5t-96 97t-31.5 119.5q10 164 33 170q3 53 55.5 97.5t133 73t171 50t178.5 32.5t144.5 16t79.5 5z" />
    <glyph glyph-name="T" unicode="T" horiz-adv-x="923" 
d="M551 1417q173 -7 641 -41q-5 -44 -28.5 -91.5t-82 -100t-141.5 -78.5q-61 -2 -163 -7.5t-124 -6.5q-5 -184 -22.5 -405t-32.5 -351l-14 -129l-45 -101l-17 3l-33 -74q-10 16 -24 -2l-19 -43h-16l-27 -41l-18 51q-19 -70 -27 -72q-4 26 -6.5 216.5t-7 470t-12.5 460.5
q-184 -10 -324 -18q-49 -1 -83.5 33t-46 83.5t-10 100.5t22 88.5t52.5 42.5q131 18 366 18q13 13 23 17q133 36 219 -23z" />
    <glyph glyph-name="U" unicode="U" horiz-adv-x="1089" 
d="M428 1241q0 -7 -18.5 -99.5t-33.5 -213.5t-20.5 -261t25 -279t98.5 -230q105 36 174.5 135t96.5 225.5t28 270t-23 269t-65.5 221.5t-91.5 130l14 18q23 0 35 -2l5 -4q6 -4 14.5 -11t20.5 -16.5t25.5 -21.5t27.5 -25.5t28 -29.5t26 -32.5t22.5 -35t17.5 -35.5
q-6 21 -15.5 42t-20 38.5t-22.5 34.5t-23.5 30t-22.5 24.5t-20.5 20t-16.5 14.5l-10.5 9t-2.5 3q111 -25 198.5 -120t132.5 -228t64.5 -288t-4.5 -304t-74 -269.5t-145.5 -192t-218.5 -65.5q-96 5 -178 33t-141 70.5t-106.5 102t-78 120.5t-52.5 133t-33 131.5t-17 124.5
t-7 104.5t0 77.5q2 81 21 194.5t37 187.5l18 73q-2 6 -4 14t-4.5 28t4.5 21q22 19 77 24t113 -5.5t102.5 -51t43.5 -104.5z" />
    <glyph glyph-name="V" unicode="V" horiz-adv-x="1130" 
d="M1120 1290q5 -37 -2 -78q-4 -11 -66.5 -162.5t-116 -292t-115.5 -361t-89 -412.5q-183 -28 -261 -9.5t-89 86.5q-46 -27 -57 -6q-3 11 -32.5 125.5t-59.5 228t-76.5 269t-89 277t-91 221.5t-88.5 131q5 3 13 8.5t34 18.5t52.5 22t63.5 14.5t71 1.5t72 -22.5t69 -52
t60 -93t47 -139.5q17 -71 51 -201.5t57.5 -231t34.5 -175.5q219 583 508 1038q3 2 5 -3.5t5 -15t8 -14.5q3 -2 14.5 2.5t14.5 -0.5l8 -63q25 -10 33 -37q1 -4 -2 -25.5t-6 -40.5l-4 -20l16 14q8 5 8 -2z" />
    <glyph glyph-name="W" unicode="W" horiz-adv-x="1386" 
d="M1466 1407q68 -85 -63 -360q-204 -426 -209 -1016q-9 -3 -24 -7.5t-56.5 -10t-77.5 -1.5q-89 -18 -147 66q-48 128 -90.5 293t-62.5 268t-50 270q-193 -576 -213 -870q-5 -2 -13 -4.5t-31 -7t-44.5 -4.5t-46.5 7t-43 23l-6 -8q-4 -4 -12 9.5t-15 28.5l-6 15q2 -71 -2 -71
q-16 0 -21 18q-3 13 -36.5 203.5t-67.5 368t-88.5 381.5t-103.5 298q-33 10 -49.5 30t3.5 36q5 3 14 7.5t36.5 16t55 18.5t66 10t73 -4t72 -29t66.5 -59t53.5 -100t37.5 -147q31 -213 43 -393q125 340 225 504q-1 6 -4 15.5t-4 12.5q-13 3 -14.5 15.5t12.5 23.5
q191 65 225 -45q21 -66 60.5 -275t60.5 -302q146 471 364 858q4 1 6.5 -4.5t2.5 -10.5l1 -6l27 17q15 -33 23 -41q8 -6 39 -19.5t34 -17.5z" />
    <glyph glyph-name="X" unicode="X" horiz-adv-x="1136" 
d="M963 1446q7 -1 19 -4t41.5 -15.5t52 -29t39.5 -46t15 -65.5q-2 -31 -62.5 -99t-190 -206t-232.5 -264q170 -318 432 -561q0 -20 -6 -47q-1 -3 6.5 -16.5t5.5 -16.5q-1 -1 -16 5t-16 5q-2 -1 3 -10t3 -10q-3 -3 -15 -7.5t-14 -5.5q-55 -37 -122 -44.5t-122 22.5
q-158 114 -352 405q-164 -240 -278 -477q-7 8 -7 16l-32 -34q-1 12 -9 14q-5 0 -12 4t-12 8l-4 4q-31 -8 -45 15q-19 32 -15 96q65 248 279 571q-84 146 -163.5 304t-119 248t-39.5 100q5 5 13.5 14t36 31.5t55.5 40t67.5 31.5t75.5 14q28 0 52.5 -10.5t46.5 -36t39.5 -51.5
t39 -73.5t37 -84.5t42.5 -102.5t46 -110.5q99 124 204.5 241t164.5 175.5t68 62.5z" />
    <glyph glyph-name="Y" unicode="Y" horiz-adv-x="1132" 
d="M971 1405q54 -7 90.5 -33t50 -59t18 -55.5t3.5 -36.5q0 -2 -13.5 -51t-32 -122t-41 -179.5t-41 -222.5t-32.5 -252t-15 -267t11 -268q-1 -8 -5.5 -37.5t-5.5 -44.5q0 -2 -8 52.5t-16 109.5l-8 55l24 -260q-2 -34 -6 -76l-3 16l-3 15q0 -2 2 -29t2 -29q-2 -44 -1.5 -63.5
t2 -34.5t1.5 -16q0 -2 -7 3q-1 2 -3 3q0 -6 -6 -19t-10 -16q-16 -10 -31 -15.5t-29 -4t-20 13.5q-212 417 -162 1065q-21 -56 -52 -141t-48 -131t-38 -98t-36.5 -79t-28.5 -37q-34 -27 -131 -16q-82 11 -136.5 71.5t-78.5 153t-34.5 203.5t-11 231.5t-1.5 227.5t-11.5 201
t-35.5 143q-5 11 -13.5 21t-13.5 14l-6 4q0 110 160 88q48 -6 82 -23.5t56 -42.5t34.5 -68.5t18 -88t7.5 -116.5t2 -138.5t2 -168.5t7 -194q14 -2 87 135t171.5 324t152.5 266q1 6 2 17.5t2 17.5q4 33 27.5 53.5t53 25t59.5 6.5t47 -3z" />
    <glyph glyph-name="Z" unicode="Z" horiz-adv-x="1263" 
d="M1286 565q12 -30 12 -67q0 -141 -73.5 -252.5t-190.5 -169.5t-258.5 -85t-282 1.5t-256.5 88.5t-186.5 177t-66.5 266q2 97 27 179.5t63 142t97.5 113t117.5 90t135 75.5q-53 3 -115.5 -0.5t-102 -7.5t-72.5 -3t-44 11q-110 92 -43 291q22 -3 62 -7t160.5 -12t238 -10
t276.5 6.5t295 30.5l6 -9t16 -25t21 -36t21 -42.5t16 -45t7 -43t-7 -36.5q-4 -11 -16 -17q7 -43 -3.5 -71t-41.5 -27q-152 1 -303 -38.5t-266.5 -102t-206.5 -136t-139 -145t-48 -125.5q0 -68 55.5 -118t144 -72.5t196 -29.5t215 10t196 46.5t144 79.5t55.5 109v2
q-12 41 -51.5 72.5t-85 48t-102.5 27.5t-93.5 14t-69.5 4l-2 26l-39 17q45 8 115 16q-16 5 -40 6.5t-40 0.5l-16 -1l-60 11l138 12l-93 16l-57 15l80 18q-57 15 -92 33q21 5 41.5 8.5t64 6t84 0t94.5 -15t102.5 -34.5t101 -62.5t96.5 -95.5q56 -74 69 -129z" />
    <glyph glyph-name="bracketleft" unicode="[" 
 />
    <glyph glyph-name="backslash" unicode="\" horiz-adv-x="897" 
d="M12 1483q5 6 14.5 14.5t38.5 27t57 27.5t66 3.5t70 -33.5q30 -26 88.5 -180t125.5 -356.5t181 -498t232 -542.5q5 -9 -17 -38.5t-62 -42t-106 31.5q-87 130 -196.5 378t-194 476.5t-169.5 445t-128 287.5z" />
    <glyph glyph-name="bracketright" unicode="]" 
 />
    <glyph glyph-name="asciicircum" unicode="^" 
 />
    <glyph glyph-name="underscore" unicode="_" horiz-adv-x="1128" 
d="M2 160q7 150 154 149q6 0 211.5 -11.5t433.5 -23t293 -10.5q6 0 8 -18.5t-5 -46.5t-24 -57.5t-56 -56t-93 -38.5q-114 -23 -246.5 -35t-234 -14t-190.5 -3.5t-140.5 -10t-57.5 -27.5q-31 35 -44.5 76t-11 70t2.5 57z" />
    <glyph glyph-name="grave" unicode="`" 
 />
    <glyph glyph-name="a" unicode="a" horiz-adv-x="968" 
d="M49 465q-12 29 -24 29q188 467 241 903q237 35 309 -15q152 4 170 -118q13 -93 34.5 -205t77.5 -320.5t130 -404.5l-33 33l-14 -23l-22 14l-19 11l-22 -19q-9 19 -19 37l-33 -80l-18 12q-252 70 -627 0q-66 -11 -99.5 31.5t-31.5 114.5zM379 651q112 -5 244 -41
q-53 122 -123 308q-52 -133 -121 -267zM958 121q4 -5 9 -13t13.5 -24.5t6.5 -22.5l-22 -84l-19 11q-156 22 -404 -3t-384 -69q-51 -17 -87.5 6t-51 68t-11.5 102t25 107q101 59 315 69.5t396.5 -23t213.5 -87.5q2 -2 -4 0l-6 2l29 -35z" />
    <glyph glyph-name="b" unicode="b" horiz-adv-x="1271" 
d="M1270 475q5 -95 -24.5 -171.5t-85.5 -129t-136 -88t-173 -51.5t-200 -17q-4 0 -62 -1t-88.5 0t-85 6.5t-98.5 17.5q-20 -35 -22 -39q-8 -10 -17 -2t-14 25q-2 -12 -4 -26t-3 -19.5t-3.5 -10.5t-7.5 -8t-16 -20.5t-15 -18.5q-5 21 -8 162q-176 95 -207 332q74 -46 201 -76
q-4 227 -8 328q-31 0 -105 -4q-4 3 -11 8t-22.5 25t-23 43t-5.5 62t21 83q8 8 51 16l-2 23q35 8 88 22q-7 122 -12 199q-35 0 -47 8q-27 20 -41 82t6 100q23 5 60 11q-3 15 -9 24q6 3 16.5 6.5t41.5 11.5t59 10.5t62 -2.5t59 -22q395 42 565 -8q84 -61 84 -272q-1 -4 -3 -11
t-14 -28t-29 -41.5t-52 -48.5t-80 -52q87 -21 157.5 -55t129.5 -85.5t93.5 -127.5t39.5 -170zM446 1161q0 -24 1.5 -68t1.5 -65q222 76 299 141q-28 16 -302 -8zM1016 475l-2 21q-20 72 -153 118q-148 52 -415 58q-7 -202 -28 -359q359 -11 598 162z" />
    <glyph glyph-name="c" unicode="c" horiz-adv-x="1058" 
d="M1044 676q27 -110 21 -209.5t-49 -184.5t-108.5 -147t-158.5 -97.5t-198 -35.5q-70 0 -137.5 17.5t-131 51.5t-116 89t-91 125.5t-58.5 165.5t-17 204q12 343 227 552q146 142 337 183q152 33 247 -13q74 -35 72 -105q-2 -74 -35.5 -156.5t-79.5 -101.5
q-167 78 -300 29.5t-216.5 -168t-87.5 -250.5q-2 -49 25.5 -103.5t75.5 -101t120.5 -77t151.5 -30.5q75 0 148 28t127.5 71t97.5 92.5t65.5 95.5t23.5 78q3 34 13 33.5t21 -17.5z" />
    <glyph glyph-name="d" unicode="d" horiz-adv-x="1234" 
d="M45 1360q17 19 91.5 37.5t184.5 24t237 -6t252.5 -63.5t227.5 -136t164.5 -236t61.5 -351q0 -109 -35 -200.5t-89.5 -153t-129 -109.5t-148 -75t-152 -44.5t-135.5 -23t-104 -5.5q-7 0 -57 5l-13 -27l-36 2l-23 -55l-23 6q-14 -25 -18 -25q-3 19 -6 127q-44 16 -83 40
t-78 64.5t-66.5 91.5t-44.5 125.5t-17 162.5q1 3 3.5 7.5t8.5 12.5t10.5 10.5t8.5 -5t4 -28.5q0 -43 70.5 -94.5t175.5 -79.5q-12 479 -29 715q-96 -19 -154 -37q-25 11 -48.5 52.5t-36 91t-7.5 101t33 79.5zM469 336h8v260l-18 -260h10zM1092 700q4 66 -67.5 142.5
t-203 140.5t-282.5 88q-5 -319 -25 -733q127 10 260 66.5t223 138t95 157.5z" />
    <glyph glyph-name="e" unicode="e" horiz-adv-x="1036" 
d="M287 362q241 79 483 120t404 10q0 -6 -10 -19t-20 -23l-9 -10l-11 -24l-77 -37l57 -6q-57 -22 -90 -49q-15 -12 -36 -36.5t-36 -29.5q-19 0 -137 -30t-331 -103.5t-398 -163.5q-31 -15 -71 50t-46 135t39 106q14 8 43 18q0 51 1 228.5t0.5 279t-3 241t-8.5 226t-17 123.5
q9 4 24.5 9t58.5 12.5t79 3.5q190 25 819 16q-2 -6 -2.5 -19.5t-0.5 -23.5l1 -10q-36 -16 -63 -45l-47 -35l41 -2l-68 -35l-2 -25q-82 -34 -94 -38q-3 0 -400 -64q0 -8 -1 -24.5t-1 -24.5q-2 -55 -10 -152q290 37 514 33q0 -5 -4 -16t-8 -19l-4 -8l-8 -49l-64 -35l27 -2
l-68 -43l2 -20l-73 -19l-15 -24q-73 -35 -102 -45q-5 0 -38.5 -8.5t-91 -24t-98.5 -25.5q-12 -127 -30 -244z" />
    <glyph glyph-name="f" unicode="f" horiz-adv-x="899" 
d="M944 1458q14 -12 30 -47t23 -80.5t0 -88t-46 -72t-107 -29.5q-4 0 -73 -4.5t-184.5 -12t-203.5 -12.5q-1 -29 -3 -86t-3 -86q252 27 457 27q0 -5 -4 -16t-8 -19l-5 -8l-6 -50l-63 -34l24 -2l-65 -43l2 -21l-74 -18l-14 -25q-72 -35 -103 -47q-4 0 -156 -39l-28 -418
l-15 17l-8 -51l-24 -7l-27 -77l-59 -37l-35 -49l-19 10l-16 -53q-17 -25 -25 -25q-5 26 -10.5 218t-13.5 472t-19 459l-24 6l14 25l-39 12l-55 12l18 21l-30 26l33 29l-80 2q-17 25 -17 37q12 1 166 26q-5 66 -16 117q-2 7 6 18t22 15q34 10 66.5 13.5t77.5 0t84 -33
t63 -82.5q514 84 592 110z" />
    <glyph glyph-name="g" unicode="g" horiz-adv-x="1060" 
d="M1075 578q16 -157 -45 -288t-184.5 -207.5t-282.5 -76.5q-70 0 -137.5 17.5t-131 51.5t-116 89t-91 125.5t-58.5 165.5t-17 204q12 343 227 552q146 142 337 183q152 33 247 -13q74 -35 72 -105q-2 -74 -35.5 -156.5t-79.5 -101.5q-167 78 -300 29.5t-216.5 -168
t-87.5 -250.5q-2 -49 25.5 -103.5t75.5 -101t120.5 -77t151.5 -30.5q119 0 223.5 64.5t173.5 155.5q-65 4 -167 13t-173 16t-76 7q-98 29 -208 172q-3 3 26.5 10t92.5 18t153 24q-38 2 -77 0.5t-79.5 -5t-71 -7t-51.5 -6.5t-22 -3q-22 6 -25 17q27 3 108.5 14.5t146.5 20
t163 18t157 9.5t128 -5q39 -5 66.5 -56t36 -111.5t1.5 -104.5z" />
    <glyph glyph-name="h" unicode="h" horiz-adv-x="985" 
d="M1012 1350q8 -25 8 -63.5t-5.5 -86t-15.5 -125.5q-2 -9 -2.5 -14.5t-1.5 -13.5t-2 -15q-24 -194 -37 -401t-14 -317v-111l-8 -21l-12 2l-13 -63l-14 2l-14 4l-29 -125l-23 18l-10 -18l-24 -2q-7 -31 -15 -33q-4 -2 -14 -2q-64 163 -90 451q-12 -9 -27 -13q-23 0 -55 -3
t-75 -9.5t-73 -11.5t-83 -14.5t-72 -12.5l-10 -149l-15 18l-10 -53l-25 -6l-26 -78l-60 -37l-34 -49l-19 12l-16 -55q-19 -23 -27 -25q-5 29 -11 347.5t-19.5 665t-34.5 450.5q-2 7 5 17.5t23 14.5q23 7 47 12t57.5 5t63 -7.5t59.5 -29.5t51 -57.5t32.5 -94.5t9.5 -137
q-4 -155 -21 -475q168 21 351 4q-8 256 -1 458.5t23 303.5q46 20 115.5 24.5t133.5 -16t79 -65.5z" />
    <glyph glyph-name="i" unicode="i" horiz-adv-x="430" 
d="M72 1419q23 6 46.5 9t57 1t62.5 -11.5t58.5 -33.5t49.5 -61t31.5 -97.5t9.5 -138.5q-7 -188 -22 -418.5t-26 -366.5l-11 -136l-15 18l-10 -51l-24 -6l-27 -76l-59 -35l-35 -47l-17 15l-16 -56q-19 -22 -27 -22q-5 30 -9 352t-14.5 673.5t-31.5 457.5q-2 7 6.5 17t22.5 13
z" />
    <glyph glyph-name="j" unicode="j" horiz-adv-x="1005" 
d="M311 696q-32 -93 -22 -188t46 -176.5t93 -147.5q104 31 172 130t93 227t24 274.5t-27 274.5t-70 225t-96 127l15 20q6 0 17 -1t17 -1q5 0 42 -26t86 -75t69 -95q-35 110 -156 197l-6 5q101 -16 181.5 -88.5t129 -178.5t72.5 -237t19.5 -264t-38 -260t-90.5 -225
t-148 -157.5t-202 -59.5q-116 0 -209 29t-151.5 78t-97 111t-51.5 130t-9 132.5t25 121.5q29 81 92.5 121.5t117 31t62.5 -54.5z" />
    <glyph glyph-name="k" unicode="k" horiz-adv-x="1030" 
d="M1018 1202q-25 -108 -112.5 -228.5t-211.5 -232.5q80 -80 148.5 -214t100 -279.5t5.5 -243.5q2 54 -5 108t-18.5 92t-23 68.5t-19.5 45.5l-8 16q9 -30 21.5 -76t28 -142t2.5 -136l-11 12q-22 -43 -36 -45l-58 -10l-18 20q-33 130 -138.5 319t-191.5 291q-97 -62 -145 -84
l-21 -290q-15 -23 -35 -60q-6 -7 -17 -28t-19 -39l-7 -17q-27 -8 -41 -24l-18 -41h-16l-25 -41l-20 10q-5 -3 -13 -16t-12 -13q-6 29 -14.5 340.5t-24 650t-37.5 439.5q0 8 8 17.5t23 12.5q33 9 67.5 13t82.5 -7t83.5 -41.5t60 -100t21.5 -171.5q-2 -104 -10 -293
q52 44 101 97t104 127t100.5 171.5t71.5 202.5q17 31 57 35t83.5 -15.5t82.5 -50.5t61 -72t13 -77z" />
    <glyph glyph-name="l" unicode="l" horiz-adv-x="772" 
d="M801 164q4 -5 9.5 -13t14 -24t6.5 -21l-24 -83l-19 8q-250 36 -620 -84q-51 -16 -87.5 7t-50.5 68t-11 101.5t24 105.5q4 2 12.5 6.5t12.5 6.5q5 264 1 657t-24 506q-2 7 6.5 18t22.5 15q23 6 47.5 9t58 1t63 -12t58.5 -34t48.5 -60.5t30 -96.5t5.5 -137
q-6 -115 -17 -249.5t-19 -220.5t-20 -200t-14 -137q162 14 309 -15t179 -85q1 -3 -6 0l-4 2l26 -35z" />
    <glyph glyph-name="m" unicode="m" horiz-adv-x="1363" 
d="M1321 1067q3 -201 19 -414.5t31 -326.5l15 -113l-20 -74l-20 -4l-9 -51l-16 -61l-27 -5l-4 -47q-23 4 -33 -2q-3 -1 -5 -11t-5 -11q-146 264 -229 878q-108 -339 -240 -690q-4 -13 -26.5 -27t-53.5 -19t-62 0.5t-54.5 35.5t-28.5 82q-26 59 -100.5 241.5t-114.5 278.5
q-15 -136 -33 -271.5t-29 -202.5l-10 -67l-26 4l-78 -137l-53 -16l-17 -33l-10 7.5t-19.5 10t-21.5 1.5t-21.5 -29t-19.5 -25q14 139 28 404t19.5 544t-8.5 439q0 2 -4 6l4 2q-3 43 -8 61l9 3t25 6t37.5 6t44.5 1t50 -7q91 19 165.5 -3t94.5 -88q128 -442 198 -712
q125 338 314 719q-2 18 -2 45q43 27 111 40.5t134 1t88 -56.5q8 -16 12.5 -36.5t6 -46t2 -58.5t0 -75.5t0.5 -96.5z" />
    <glyph glyph-name="n" unicode="n" horiz-adv-x="1050" 
d="M1049 1196q-12 -211 -17 -388t-3.5 -284.5t5 -198.5t9.5 -130t9.5 -78.5t5.5 -45t-3 -28.5q-9 -25 -37.5 -49t-68 -35.5t-79 -7.5t-74.5 41.5t-51 105.5q-40 63 -82 136t-89.5 165t-78 152t-87 174t-76.5 154q-11 -156 -26.5 -327t-25.5 -264l-10 -93l-12 6l-51 -109
l-31 -16l-24 -72l-25 23l-29 -76q-25 0 -37 -6q-10 -5 -24 -25q-5 31 -4 372t-5.5 695.5t-27.5 433.5q35 15 84 19q59 27 121.5 29.5t118.5 -28.5t79 -95q103 -295 340 -830q21 297 57.5 608t63.5 410q3 -3 7.5 -26.5t7.5 -26.5q2 -2 4 4l12 20q3 -3 13.5 -42t13.5 -44
q5 -5 14 -6t16 1l6 1q53 -100 84 -198q1 -2 2.5 -6t2.5 -7.5t2 -7.5z" />
    <glyph glyph-name="o" unicode="o" horiz-adv-x="821" 
d="M45 242q-22 -50 -25 -107t11.5 -102t51 -68t87.5 -6q370 120 623 84l18 -10q19 70 23 84q2 6 -5.5 21t-15.5 26l-8 12l16 4l-26 33q3 -1 5.5 -1.5t4.5 1.5q-23 41 -115.5 68.5t-207 35t-237.5 -11t-200 -63.5zM-2 895q0 81 16 159t38.5 133t48 99t44.5 66t27 26
q45 18 90 1t79 -47t38 -52q4 -14 -1 -30t-20 -19q-1 -1 -10.5 -17.5t-12 -22t-11.5 -23t-13 -27.5t-11.5 -29t-10.5 -34.5t-7.5 -36t-6 -42.5t-1.5 -45q0 -65 12.5 -120t30.5 -88.5t39 -57t36.5 -33t23.5 -10.5q12 -1 30.5 10.5t39.5 39t39 66t30 97.5t12 127
q0 61 -10.5 110.5t-26.5 79t-36 50.5t-40 30t-36 14t-26 5h-11l-8 2q1 0 2 0.5t4.5 2t5.5 3t3.5 4t0.5 4.5q-14 14 -14 15q7 20 24 28q23 10 56 11.5t72 -8t79 -29t77 -54.5t66 -80.5t46.5 -111.5t17.5 -143q0 -152 -48 -279t-138.5 -203t-206.5 -74q-64 1 -124 28.5
t-105 72t-82.5 100.5t-61 115.5t-36.5 115.5t-13 101z" />
    <glyph glyph-name="p" unicode="p" horiz-adv-x="1089" 
d="M1141 903q-1 -90 -32.5 -163.5t-80 -120.5t-117.5 -82.5t-132.5 -53.5t-138.5 -29t-123 -13.5t-97 -2.5l-17 -233q-13 -25 -36 -62l-43 -86q-25 -8 -41 -26l-19 -45l-16 2l-27 -41l-18 10q-4 -3 -13 -16.5t-14 -14.5q-5 31 -20 586q-168 108 -168 350l3 6t7.5 10.5
t9.5 8.5t7 -4t3 -23q0 -25 34.5 -54.5t94.5 -55.5q-5 164 -16 354q-11 -2 -37 -7t-41 -7q-37 -26 -79 31q-44 60 -48 138q-5 94 63 116q4 2 9 3q8 2 45 10t59 11v6q-2 7 5.5 18t21.5 15q118 31 197 -8q65 5 126.5 6t127 -4t124 -16t116 -32t105 -50t88.5 -70.5t69 -93
t43.5 -119.5t15.5 -148zM977 948q6 82 -140.5 137.5t-383.5 51.5v-19q-6 -193 -19 -420q124 3 247 37t207.5 91.5t88.5 121.5z" />
    <glyph glyph-name="q" unicode="q" horiz-adv-x="890" 
d="M926 520q1 -1 1.5 -3.5t1.5 -8.5t-1 -10q-2 -5 -13 -11.5t-21 -10.5l-11 -3l8 -10l-31 -8q0 -2 6 -4q-54 -24 -194 53q-103 -119 -250 -119q-76 1 -145.5 39.5t-118.5 98.5t-85.5 131.5t-54.5 140t-18 123.5q0 81 15 157.5t36.5 129t46 94.5t42.5 62.5t26 24.5
q45 17 90 1t79 -47.5t34 -53.5q0 -13 -14.5 -40t-32 -57t-32 -87.5t-14.5 -124.5q0 -65 12.5 -120t30.5 -88.5t39 -57t36.5 -33t23.5 -10.5q15 0 33 12q-45 52 -64 96q15 67 65 88.5t99 -14.5q18 81 18 158q0 79 -16.5 137.5t-40.5 85t-47.5 41.5t-40.5 16l-16 2l-11 2
l17 15q-1 2 -7 7t-6 7q0 19 25 29q23 10 54.5 11t68.5 -9.5t74.5 -30.5t72 -55t61.5 -80t42.5 -108.5t15.5 -137.5q-3 -171 -63 -309q73 -60 159 -107zM811 188l-18 -4q4 -5 9 -12.5t13 -23t6 -21.5l-22 -84l-19 8q-254 36 -620 -82q-51 -17 -87.5 5.5t-51 68t-11.5 102
t25 105.5q77 45 199.5 63.5t236.5 12t207 -34t117 -68.5q1 -3 -6 -1l-5 1z" />
    <glyph glyph-name="r" unicode="r" horiz-adv-x="1126" 
d="M1159 870q-3 -266 -274 -385q59 -107 82.5 -227t1.5 -213q5 84 -13 165t-38 120l-21 39q9 -29 21 -75.5t27 -141t3 -132.5l-10 13q-25 -41 -37 -43l-53 -13l-19 21q-50 194 -225 418q-96 -13 -182 -13h-12l-15 -210q-15 -25 -35 -58l-41 -82q-24 -8 -38 -26l-17 -41
l-16 2l-25 -39q-2 1 -4 2.5t-7 4t-7 1.5q-5 -2 -13 -14.5t-12 -12.5q-5 28 -20 547q-108 67 -148 199q-14 56 -8 84q7 -41 27 -88.5t35 -61.5q-28 56 -38.5 110t-2.5 89q8 -23 42 -48.5t87 -47.5q-7 155 -19 379q-47 -7 -125 -25q-33 13 -60 65t-29 106.5t32 92.5
q13 12 60.5 28.5t121.5 31.5t164 26.5t188.5 9.5t195 -16.5t183 -54.5t152 -100.5t104 -159.5t37.5 -226zM999 928q6 91 -146 149.5t-415 48.5q2 -20 2 -71q-3 -184 -16 -393q123 1 255 38.5t223.5 100t96.5 127.5z" />
    <glyph glyph-name="s" unicode="s" horiz-adv-x="1067" 
d="M813 1436q7 -4 18.5 -12t37 -35.5t39 -59t10 -81.5t-34.5 -103q-110 0 -250 -26.5t-228 -54.5t-88 -36q-1 -7 40.5 -21.5t108 -37t147 -54.5t159.5 -80.5t143.5 -107t102 -142t31.5 -177.5q-6 -92 -29.5 -165.5t-63.5 -123t-89 -84t-112.5 -53.5t-127 -27t-138.5 -8
q-81 0 -156.5 31.5t-129.5 81.5t-94.5 110.5t-59.5 120.5t-16 108q4 71 14.5 137t19.5 96l9 30q-1 -9 -2 -26t-3 -69.5t-1 -105.5q1 44 7 100t11 89l6 34l33 37l10 -25q-17 -296 189 -387q140 -61 337 -18q129 28 190 77q22 19 24 33q2 32 -34.5 62t-98 55t-140 54.5
t-160.5 57.5t-160 66t-138.5 78.5t-96 97t-31.5 119.5q10 164 33 170q3 63 77.5 114t175.5 79.5t215.5 48.5t189 26.5t104.5 6.5z" />
    <glyph glyph-name="t" unicode="t" horiz-adv-x="899" 
d="M551 1417q173 -7 641 -41q-5 -44 -28.5 -91.5t-82 -100t-141.5 -78.5q-61 -2 -163 -7.5t-124 -6.5q-5 -184 -22.5 -405t-32.5 -351l-14 -129l-45 -101l-17 3l-33 -74q-10 16 -24 -2l-19 -43h-16l-27 -41l-18 51q-19 -70 -27 -72q-4 26 -6.5 216.5t-7 470t-12.5 460.5
q-184 -10 -324 -18q-49 -1 -83.5 33t-46 83.5t-10 100.5t22 88.5t52.5 42.5q131 18 366 18q13 13 23 17q133 36 219 -23z" />
    <glyph glyph-name="u" unicode="u" horiz-adv-x="839" 
d="M4 913q-3 130 13.5 242.5t35.5 165.5t33 59q47 16 101 1t97 -47t38 -54q-28 -116 -40 -214t-10 -163.5t13.5 -117t26.5 -80t33 -47t29.5 -24.5t18.5 -7q17 -2 46.5 16t62.5 53t56.5 102t23.5 150q0 80 -6.5 146.5t-16 105t-19 65.5t-16.5 37l-6 9l-8 2q1 0 2 0.5t4.5 2
t5.5 3t3.5 4t0.5 4.5q-12 12 -12 14q0 19 25 29q20 8 42 8.5t46 -7t47.5 -25t45 -43t40 -62t32 -81t21 -102t6.5 -122.5q-2 -153 -49.5 -279t-138 -202t-205.5 -74q-77 1 -145.5 35.5t-117.5 90.5t-85 125.5t-54.5 141.5t-19.5 139zM49 246q-21 -48 -24 -103.5t10.5 -99.5
t48.5 -66t84 -6q364 115 604 82l19 -10q16 68 22 82q2 6 -5.5 20.5t-15.5 25.5l-8 11l17 4l-27 33l10 -2q-22 40 -112 67t-200.5 34t-229.5 -11t-193 -61z" />
    <glyph glyph-name="v" unicode="v" horiz-adv-x="1083" 
d="M1155 1346q5 -36 -2 -80q-1 -3 -68 -165t-120.5 -303t-117 -369t-91.5 -425q-189 -29 -269.5 -10t-91.5 90q-48 -30 -59 -6q-3 12 -42.5 166t-83.5 308t-100 333.5t-115.5 310t-107.5 168.5q8 5 22 13.5t55.5 26t81 25t92 -1t95.5 -38.5t84.5 -100t65.5 -175
q11 -50 71 -286.5t76 -338.5q223 595 521 1067q4 2 6.5 -3.5t5.5 -14.5t8 -14q3 -2 14.5 2.5t14.5 -0.5l8 -66q27 -10 35 -39q1 -4 -2.5 -26t-6.5 -42l-4 -20l18 15q7 5 7 -2z" />
    <glyph glyph-name="w" unicode="w" horiz-adv-x="1394" 
d="M1466 1417q68 -85 -63 -360q-204 -426 -209 -1016q-9 -3 -24 -7.5t-56.5 -9.5t-77.5 -1q-90 -18 -147 65q-48 128 -90.5 293.5t-62.5 268t-50 270.5q-193 -576 -213 -871q-5 -2 -13 -4.5t-31 -7t-44.5 -4.5t-46.5 7t-43 23l-6 -8q-4 -4 -12 9.5t-15 29.5l-6 15
q2 -72 -2 -72q-16 0 -21 18q-3 13 -36.5 203.5t-67.5 368.5t-88.5 382t-103.5 298q-33 10 -49 29.5t3 35.5q5 3 14 7.5t36.5 16t55 18.5t66 10t73 -4t72 -29t66.5 -59t53.5 -100t37.5 -147q31 -213 43 -393q125 340 225 504q-1 6 -4 16.5t-4 12.5q-13 3 -14.5 15.5
t12.5 23.5q191 65 225 -45q21 -66 60.5 -275.5t60.5 -302.5q146 471 364 858q4 1 6.5 -4t2.5 -11l1 -5l27 16q15 -33 23 -41q8 -6 39 -19.5t34 -17.5z" />
    <glyph glyph-name="x" unicode="x" horiz-adv-x="1071" 
d="M963 1487q7 -1 19 -4t41.5 -15.5t52 -29t39.5 -46t15 -65.5q-2 -31 -62.5 -99t-190 -206t-232.5 -264q170 -318 432 -561q0 -20 -6 -47q-1 -3 6.5 -16.5t5.5 -16.5q-1 -1 -16 5t-16 5q-2 -1 3 -10.5t3 -10.5q-3 -3 -15 -6.5t-14 -5.5q-55 -37 -122 -44.5t-122 22.5
q-158 114 -352 405q-164 -240 -278 -477q-7 8 -7 16l-32 -34q-1 12 -9 14q-5 0 -12 4t-12 8l-4 4q-31 -8 -45 15q-19 32 -15 96q65 248 279 571q-84 146 -163.5 304t-119 248t-39.5 100q5 5 13.5 14t36 31.5t55.5 40t67.5 31.5t75.5 14q28 0 52.5 -10.5t46.5 -36t39.5 -51.5
t39 -73.5t37 -84.5t42.5 -102.5t46 -110.5q99 124 204.5 241t164.5 175.5t68 62.5z" />
    <glyph glyph-name="y" unicode="y" horiz-adv-x="1087" 
d="M971 1405q54 -7 90.5 -33t50 -59t18 -55.5t3.5 -36.5q0 -2 -13.5 -51t-32 -122t-41 -179.5t-41 -222.5t-32.5 -252t-15 -267t11 -268q-1 -8 -5.5 -37.5t-5.5 -44.5q0 -2 -8 52.5t-16 109.5l-8 55l24 -260q-2 -34 -6 -76l-3 16l-3 15q0 -2 2 -29t2 -29q-2 -44 -1.5 -63.5
t2 -34.5t1.5 -16q0 -2 -7 3q-1 2 -3 3q0 -6 -6 -19t-10 -16q-16 -10 -31 -15.5t-29 -4t-20 13.5q-212 417 -162 1065q-21 -56 -52 -141t-48 -131t-38 -98t-36.5 -79t-28.5 -37q-34 -27 -131 -16q-82 11 -136.5 71.5t-78.5 153t-34.5 203.5t-11 231.5t-1.5 227.5t-11.5 201
t-35.5 143q-5 11 -13.5 21t-13.5 14l-6 4q0 110 160 88q48 -6 82 -23.5t56 -42.5t34.5 -68.5t18 -88t7.5 -116.5t2 -138.5t2 -168.5t7 -194q14 -2 87 135t171.5 324t152.5 266q1 6 2 17.5t2 17.5q4 33 27.5 53.5t53 25t59.5 6.5t47 -3z" />
    <glyph glyph-name="z" unicode="z" horiz-adv-x="1247" 
d="M1286 565q12 -30 12 -67q0 -141 -73.5 -252.5t-190.5 -169.5t-258.5 -85t-282 1.5t-256.5 88.5t-186.5 177t-66.5 266q2 97 27 179.5t63 142t97.5 113t117.5 90t135 75.5q-53 3 -115.5 -0.5t-102 -7.5t-72.5 -3t-44 11q-110 92 -43 291q22 -3 62 -7t160.5 -12t238 -10
t276.5 6.5t295 30.5l6 -9t16 -25t21 -36t21 -42.5t16 -45t7 -43t-7 -36.5q-4 -11 -16 -17q7 -43 -3.5 -71t-41.5 -27q-152 1 -303 -38.5t-266.5 -102t-206.5 -136t-139 -145t-48 -125.5q0 -68 55.5 -118t144 -72.5t196 -29.5t215 10t196 46.5t144 79.5t55.5 109v2
q-12 41 -51.5 72.5t-85 48t-102.5 27.5t-93.5 14t-69.5 4l-2 26l-39 17q45 8 115 16q-16 5 -40 6.5t-40 0.5l-16 -1l-60 11l138 12l-93 16l-57 15l80 18q-57 15 -92 33q21 5 41.5 8.5t64 6t84 0t94.5 -15t102.5 -34.5t101 -62.5t96.5 -95.5q56 -74 69 -129z" />
    <glyph glyph-name="braceleft" unicode="{" 
 />
    <glyph glyph-name="bar" unicode="|" horiz-adv-x="423" 
d="M100 1673q4 2 10.5 4.5t26 7.5t38.5 8t44.5 1.5t47 -9t42.5 -25.5t35 -46q17 -35 11 -227.5t-22.5 -458.5t-25.5 -592t2 -629q1 -4 -10.5 -15t-32 -20t-44 -10.5t-51.5 16.5t-50 56q-29 154 -34.5 458t5.5 585t15 548.5t-7 347.5z" />
    <glyph glyph-name="braceright" unicode="}" 
 />
    <glyph glyph-name="asciitilde" unicode="~" 
 />
    <glyph glyph-name="exclamdown" unicode="&#xa1;" horiz-adv-x="450" 
d="M408 1407q3 -37 -32 -428t-61 -483q-7 -24 -31.5 -44.5t-55 -32.5t-60.5 -17.5t-51.5 -2t-24.5 16.5q-26 108 -38 259.5t-12 286t1.5 256.5t-4.5 196.5t-25 80.5q24 42 87.5 62t129.5 13t119.5 -50t57.5 -113zM29 236q9 6 24 15.5t59.5 27.5t85 23.5t90.5 -11.5t87 -62
q10 -38 -1 -105t-27.5 -121.5t-16.5 -55.5q-3 -19 -46 -42.5t-93.5 -34t-92.5 2.5q-32 65 -45.5 143t-15.5 140.5t-8 79.5z" />
    <glyph glyph-name="cent" unicode="&#xa2;" horiz-adv-x="1202" 
d="M0 614q11 316 245 510q166 138 392 178q178 32 291 -13q87 -34 86 -101q-2 -70 -36.5 -147.5t-84.5 -94.5q-157 60 -288.5 47.5t-227 -74.5t-150 -151t-57.5 -182q-1 -45 30.5 -96t85 -94t131.5 -72t161 -31q109 -3 203.5 23t155.5 67.5t105 92t63.5 94t20.5 75.5
q2 32 12.5 31.5t23.5 -16.5l12 -17q16 -80 17.5 -152t-12 -139t-42.5 -122t-77.5 -100t-114 -75.5t-154.5 -45t-197 -11.5q-89 3 -174 27t-163.5 73.5t-136.5 119.5t-91 172t-29 224zM485 1673q4 2 10.5 4.5t26 7.5t38.5 8t44.5 1.5t47 -9t42.5 -25.5t35 -46
q17 -35 11 -227.5t-22.5 -458.5t-25.5 -592t2 -629q1 -4 -10.5 -15t-32 -20t-44 -10.5t-51.5 16.5t-50 56q-29 154 -34.5 458t5.5 585t15 548.5t-7 347.5z" />
    <glyph glyph-name="sterling" unicode="&#xa3;" horiz-adv-x="856" 
d="M575 160q145 -20 219 -138q39 -63 37 -107q-1 -15 -8 -15l-4 2q-14 8 -28.5 15t-52 19t-75.5 17t-96 2.5t-116.5 -17t-133 -49.5t-149.5 -88q-45 1 -72.5 62t-36.5 141q-3 26 19 51l-2 2q3 3 9 8.5t22 25t29.5 41t26.5 57t19 73.5q16 105 -4 215q-55 -8 -86 -8
q-22 0 -43 39.5t-18.5 84t37.5 56.5q27 8 47 10q-20 42 -61.5 119t-62.5 120.5t-35 107.5t-5 122q29 193 184 279q131 71 293 43q153 -26 244 -125q110 -121 65 -287q-14 -50 -43 -102q-4 -2 -7 -2.5t-5.5 0t-5 2t-4 4t-3 4.5t-2.5 6t-2 6t-2 6t-1 5q-21 82 -84.5 129
t-192.5 47q-61 1 -109 -5t-76 -15.5t-45.5 -22.5t-23.5 -25.5t-4 -25.5q1 -6 25 -56t61.5 -139.5t65.5 -175.5q115 6 226 4t150 -10q0 -33 -58 -88.5t-116 -79.5q-29 0 -155 -12q39 -197 2 -345q163 27 247 13z" />
    <glyph glyph-name="currency" unicode="&#xa4;" 
 />
    <glyph glyph-name="yen" unicode="&#xa5;" horiz-adv-x="1122" 
d="M1110 1327q0 -1 -22 -82t-50 -208.5t-54.5 -283t-40 -345.5t-3.5 -357l21 -24l-19 -11q0 -15 4 -51q-9 -62 -10 -80q0 -1 -2.5 16.5t-7 47.5t-8.5 57l-5 -2q3 -33 7 -73.5t7 -65.5l3 -25q-3 -18 -8 -73l-4 14l-3 14q0 -2 3.5 -28t3.5 -27q-2 -43 -1.5 -65t1.5 -35t0 -17
q0 -2 -4 2t-7 6q0 -6 -6 -18.5t-10 -15.5q-15 -10 -30 -16t-29.5 -5t-20.5 14q-42 83 -80 195q-42 0 -211 1.5t-235 0.5q-40 -1 -70 3.5t-48 12t-29.5 19.5t-15 22.5t-4 24t1.5 22t5.5 18.5t3.5 11l19 -14q33 2 89.5 4.5t203 -2t260.5 -23.5q-2 10 -11.5 52t-13.5 65
q-296 4 -414 2q-35 -1 -64 2.5t-48.5 9t-33.5 15t-22 18t-12 20.5t-4.5 21t1 20.5t3.5 18t5 14.5t3 9l19 -17q32 3 86 5.5t199 0.5t264 -18q-30 232 -9 530q-22 -58 -52 -140.5t-47.5 -129.5t-38 -98t-36 -79t-28.5 -38q-35 -28 -129 -14q-82 10 -136.5 70.5t-79 153
t-35.5 203.5t-11.5 231.5t-1.5 227.5t-12 201t-36 143q-5 11 -13.5 21t-14.5 14l-5 4q0 107 162 88q55 -7 91 -27t57.5 -59t31.5 -82.5t13.5 -119.5t3.5 -146.5t2 -186.5t8 -218q14 -2 87.5 135t172 324t152.5 266q4 24 4 33q4 34 26.5 54.5t54.5 26t56.5 5.5t48.5 -3
q44 -6 77 -25t49 -42t25 -49t11 -43t0 -27zM905 70h2l-4 30q0 -12 2 -30z" />
    <glyph glyph-name="brokenbar" unicode="&#xa6;" 
 />
    <glyph glyph-name="copyright" unicode="&#xa9;" horiz-adv-x="1169" 
d="M1092 1026q45 -175 37.5 -308.5t-49.5 -228.5t-119.5 -155.5t-171.5 -88.5t-207 -28q-26 0 -60 3t-93 16t-113 34t-113.5 62t-102 95.5t-70 139t-26.5 187.5q2 109 28 199.5t69 153t100.5 110.5t122 75.5t133 44.5t133 21t123 0.5t102.5 -12.5t72 -21q43 -19 90 -71
q66 -74 28 -106q-7 -7 -20 -11q-301 119 -508 65q38 -5 51 -8q48 16 93.5 -1t75 -52t47.5 -75.5t18 -72.5q0 -41 -49.5 -88t-94.5 -26q-3 110 -45 198q-15 -38 -22.5 -58.5t-25 -70.5t-25.5 -86.5t-18.5 -89t-9 -95t7.5 -88.5t26 -86.5t51 -72.5q47 23 85.5 58.5t62 73.5
t41.5 80.5t24 79t9 68.5t-3 50q5 0 12 -6t11 -12l4 -5q3 1 7 1.5t13.5 1.5t10.5 -1q4 -3 8.5 -11t7.5 -15l2 -7q14 -2 18 -10q39 -55 39 -131q0 -87 -61 -172.5t-150 -122.5q113 19 189.5 81.5t110 142t44 178t2 180.5t-27.5 158q-12 50 18 17q23 -25 58 -81zM156 737
q0 -42 10.5 -88t37 -97.5t66 -94t105 -74t147.5 -39.5q-40 13 -76 37.5t-73 67.5t-58.5 114t-21.5 162q0 92 19 192t37 153.5t36 96.5q-114 -59 -171.5 -173.5t-57.5 -256.5z" />
    <glyph glyph-name="registered" unicode="&#xae;" horiz-adv-x="489" 
d="M469 1292q17 -112 -50.5 -189t-187.5 -77q-18 0 -42 3t-64 17.5t-71.5 38t-54.5 70.5t-22 109q1 71 29.5 124.5t71.5 81.5t95 43.5t100 16t85.5 -6.5t53.5 -20q8 -6 15.5 -19t5 -29t-22.5 -23q-168 68 -271 12q2 0 6 -1t5 -1q167 0 176 -2q17 -5 25.5 -37t8.5 -47
q0 -25 -28.5 -47t-71.5 -33q21 -47 55 -97t58 -51l6 -6q17 14 29.5 33.5t19 37t10.5 41t4.5 37.5t1 35t0.5 25q0 33 18 -17zM43 1255q0 -34 18 -74t54 -67q-6 225 -13 289q0 1 -1 4t-1 4q-57 -57 -57 -156zM225 1081q31 -2 78 6q-24 3 -33 19q-81 115 -86 194v9q12 6 17 6
q95 43 106 59q-4 3 -21.5 3t-49.5 -1.5t-50 -1.5v-12q-1 -46 -4 -102.5t-6 -89.5l-2 -33l-10 -31l-8 -10h-4q37 -15 73 -15z" />
    <glyph glyph-name="degree" unicode="&#xb0;" 
 />
    <glyph glyph-name="plusminus" unicode="&#xb1;" horiz-adv-x="1153" 
d="M1004 397q52 -8 77.5 -83t7.5 -150t-73 -82q-11 -1 -110 7.5t-213 15.5t-256 -6t-238 -52q-49 -20 -79 55q-32 78 -19 176q13 106 72 126l7 2q139 29 316 32q-23 119 -39 256q-152 -10 -258 -53q-49 -20 -80 55q-31 78 -18 176q14 106 73 125l6 2q123 25 252 31
q-6 90 -9 127.5t-9.5 91t-15 75.5t-21.5 26q18 16 39 26.5t36 16t38 7.5t32.5 2t32.5 -1.5t25 -1.5q54 -2 95.5 -23t60.5 -48.5t28 -50t8 -34.5q0 -21 -16 -221q107 -8 248 -31q52 -8 77.5 -83t7.5 -150t-73 -82q-10 -1 -47.5 2t-106 9t-127.5 9q-13 -196 -16 -264
q119 -8 285 -35z" />
    <glyph glyph-name="twosuperior" unicode="&#xb2;" horiz-adv-x="1019" 
 />
    <glyph glyph-name="threesuperior" unicode="&#xb3;" horiz-adv-x="1136" 
 />
    <glyph glyph-name="acute" unicode="&#xb4;" 
 />
    <glyph glyph-name="mu" unicode="&#xb5;" 
 />
    <glyph glyph-name="paragraph" unicode="&#xb6;" 
 />
    <glyph glyph-name="periodcentered" unicode="&#xb7;" horiz-adv-x="471" 
d="M121 719q22 17 51 28.5t63 14.5t67 -19t54 -69q24 -47 18.5 -99t-40.5 -90q-31 -33 -96.5 -38.5t-104.5 24.5q-46 39 -53 97t8.5 98t32.5 53z" />
    <glyph glyph-name="cedilla" unicode="&#xb8;" 
 />
    <glyph glyph-name="questiondown" unicode="&#xbf;" horiz-adv-x="1611" 
 />
    <glyph glyph-name="Agrave" unicode="&#xc0;" horiz-adv-x="972" 
d="M334 1731q9 33 32.5 66.5t61 62t84 31t102.5 -26.5q29 -91 59.5 -157t47 -92.5t16.5 -27.5q17 -45 8.5 -74.5t-35 -38.5t-60.5 -12t-68 6q-122 48 -190 135.5t-58 127.5zM969 197q1 -11 -6 -3q-13 14 -15 13.5t-2 -4.5q0 -6 11 -55.5t10 -55.5q-2 -34 -19 -72
q-3 -4 -14.5 -12.5t-13.5 -11.5q-3 -4 -3.5 -9t-3.5 -7l-12.5 -7.5t-9.5 -5.5q-8 -3 -16.5 -4t-12.5 -1l-4 1q-63 -3 -188 363q-24 -9 -54 -19q-84 8 -305 -22l-51 -133l-8 -11l-16 -16l-48 -59l37 198l-82 -239q-41 -1 -53 -9q-2 -1 -12 -25.5t-12 -25.5q-6 -4 -25 -10
q-11 -3 -21 0q0 22 62 305h-16q-30 3 -42.5 67.5t8.5 132.5t72 77q15 3 43 6q163 737 150 846q80 9 154 -11q16 13 54.5 28t87.5 23t94.5 4.5t77 -33.5t32.5 -85q0 -2 1 -95t3.5 -139t13 -161.5t27.5 -210t49.5 -233t77.5 -279.5zM408 555q106 -3 196 -12q-50 178 -88 358
q-48 -176 -108 -346z" />
    <glyph glyph-name="Aacute" unicode="&#xc1;" horiz-adv-x="970" 
d="M592 1878q33 -9 66.5 -32.5t62 -60.5t30.5 -84t-28 -104q-57 -18 -105 -37t-78 -33.5t-50 -25.5t-31.5 -18t-12.5 -8q-44 -17 -73 -8.5t-38.5 35t-11.5 61t7 69.5q25 64 64.5 116.5t78 80t71 41t48.5 8.5zM930 197q1 -11 -6 -3q-13 14 -15 13.5t-2 -4.5q0 -6 11 -55.5
t10 -55.5q-2 -34 -19 -72q-3 -4 -14.5 -12.5t-13.5 -11.5q-3 -4 -3.5 -9t-3.5 -7l-12.5 -7.5t-9.5 -5.5q-8 -3 -16 -4t-12 -1l-5 1q-63 -3 -188 363q-32 -12 -53 -19q-84 8 -306 -22l-51 -133l-8 -11l-16 -16l-47 -59l36 198l-82 -239q-41 -1 -53 -9q-2 -1 -12 -25.5
t-12 -25.5q-6 -4 -25 -10q-10 -3 -20 0q0 26 61 305h-16q-30 3 -42 67.5t9 132.5t72 77q15 3 43 6q163 734 149 846q80 9 154 -11q16 13 54.5 28t87.5 23t94.5 4.5t77 -33.5t32.5 -85q0 -2 1 -95t3.5 -139t13 -161.5t27.5 -210t49.5 -233t77.5 -279.5zM369 555
q106 -3 196 -12q-50 178 -88 358q-48 -176 -108 -346z" />
    <glyph glyph-name="Acircumflex" unicode="&#xc2;" horiz-adv-x="972" 
d="M346 1800q18 5 40 6t46.5 -5t45.5 -18.5t35 -37.5t15 -59q-26 -32 -47 -61t-33 -48.5t-19 -33.5t-11 -22.5t-4 -9.5q-20 -26 -40 -32t-36.5 7t-29 31t-23.5 42q-18 90 8 161.5t53 79.5zM543 1686q14 50 63.5 84t112.5 -1q35 -109 78 -174q14 -37 -0.5 -57t-42.5 -20
t-58 4q-77 29 -119 84t-34 80zM950 197q1 -10 -5 -4l-13 14q-3 2 -4 -4q0 -6 10.5 -55t9.5 -56q-2 -37 -18 -72q-3 -4 -15 -12.5t-14 -11.5q-3 -4 -3 -9t-3 -7q-5 -3 -13 -7.5t-10 -5.5q-8 -3 -16 -4t-12 -1l-4 1q-64 -3 -189 363q-32 -12 -53 -19q-84 8 -305 -22l-51 -133
l-9 -11l-16 -16l-47 -59l37 198l-82 -239q-41 -1 -53 -9q-2 -1 -12.5 -25.5t-12.5 -25.5q-7 -4 -24 -10q-11 -3 -21 0q0 26 61 305h-16q-30 3 -42 67.5t9 132.5t72 77q15 3 43 6q163 737 150 846q79 9 153 -11q16 13 54.5 28t87.5 23t94.5 4.5t77 -33.5t32.5 -85q0 -2 1 -95
t3.5 -139t13 -161.5t27.5 -210t49.5 -233t77.5 -279.5zM389 555q107 -3 197 -12q-50 178 -88 358q-45 -163 -109 -346z" />
    <glyph glyph-name="Atilde" unicode="&#xc3;" horiz-adv-x="937" 
d="M733 1747q17 -21 28 -52t13 -66t-19 -69t-65 -53q-45 14 -105 20t-115 4.5t-103 -4.5t-79 -6t-32 -3q-36 10 -51 28.5t-9.5 41t19.5 44t35 41.5q46 31 127.5 52t156.5 28t133 5.5t66 -11.5zM928 197q1 -11 -6 -3q-12 13 -13 13q-2 1 -2 -4q-1 -8 10 -57t11 -54
q-4 -35 -21 -72q-3 -5 -14.5 -13.5t-13.5 -10.5q-3 -4 -3.5 -9t-3.5 -7q-8 -6 -22 -13q-8 -3 -16 -4t-12 -1l-5 1q-22 -1 -52.5 46.5t-64 127.5t-69.5 189q-21 -7 -53 -19q-87 8 -308 -22l-51 -133l-8 -11l-14 -16l-50 -59l39 198l-84 -239q-41 -1 -53 -9q-2 -1 -12 -25.5
t-12 -25.5q-6 -4 -25 -10q-10 -3 -20 0q0 33 63 305h-18q-30 3 -42.5 67.5t8.5 132.5t72 77q7 1 21.5 3t21.5 3q163 737 150 846q80 9 154 -11q16 13 54.5 28t87.5 23t94.5 4.5t77 -33.5t32.5 -85q0 -2 1 -95t3.5 -139t13 -161.5t27.5 -210t49.5 -233t77.5 -279.5zM367 555
q106 -3 196 -12q-50 178 -88 358q-48 -176 -108 -346z" />
    <glyph glyph-name="Adieresis" unicode="&#xc4;" horiz-adv-x="948" 
d="M240 1784q27 22 66.5 30.5t89 -9.5t83.5 -70q4 -21 2.5 -42.5t-8 -47.5t-13 -44.5t-12.5 -34t-6 -16.5q-3 -22 -46.5 -30.5t-84.5 8.5q-48 72 -69 156t-2 100zM541 1784q27 22 66.5 30.5t89 -9.5t83.5 -70q4 -21 2.5 -42.5t-8 -47.5t-13 -44.5t-12.5 -34t-6 -16.5
q-3 -22 -45.5 -30.5t-85.5 8.5q-48 72 -69 156t-2 100zM928 197q1 -11 -6 -3q-12 13 -13 13q-2 1 -2 -4q-1 -8 10 -57t11 -54q-4 -35 -21 -72q-3 -5 -14.5 -13.5t-13.5 -10.5q-3 -4 -3.5 -9t-3.5 -7q-8 -6 -22 -13q-8 -3 -16 -4t-12 -1l-5 1q-22 -1 -52.5 46.5t-64 127.5
t-69.5 189q-21 -7 -53 -19q-87 8 -308 -22l-51 -133l-8 -11l-14 -16l-50 -59l39 198l-84 -239q-41 -1 -53 -9q-2 -1 -12 -25.5t-12 -25.5q-6 -4 -25 -10q-10 -3 -20 0q0 33 63 305h-18q-30 3 -42.5 67.5t8.5 132.5t72 77q7 1 21.5 3t21.5 3q163 737 150 846q80 9 154 -11
q16 13 54.5 28t87.5 23t94.5 4.5t77 -33.5t32.5 -85q0 -2 1 -95t3.5 -139t13 -161.5t27.5 -210t49.5 -233t77.5 -279.5zM367 555q106 -3 196 -12q-50 178 -88 358q-48 -176 -108 -346z" />
    <glyph glyph-name="Aring" unicode="&#xc5;" horiz-adv-x="950" 
d="M928 197q1 -11 -6 -3q-12 13 -13 13q-2 1 -2 -4q-1 -8 10 -57t11 -54q-4 -35 -21 -72q-3 -5 -14.5 -13.5t-13.5 -10.5q-3 -4 -3.5 -9t-3.5 -7q-8 -6 -22 -13q-8 -3 -16 -4t-12 -1l-5 1q-22 -1 -52.5 46.5t-64 127.5t-69.5 189q-21 -7 -53 -19q-87 8 -308 -22l-51 -133
l-8 -11l-14 -16l-50 -59l39 198l-84 -239q-41 -1 -53 -9q-2 -1 -12 -25.5t-12 -25.5q-6 -4 -25 -10q-10 -3 -20 0q0 33 63 305h-18q-30 3 -42.5 67.5t8.5 132.5t72 77q7 1 21.5 3t21.5 3q163 737 150 846q80 9 154 -11q16 13 54.5 28t87.5 23t94.5 4.5t77 -33.5t32.5 -85
q0 -2 1 -95t3.5 -139t13 -161.5t27.5 -210t49.5 -233t77.5 -279.5zM367 555q106 -3 196 -12q-50 178 -88 358q-48 -176 -108 -346zM432 1839q41 14 83 19t73.5 3t57 -7.5t39.5 -11t17 -9.5q23 -29 12.5 -72.5t-30.5 -48.5q-6 -3 -28.5 2.5t-61.5 5.5t-84 -14
q-34 -11 -60 -27t-40 -30.5t-22.5 -29.5t-11 -24t-1.5 -14q4 -12 28 -23t68 -14.5t104 17.5q41 14 68.5 32.5t37 35.5t13.5 32t2 24l-2 9v4l11 -6q0 8 4 8q9 5 20 -6q16 -19 20 -54.5t-7.5 -76t-52 -80t-105.5 -60.5q-82 -23 -153.5 -21.5t-127 35.5t-74.5 95
q-15 48 1 100.5t51 93t75.5 71t75.5 42.5z" />
    <glyph glyph-name="AE" unicode="&#xc6;" horiz-adv-x="1656" 
d="M864 305q138 28 293 42t338 1t301 -65q-4 -51 -79.5 -109t-145.5 -72q-15 3 -106.5 -2.5t-265.5 -31.5t-339 -70q-4 -8 -6 -10q-2 -6 -14.5 -15t-14.5 -12q-4 -3 -4.5 -8.5t-3.5 -7.5q-3 -1 -7.5 -4t-8 -4.5t-6.5 -2.5q-5 -2 -10.5 -3.5t-9 -2t-7 -0.5h-4.5h-2
q-33 0 -72.5 101.5t-77.5 271.5q-2 -1 -53 -20q-61 8 -303 -21l-61 -135l-9 -10l-18 -19l-51 -59l55 201l-104 -242q-42 -2 -54 -8q-2 -2 -14 -27.5t-14 -26.5q-6 -4 -25 -10q-10 -3 -20 0q2 30 90 312h-17q-29 3 -35 69t21 135t78 78q6 1 41 6q232 747 227 862
q80 11 150 -12q16 13 54.5 28t86.5 23t92 4.5t73 -31.5t27 -81q82 2 151.5 1.5t178.5 -6.5t180 -11t157 -11.5t108 -7.5q-11 -60 -78.5 -131t-143.5 -98q-6 1 -113 -11t-248.5 -27t-211.5 -20q-3 -85 0 -190q145 11 375.5 6.5t341.5 -18.5q-1 -40 -23 -76t-54 -61.5
t-76 -48.5t-80 -36t-74 -24q-7 2 -75 -7.5t-163 -22.5t-145 -17q8 -82 28 -195zM377 535q102 -3 190 -15q-35 212 -53 367q-33 -99 -137 -352z" />
    <glyph glyph-name="Ccedilla" unicode="&#xc7;" horiz-adv-x="1019" 
d="M1006 512q-1 -85 -41.5 -175t-106 -162.5t-156 -121.5t-184.5 -53q40 -86 33 -133q-21 -41 -54 -60.5t-67 -17t-62 12t-51 24.5q-19 8 -10 70.5t43 134.5q-51 19 -96.5 48t-93.5 80t-82.5 116t-56.5 161.5t-21 210.5t18.5 233.5t42 209t49 163t41.5 111.5l17 39
q21 16 87.5 21t131.5 -11q68 21 126 6.5t105 -53t80.5 -89t51.5 -102t18 -92.5q-1 -30 -23 -70t-56 -72t-76 -47.5t-83 3.5q0 168 -69 326q-103 -255 -139 -421q-94 -428 106 -636q59 28 109.5 68t87.5 84.5t66.5 94t48.5 98.5t31.5 96.5t17.5 90.5t4.5 77t-5.5 59
q10 0 21 -10t17 -20l5 -9q5 1 11.5 2t23 3t17.5 -3q6 -4 13 -17t11 -24l4 -11q25 -6 33 -16q62 -99 62 -217z" />
    <glyph glyph-name="Egrave" unicode="&#xc8;" horiz-adv-x="1019" 
d="M287 362q241 79 483 120t404 10q0 -6 -10 -19t-20 -23l-9 -10l-11 -24l-77 -37l57 -6q-57 -22 -90 -49q-15 -12 -36 -36.5t-36 -29.5q-19 0 -137 -30t-331 -103.5t-398 -163.5q-31 -15 -71 50t-46 135t39 106q14 8 43 18q0 51 1 228.5t0.5 279t-3 241t-8.5 226t-17 123.5
q9 4 24.5 9t58.5 12.5t79 3.5q190 25 819 16q-2 -6 -2.5 -19.5t-0.5 -23.5l1 -10q-36 -16 -63 -45l-47 -35l41 -2l-68 -35l-2 -25q-82 -34 -94 -38q-3 0 -400 -64q0 -8 -1 -24.5t-1 -24.5q-2 -55 -10 -152q290 37 514 33q0 -5 -4 -16t-8 -19l-4 -8l-8 -49l-64 -35l27 -2
l-68 -43l2 -20l-73 -19l-15 -24q-73 -35 -102 -45q-5 0 -38.5 -8.5t-91 -24t-98.5 -25.5q-12 -127 -30 -244zM252 1731q9 33 32.5 66.5t61 62t84 31t102.5 -26.5q29 -91 59.5 -157t47 -92.5t16.5 -27.5q17 -45 8.5 -74.5t-35 -38.5t-60.5 -12t-68 6q-122 48 -190 135.5
t-58 127.5z" />
    <glyph glyph-name="Eacute" unicode="&#xc9;" horiz-adv-x="1019" 
d="M287 362q241 79 483 120t404 10q0 -6 -10 -19t-20 -23l-9 -10l-11 -24l-77 -37l57 -6q-57 -22 -90 -49q-15 -12 -36 -36.5t-36 -29.5q-19 0 -137 -30t-331 -103.5t-398 -163.5q-31 -15 -71 50t-46 135t39 106q14 8 43 18q0 51 1 228.5t0.5 279t-3 241t-8.5 226t-17 123.5
q9 4 24.5 9t58.5 12.5t79 3.5q190 25 819 16q-2 -6 -2.5 -19.5t-0.5 -23.5l1 -10q-36 -16 -63 -45l-47 -35l41 -2l-68 -35l-2 -25q-82 -34 -94 -38q-3 0 -400 -64q0 -8 -1 -24.5t-1 -24.5q-2 -55 -10 -152q290 37 514 33q0 -5 -4 -16t-8 -19l-4 -8l-8 -49l-64 -35l27 -2
l-68 -43l2 -20l-73 -19l-15 -24q-73 -35 -102 -45q-5 0 -38.5 -8.5t-91 -24t-98.5 -25.5q-12 -127 -30 -244zM592 1878q33 -9 66.5 -32.5t62 -60.5t30.5 -84t-28 -104q-57 -18 -105 -37t-78 -33.5t-50 -25.5t-31.5 -18t-12.5 -8q-44 -17 -73 -8.5t-38.5 35t-11.5 61t7 69.5
q25 64 64.5 116.5t78 80t71 41t48.5 8.5z" />
    <glyph glyph-name="Ecircumflex" unicode="&#xca;" horiz-adv-x="1019" 
d="M287 362q241 79 483 120t404 10q0 -6 -10 -19t-20 -23l-9 -10l-11 -24l-77 -37l57 -6q-57 -22 -90 -49q-15 -12 -36 -36.5t-36 -29.5q-19 0 -137 -30t-331 -103.5t-398 -163.5q-31 -15 -71 50t-46 135t39 106q14 8 43 18q0 51 1 228.5t0.5 279t-3 241t-8.5 226t-17 123.5
q9 4 24.5 9t58.5 12.5t79 3.5q190 25 819 16q-2 -6 -2.5 -19.5t-0.5 -23.5l1 -10q-36 -16 -63 -45l-47 -35l41 -2l-68 -35l-2 -25q-82 -34 -94 -38q-3 0 -400 -64q0 -8 -1 -24.5t-1 -24.5q-2 -55 -10 -152q290 37 514 33q0 -5 -4 -16t-8 -19l-4 -8l-8 -49l-64 -35l27 -2
l-68 -43l2 -20l-73 -19l-15 -24q-73 -35 -102 -45q-5 0 -38.5 -8.5t-91 -24t-98.5 -25.5q-12 -127 -30 -244zM346 1800q18 5 40 6t46.5 -5t45.5 -18.5t35 -37.5t15 -59q-26 -32 -47 -61t-33 -48.5t-19 -33.5t-11 -22.5t-4 -9.5q-20 -26 -40 -32t-36.5 7t-29 31t-23.5 42
q-18 90 8 161.5t53 79.5zM543 1686q14 50 63.5 84t112.5 -1q35 -109 78 -174q14 -37 -0.5 -57t-42.5 -20t-58 4q-77 29 -119 84t-34 80z" />
    <glyph glyph-name="Edieresis" unicode="&#xcb;" horiz-adv-x="1019" 
d="M287 362q241 79 483 120t404 10q0 -6 -10 -19t-20 -23l-9 -10l-11 -24l-77 -37l57 -6q-57 -22 -90 -49q-15 -12 -36 -36.5t-36 -29.5q-19 0 -137 -30t-331 -103.5t-398 -163.5q-31 -15 -71 50t-46 135t39 106q14 8 43 18q0 51 1 228.5t0.5 279t-3 241t-8.5 226t-17 123.5
q9 4 24.5 9t58.5 12.5t79 3.5q190 25 819 16q-2 -6 -2.5 -19.5t-0.5 -23.5l1 -10q-36 -16 -63 -45l-47 -35l41 -2l-68 -35l-2 -25q-82 -34 -94 -38q-3 0 -400 -64q0 -8 -1 -24.5t-1 -24.5q-2 -55 -10 -152q290 37 514 33q0 -5 -4 -16t-8 -19l-4 -8l-8 -49l-64 -35l27 -2
l-68 -43l2 -20l-73 -19l-15 -24q-73 -35 -102 -45q-5 0 -38.5 -8.5t-91 -24t-98.5 -25.5q-12 -127 -30 -244zM158 1784q27 22 66.5 30.5t89 -9.5t83.5 -70q4 -21 2.5 -42.5t-8 -47.5t-13 -44.5t-12.5 -34t-6 -16.5q-3 -22 -46.5 -30.5t-84.5 8.5q-48 72 -69 156t-2 100z
M561 1784q27 22 67 30.5t89.5 -10t83.5 -69.5q4 -21 2.5 -42.5t-8 -47.5t-13 -44.5t-12.5 -34t-6 -16.5q-3 -22 -45.5 -30.5t-85.5 8.5q-48 72 -69.5 156t-2.5 100z" />
    <glyph glyph-name="Igrave" unicode="&#xcc;" horiz-adv-x="442" 
d="M72 1440q23 6 46.5 9t57 1t62.5 -11.5t58.5 -33.5t49.5 -61t31.5 -97.5t9.5 -138.5q-7 -188 -22 -418.5t-26 -367.5l-11 -136l-15 19l-10 -51l-24 -7l-27 -75l-59 -35l-35 -47l-17 14l-16 -55q-19 -23 -27 -23q-5 30 -9 352t-14.5 673.5t-31.5 457.5q-2 7 6.5 17.5
t22.5 13.5zM-76 1731q9 33 32.5 66.5t61.5 62t84.5 31t102.5 -26.5q29 -91 59.5 -157t47 -92.5t16.5 -27.5q16 -38 11 -62.5t-19.5 -39t-40.5 -19.5t-52 -4t-55 6q-122 48 -190 135.5t-58 127.5z" />
    <glyph glyph-name="Iacute" unicode="&#xcd;" horiz-adv-x="442" 
d="M72 1440q23 6 46.5 9t57 1t62.5 -11.5t58.5 -33.5t49.5 -61t31.5 -97.5t9.5 -138.5q-7 -188 -22 -418.5t-26 -367.5l-11 -136l-15 19l-10 -51l-24 -7l-27 -75l-59 -35l-35 -47l-17 14l-16 -55q-19 -23 -27 -23q-5 30 -9 352t-14.5 673.5t-31.5 457.5q-2 7 6.5 17.5
t22.5 13.5zM285 1878q33 -9 66.5 -32.5t62 -60.5t30.5 -84t-28 -104q-57 -18 -105 -37t-78 -33.5t-50 -25.5t-31.5 -18t-12.5 -8q-44 -17 -73 -8.5t-38.5 35t-11.5 61t7 69.5q25 64 64.5 116.5t78 80t71 41t48.5 8.5z" />
    <glyph glyph-name="Icircumflex" unicode="&#xce;" horiz-adv-x="442" 
d="M72 1440q23 6 46.5 9t57 1t62.5 -11.5t58.5 -33.5t49.5 -61t31.5 -97.5t9.5 -138.5q-7 -188 -22 -418.5t-26 -367.5l-11 -136l-15 19l-10 -51l-24 -7l-27 -75l-59 -35l-35 -47l-17 14l-16 -55q-19 -23 -27 -23q-5 30 -9 352t-14.5 673.5t-31.5 457.5q-2 7 6.5 17.5
t22.5 13.5zM-2 1800q18 5 40 6t46.5 -5t45.5 -18.5t35 -37.5t15 -59q-26 -32 -47 -61t-33 -48.5t-19 -33.5t-11 -22.5t-4 -9.5q-20 -26 -40 -32t-36.5 7t-29 31t-23.5 42q-18 90 8 161.5t53 79.5zM195 1686q14 50 63.5 84t112.5 -1q35 -109 78 -174q14 -37 -0.5 -57
t-42.5 -20t-58 4q-77 29 -119 84t-34 80z" />
    <glyph glyph-name="Idieresis" unicode="&#xcf;" horiz-adv-x="442" 
d="M72 1440q23 6 46.5 9t57 1t62.5 -11.5t58.5 -33.5t49.5 -61t31.5 -97.5t9.5 -138.5q-7 -188 -22 -418.5t-26 -367.5l-11 -136l-15 19l-10 -51l-24 -7l-27 -75l-59 -35l-35 -47l-17 14l-16 -55q-19 -23 -27 -23q-5 30 -9 352t-14.5 673.5t-31.5 457.5q-2 7 6.5 17.5
t22.5 13.5zM-47 1784q27 22 67 30.5t89.5 -10t83.5 -69.5q4 -21 2.5 -42.5t-8 -47.5t-13 -44.5t-12.5 -34t-6 -16.5q-3 -22 -46.5 -30.5t-84.5 8.5q-48 72 -69.5 156t-2.5 100zM274 1784q27 22 67 30.5t89.5 -10t83.5 -69.5q4 -21 2.5 -42.5t-8 -47.5t-13 -44.5t-12.5 -34
t-6 -16.5q-3 -22 -45.5 -30.5t-85.5 8.5q-48 72 -69.5 156t-2.5 100z" />
    <glyph glyph-name="Eth" unicode="&#xd0;" horiz-adv-x="1202" 
d="M-12 1360q12 13 52.5 24t102.5 18.5t139.5 6t162.5 -11.5t173.5 -37.5t171 -67.5t155 -106t126.5 -149t85 -200.5t30 -256.5q-1 -107 -35 -197t-88 -150t-127 -107t-145 -73.5t-149.5 -43t-133 -22t-102.5 -5.5q-34 0 -54 2l-14 -27l-35 2l-20 -53l-25 8q-12 -27 -16 -27
q-6 23 -9 125q-43 17 -80.5 40t-75.5 62.5t-64.5 89.5t-43 123t-16.5 160q1 3 3.5 7.5t8 12.5t10 10.5t8 -5.5t3.5 -29q0 -41 68 -90.5t171 -77.5q-2 70 -6 265q-77 -9 -151 -35q-56 22 -84.5 63.5t-28 86.5t12.5 85t32 68q9 11 68 17t139 3q-6 167 -10 207q-57 -7 -148 -33
q-26 10 -49.5 50t-35.5 89t-7 100t31 79zM403 293h9v254l-19 -254h10zM1018 649q3 49 -39 115t-113 128.5t-176.5 113t-216.5 67.5q0 -25 -1 -114.5t-1 -120.5q85 -19 145 -54q28 -24 47 -50.5t28 -54.5t-9 -52.5t-64 -38.5l-20 1q-21 1 -58.5 2.5t-76.5 2.5
q-7 -208 -12 -301q125 11 255.5 66.5t218.5 135t93 154.5z" />
    <glyph glyph-name="Ntilde" unicode="&#xd1;" horiz-adv-x="976" 
d="M954 1286q-10 -218 -14 -401t-2 -294.5t6 -205.5t10 -134t10 -81t6 -46.5t-3 -29.5q-8 -25 -36 -49.5t-66.5 -36.5t-77.5 -8.5t-74.5 39.5t-53.5 102q-54 96 -121.5 239.5t-100 219t-113.5 264.5q-11 -146 -25.5 -301t-23.5 -237l-9 -82l-12 6l-53 -109l-29 -16l-27 -72
l-22 23l-31 -76q-25 0 -35 -4q-5 -3 -26 -27q-7 96 -3.5 388.5t-3.5 663t-28 449.5q37 15 86 21q60 27 122 29.5t116 -29t73 -96.5q101 -340 264 -762q19 302 52 603.5t59 397.5q3 -2 7 -26t7 -27q2 -2 5 4l3 9q7 13 9 12q3 -3 13.5 -43t14.5 -45q4 -6 13 -7.5t16 0.5l6 2
q55 -104 86 -204q1 -4 3 -11.5t3 -11.5zM111 1597q-20 28 -32.5 68t-13 85t28 87t84.5 64q56 -21 132.5 -32.5t146.5 -13.5t131 -1t100 3t41 1q46 -14 64 -38.5t9 -53t-28 -55t-47 -50.5q-78 -47 -225 -68.5t-262.5 -17.5t-128.5 22z" />
    <glyph glyph-name="Ograve" unicode="&#xd2;" horiz-adv-x="997" 
d="M-41 680q0 137 21 255t49 188.5t61 124t52 73.5t28 25q54 22 112 4t103 -60.5t45 -79.5q0 -19 -15.5 -49.5t-37.5 -72t-44.5 -94.5t-38 -134.5t-15.5 -175.5q0 -111 20.5 -205t50 -151t64 -97.5t59.5 -57t39 -17.5q20 -2 50.5 18t65.5 67t65.5 112.5t50.5 166t20 215.5
q0 99 -15 179t-38.5 129t-52.5 85.5t-58 53t-52.5 26t-38.5 10.5l-15 1l-15 4l1 1q1 0 3 1l4 2l5 2.5t5 3l4 3t3 3.5t1.5 4t-1.5 4q-2 4 34.5 -1.5t82 -26t65.5 -54.5q-10 27 -34.5 47t-52.5 30t-54.5 16t-44 8.5t-17.5 3.5q0 34 41 51q38 17 84 21.5t96.5 -7t100 -38
t94 -75.5t78.5 -115t54 -162t20 -210q0 -148 -32 -277.5t-83 -217.5t-113.5 -151t-122.5 -92.5t-112 -29.5q-107 0 -200 31.5t-160 86t-120 125t-84.5 151t-48 161t-16.5 158.5zM190 1645q9 33 32.5 66.5t61.5 62t84.5 31t102.5 -26.5q29 -91 59.5 -157t47 -92.5t16.5 -27.5
q16 -38 11 -62.5t-19.5 -39t-40.5 -19.5t-52 -4t-55 6q-122 48 -190 135.5t-58 127.5z" />
    <glyph glyph-name="Oacute" unicode="&#xd3;" horiz-adv-x="1060" 
d="M-20 680q0 137 21 255t48.5 188.5t60.5 124t52.5 73.5t27.5 25q54 22 112 4t103.5 -60.5t45.5 -79.5q0 -19 -15.5 -49.5t-38 -72t-45 -94.5t-38 -134.5t-15.5 -175.5q0 -111 20.5 -205t50 -151t64 -97.5t59.5 -57t39 -17.5q20 -2 50.5 18t65.5 67t65.5 112.5t50.5 166
t20 215.5q0 99 -15 179t-38.5 129t-52.5 85.5t-58 53t-52.5 26t-38.5 10.5l-15 1l-14 4l1 1q1 0 3 1l4 2t4.5 2.5t4.5 3l4 3t3 3.5t1 4t-1 4q-2 4 34.5 -1.5t82.5 -26t66 -54.5q-10 27 -34.5 47t-52.5 30t-54.5 16t-44 8.5t-17.5 3.5q0 34 41 51q45 20 99.5 21.5t114 -15.5
t115 -63t100 -113.5t71 -175t26.5 -240.5q0 -148 -32 -277.5t-83 -217.5t-113.5 -151t-122.5 -92.5t-112 -29.5q-127 0 -234 45t-178.5 118.5t-121 168t-72 191t-22.5 190.5zM633 1776q33 -9 66.5 -32.5t62 -60.5t30.5 -84t-28 -104q-57 -18 -105 -37.5t-78 -33.5t-50 -25.5
t-31.5 -18.5t-12.5 -8q-44 -17 -73 -8.5t-38.5 35.5t-11.5 61.5t7 69.5q25 64 64.5 116.5t78 80t71 41t48.5 8.5z" />
    <glyph glyph-name="Ocircumflex" unicode="&#xd4;" horiz-adv-x="1060" 
d="M-20 680q0 137 21 255t48.5 188.5t60.5 124t52.5 73.5t27.5 25q54 22 112 4t103.5 -60.5t45.5 -79.5q0 -19 -15.5 -49.5t-38 -72t-45 -94.5t-38 -134.5t-15.5 -175.5q0 -111 20.5 -205t50 -151t64 -97.5t59.5 -57t39 -17.5q20 -2 50.5 18t65.5 67t65.5 112.5t50.5 166
t20 215.5q0 99 -15 179t-38.5 129t-52.5 85.5t-58 53t-52.5 26t-38.5 10.5l-15 1l-14 4l1 1q1 0 3 1l4 2t4.5 2.5t4.5 3l4 3t3 3.5t1 4t-1 4q-2 4 34.5 -1.5t82.5 -26t66 -54.5q-10 27 -34.5 47t-52.5 30t-54.5 16t-44 8.5t-17.5 3.5q0 34 41 51q45 20 99.5 21.5t114 -15.5
t115 -63t100 -113.5t71 -175t26.5 -240.5q0 -148 -32 -277.5t-83 -217.5t-113.5 -151t-122.5 -92.5t-112 -29.5q-127 0 -234 45t-178.5 118.5t-121 168t-72 191t-22.5 190.5zM305 1733q21 9 51.5 5.5t59 -12.5t49.5 -37.5t22 -70.5q-26 -32 -47 -60.5t-33 -48t-19 -33.5
t-11 -22.5t-4 -9.5q-20 -26 -40 -32t-36.5 6.5t-29 30.5t-23.5 42q-18 90 8 162t53 80zM502 1618q14 50 63.5 84.5t112.5 -0.5q35 -109 78 -174q14 -37 -0.5 -57.5t-42.5 -20.5t-58 4q-77 29 -119 84t-34 80z" />
    <glyph glyph-name="Otilde" unicode="&#xd5;" horiz-adv-x="1060" 
d="M-20 680q0 137 21 255t48.5 188.5t60.5 124t52.5 73.5t27.5 25q54 22 112 4t103.5 -60.5t45.5 -79.5q0 -19 -15.5 -49.5t-38 -72t-45 -94.5t-38 -134.5t-15.5 -175.5q0 -111 20.5 -205t50 -151t64 -97.5t59.5 -57t39 -17.5q20 -2 50.5 18t65.5 67t65.5 112.5t50.5 166
t20 215.5q0 99 -15 179t-38.5 129t-52.5 85.5t-58 53t-52.5 26t-38.5 10.5l-15 1l-14 4l1 1q1 0 3 1l4 2t4.5 2.5t4.5 3l4 3t3 3.5t1 4t-1 4q-2 4 34.5 -1.5t82.5 -26t66 -54.5q-10 27 -34.5 47t-52.5 30t-54.5 16t-44 8.5t-17.5 3.5q0 34 41 51q45 20 99.5 21.5t114 -15.5
t115 -63t100 -113.5t71 -175t26.5 -240.5q0 -148 -32 -277.5t-83 -217.5t-113.5 -151t-122.5 -92.5t-112 -29.5q-127 0 -234 45t-178.5 118.5t-121 168t-72 191t-22.5 190.5zM733 1665q17 -21 28 -52t13 -66t-19 -69t-65 -53q-45 14 -105 20t-115 4.5t-103 -4.5t-79 -6
t-32 -3q-36 10 -51 28.5t-9.5 41t19.5 44t35 41.5q46 31 127.5 52t156.5 28t133 5.5t66 -11.5z" />
    <glyph glyph-name="Odieresis" unicode="&#xd6;" horiz-adv-x="1060" 
d="M-20 680q0 137 21 255t48.5 188.5t60.5 124t52.5 73.5t27.5 25q54 22 112 4t103.5 -60.5t45.5 -79.5q0 -19 -15.5 -49.5t-38 -72t-45 -94.5t-38 -134.5t-15.5 -175.5q0 -111 20.5 -205t50 -151t64 -97.5t59.5 -57t39 -17.5q20 -2 50.5 18t65.5 67t65.5 112.5t50.5 166
t20 215.5q0 99 -15 179t-38.5 129t-52.5 85.5t-58 53t-52.5 26t-38.5 10.5l-15 1l-14 4l1 1q1 0 3 1l4 2t4.5 2.5t4.5 3l4 3t3 3.5t1 4t-1 4q-2 4 34.5 -1.5t82.5 -26t66 -54.5q-10 27 -34.5 47t-52.5 30t-54.5 16t-44 8.5t-17.5 3.5q0 34 41 51q45 20 99.5 21.5t114 -15.5
t115 -63t100 -113.5t71 -175t26.5 -240.5q0 -148 -32 -277.5t-83 -217.5t-113.5 -151t-122.5 -92.5t-112 -29.5q-127 0 -234 45t-178.5 118.5t-121 168t-72 191t-22.5 190.5zM158 1702q27 22 66.5 30.5t89 -9.5t83.5 -70q4 -21 2.5 -42.5t-8 -47.5t-13 -44.5t-12.5 -34
t-6 -16.5q-3 -22 -46.5 -30.5t-84.5 8.5q-48 72 -69 156t-2 100zM561 1702q27 22 67 30.5t89.5 -10t83.5 -69.5q4 -21 2.5 -42.5t-8 -47.5t-13 -44.5t-12.5 -34t-6 -16.5q-3 -22 -45.5 -30.5t-85.5 8.5q-48 72 -69.5 156t-2.5 100z" />
    <glyph glyph-name="multiply" unicode="&#xd7;" 
 />
    <glyph glyph-name="Oslash" unicode="&#xd8;" horiz-adv-x="1032" 
d="M895 1288q168 -161 168 -504q0 -148 -32 -277.5t-83 -217.5t-113.5 -151t-122.5 -92.5t-112 -29.5q-115 0 -227 41q-38 -103 -58 -168q-2 -4 -16.5 -9.5t-36.5 -6.5t-45 5.5t-42.5 33t-27.5 70.5q11 62 48 192q-110 103 -167 255t-57 300q0 137 21 255t49 188.5t61 124
t52 73.5t28 25q54 22 112 4.5t103 -60t45 -79.5q0 -19 -15.5 -50t-37.5 -72t-44.5 -94.5t-38 -135t-15.5 -175.5q0 -119 22 -215q41 110 90 230.5t115 277.5t88 209q-24 15 -49 23t-38 9l-13 1l-14 4h1q1 1 3 2l4 2t4.5 2.5t4.5 3l4 3t3 3.5t1 4t-1 4h2q3 1 9 0.5t13.5 -1
t17.5 -2.5t20.5 -4.5t22 -6t22.5 -8.5q0 6 4 10q-26 13 -59 20.5t-52.5 10.5t-19.5 4q0 34 41 51q60 26 133 23q56 145 73 213q2 -2 20.5 0t48.5 -5.5t59 -19.5t51.5 -42t25.5 -73q5 -39 -53 -178zM524 205q20 -2 50.5 18t65.5 67t65.5 112.5t50.5 166t20 215.5
q0 98 -18 197q-204 -445 -312 -725q46 -46 78 -51z" />
    <glyph glyph-name="Ugrave" unicode="&#xd9;" horiz-adv-x="1089" 
d="M428 1241q0 -7 -18.5 -99.5t-33.5 -213.5t-20.5 -261t25 -279t98.5 -230q105 36 174.5 135t96.5 225.5t28 270t-23 269t-65.5 221.5t-91.5 130l14 18q23 0 35 -2l5 -4q6 -4 14.5 -11t20.5 -16.5t25.5 -21.5t27.5 -25.5t28 -29.5t26 -32.5t22.5 -35t17.5 -35.5
q-6 21 -15.5 42t-20 38.5t-22.5 34.5t-23.5 30t-22.5 24.5t-20.5 20t-16.5 14.5l-10.5 9t-2.5 3q111 -25 198.5 -120t132.5 -228t64.5 -288t-4.5 -304t-74 -269.5t-145.5 -192t-218.5 -65.5q-96 5 -178 33t-141 70.5t-106.5 102t-78 120.5t-52.5 133t-33 131.5t-17 124.5
t-7 104.5t0 77.5q2 81 21 194.5t37 187.5l18 73q-2 6 -4 14t-4.5 28t4.5 21q22 19 77 24t113 -5.5t102.5 -51t43.5 -104.5zM252 1731q9 33 32.5 66.5t61 62t84 31t102.5 -26.5q29 -91 59.5 -157t47 -92.5t16.5 -27.5q17 -45 8.5 -74.5t-35 -38.5t-60.5 -12t-68 6
q-122 48 -190 135.5t-58 127.5z" />
    <glyph glyph-name="Uacute" unicode="&#xda;" horiz-adv-x="1089" 
d="M428 1241q0 -7 -18.5 -99.5t-33.5 -213.5t-20.5 -261t25 -279t98.5 -230q105 36 174.5 135t96.5 225.5t28 270t-23 269t-65.5 221.5t-91.5 130l14 18q23 0 35 -2l5 -4q6 -4 14.5 -11t20.5 -16.5t25.5 -21.5t27.5 -25.5t28 -29.5t26 -32.5t22.5 -35t17.5 -35.5
q-6 21 -15.5 42t-20 38.5t-22.5 34.5t-23.5 30t-22.5 24.5t-20.5 20t-16.5 14.5l-10.5 9t-2.5 3q111 -25 198.5 -120t132.5 -228t64.5 -288t-4.5 -304t-74 -269.5t-145.5 -192t-218.5 -65.5q-96 5 -178 33t-141 70.5t-106.5 102t-78 120.5t-52.5 133t-33 131.5t-17 124.5
t-7 104.5t0 77.5q2 81 21 194.5t37 187.5l18 73q-2 6 -4 14t-4.5 28t4.5 21q22 19 77 24t113 -5.5t102.5 -51t43.5 -104.5zM592 1878q33 -9 66.5 -32.5t62 -60.5t30.5 -84t-28 -104q-57 -18 -105 -37t-78 -33.5t-50 -25.5t-31.5 -18t-12.5 -8q-44 -17 -73 -8.5t-38.5 35
t-11.5 61t7 69.5q25 64 64.5 116.5t78 80t71 41t48.5 8.5z" />
    <glyph glyph-name="Ucircumflex" unicode="&#xdb;" horiz-adv-x="1089" 
d="M428 1241q0 -7 -18.5 -99.5t-33.5 -213.5t-20.5 -261t25 -279t98.5 -230q105 36 174.5 135t96.5 225.5t28 270t-23 269t-65.5 221.5t-91.5 130l14 18q23 0 35 -2l5 -4q6 -4 14.5 -11t20.5 -16.5t25.5 -21.5t27.5 -25.5t28 -29.5t26 -32.5t22.5 -35t17.5 -35.5
q-6 21 -15.5 42t-20 38.5t-22.5 34.5t-23.5 30t-22.5 24.5t-20.5 20t-16.5 14.5l-10.5 9t-2.5 3q111 -25 198.5 -120t132.5 -228t64.5 -288t-4.5 -304t-74 -269.5t-145.5 -192t-218.5 -65.5q-96 5 -178 33t-141 70.5t-106.5 102t-78 120.5t-52.5 133t-33 131.5t-17 124.5
t-7 104.5t0 77.5q2 81 21 194.5t37 187.5l18 73q-2 6 -4 14t-4.5 28t4.5 21q22 19 77 24t113 -5.5t102.5 -51t43.5 -104.5zM346 1800q18 5 40 6t46.5 -5t45.5 -18.5t35 -37.5t15 -59q-26 -32 -47 -61t-33 -48.5t-19 -33.5t-11 -22.5t-4 -9.5q-20 -26 -40 -32t-36.5 7t-29 31
t-23.5 42q-18 90 8 161.5t53 79.5zM543 1686q14 50 63.5 84t112.5 -1q35 -109 78 -174q14 -37 -0.5 -57t-42.5 -20t-58 4q-77 29 -119 84t-34 80z" />
    <glyph glyph-name="Udieresis" unicode="&#xdc;" horiz-adv-x="1089" 
d="M428 1241q0 -7 -18.5 -99.5t-33.5 -213.5t-20.5 -261t25 -279t98.5 -230q105 36 174.5 135t96.5 225.5t28 270t-23 269t-65.5 221.5t-91.5 130l14 18q23 0 35 -2l5 -4q6 -4 14.5 -11t20.5 -16.5t25.5 -21.5t27.5 -25.5t28 -29.5t26 -32.5t22.5 -35t17.5 -35.5
q-6 21 -15.5 42t-20 38.5t-22.5 34.5t-23.5 30t-22.5 24.5t-20.5 20t-16.5 14.5l-10.5 9t-2.5 3q111 -25 198.5 -120t132.5 -228t64.5 -288t-4.5 -304t-74 -269.5t-145.5 -192t-218.5 -65.5q-96 5 -178 33t-141 70.5t-106.5 102t-78 120.5t-52.5 133t-33 131.5t-17 124.5
t-7 104.5t0 77.5q2 81 21 194.5t37 187.5l18 73q-2 6 -4 14t-4.5 28t4.5 21q22 19 77 24t113 -5.5t102.5 -51t43.5 -104.5zM158 1784q27 22 66.5 30.5t89 -9.5t83.5 -70q4 -21 2.5 -42.5t-8 -47.5t-13 -44.5t-12.5 -34t-6 -16.5q-3 -22 -46.5 -30.5t-84.5 8.5
q-48 72 -69 156t-2 100zM561 1784q27 22 67 30.5t89.5 -10t83.5 -69.5q4 -21 2.5 -42.5t-8 -47.5t-13 -44.5t-12.5 -34t-6 -16.5q-3 -22 -45.5 -30.5t-85.5 8.5q-48 72 -69.5 156t-2.5 100z" />
    <glyph glyph-name="Yacute" unicode="&#xdd;" horiz-adv-x="1132" 
d="M971 1405q54 -7 90.5 -33t50 -59t18 -55.5t3.5 -36.5q0 -2 -13.5 -51t-32 -122t-41 -179.5t-41 -222.5t-32.5 -252t-15 -267t11 -268q-1 -8 -5.5 -37.5t-5.5 -44.5q0 -2 -8 52.5t-16 109.5l-8 55l24 -260q-2 -34 -6 -76l-3 16l-3 15q0 -2 2 -29t2 -29q-2 -44 -1.5 -63.5
t2 -34.5t1.5 -16q0 -2 -7 3q-1 2 -3 3q0 -6 -6 -19t-10 -16q-16 -10 -31 -15.5t-29 -4t-20 13.5q-212 417 -162 1065q-21 -56 -52 -141t-48 -131t-38 -98t-36.5 -79t-28.5 -37q-34 -27 -131 -16q-82 11 -136.5 71.5t-78.5 153t-34.5 203.5t-11 231.5t-1.5 227.5t-11.5 201
t-35.5 143q-5 11 -13.5 21t-13.5 14l-6 4q0 110 160 88q48 -6 82 -23.5t56 -42.5t34.5 -68.5t18 -88t7.5 -116.5t2 -138.5t2 -168.5t7 -194q14 -2 87 135t171.5 324t152.5 266q1 6 2 17.5t2 17.5q4 33 27.5 53.5t53 25t59.5 6.5t47 -3zM694 1878q33 -9 66.5 -32.5t62 -60.5
t30.5 -84t-28 -104q-57 -18 -105 -37t-77.5 -33.5t-50 -25.5t-31.5 -18t-12 -8q-38 -16 -62 -11t-38 19.5t-19.5 40.5t-4.5 52.5t7 55.5q25 64 64.5 116.5t78 80t71 41t48.5 8.5z" />
    <glyph glyph-name="Thorn" unicode="&#xde;" 
 />
    <glyph glyph-name="germandbls" unicode="&#xdf;" 
 />
    <glyph glyph-name="agrave" unicode="&#xe0;" horiz-adv-x="972" 
d="M334 1731q9 33 32.5 66.5t61 62t84 31t102.5 -26.5q29 -91 59.5 -157t47 -92.5t16.5 -27.5q17 -45 8.5 -74.5t-35 -38.5t-60.5 -12t-68 6q-122 48 -190 135.5t-58 127.5zM969 197q1 -11 -6 -3q-13 14 -15 13.5t-2 -4.5q0 -6 11 -55.5t10 -55.5q-2 -34 -19 -72
q-3 -4 -14.5 -12.5t-13.5 -11.5q-3 -4 -3.5 -9t-3.5 -7l-12.5 -7.5t-9.5 -5.5q-8 -3 -16.5 -4t-12.5 -1l-4 1q-63 -3 -188 363q-24 -9 -54 -19q-84 8 -305 -22l-51 -133l-8 -11l-16 -16l-48 -59l37 198l-82 -239q-41 -1 -53 -9q-2 -1 -12 -25.5t-12 -25.5q-6 -4 -25 -10
q-11 -3 -21 0q0 22 62 305h-16q-30 3 -42.5 67.5t8.5 132.5t72 77q15 3 43 6q163 737 150 846q80 9 154 -11q16 13 54.5 28t87.5 23t94.5 4.5t77 -33.5t32.5 -85q0 -2 1 -95t3.5 -139t13 -161.5t27.5 -210t49.5 -233t77.5 -279.5zM408 555q106 -3 196 -12q-50 178 -88 358
q-48 -176 -108 -346z" />
    <glyph glyph-name="aacute" unicode="&#xe1;" horiz-adv-x="927" 
d="M592 1878q33 -9 66.5 -32.5t62 -60.5t30.5 -84t-28 -104q-57 -18 -105 -37t-78 -33.5t-50 -25.5t-31.5 -18t-12.5 -8q-44 -17 -73 -8.5t-38.5 35t-11.5 61t7 69.5q25 64 64.5 116.5t78 80t71 41t48.5 8.5zM930 197q1 -11 -6 -3q-13 14 -15 13.5t-2 -4.5q0 -6 11 -55.5
t10 -55.5q-2 -34 -19 -72q-3 -4 -14.5 -12.5t-13.5 -11.5q-3 -4 -3.5 -9t-3.5 -7l-12.5 -7.5t-9.5 -5.5q-8 -3 -16 -4t-12 -1l-5 1q-63 -3 -188 363q-32 -12 -53 -19q-84 8 -306 -22l-51 -133l-8 -11l-16 -16l-47 -59l36 198l-82 -239q-41 -1 -53 -9q-2 -1 -12 -25.5
t-12 -25.5q-6 -4 -25 -10q-10 -3 -20 0q0 26 61 305h-16q-30 3 -42 67.5t9 132.5t72 77q15 3 43 6q163 734 149 846q80 9 154 -11q16 13 54.5 28t87.5 23t94.5 4.5t77 -33.5t32.5 -85q0 -2 1 -95t3.5 -139t13 -161.5t27.5 -210t49.5 -233t77.5 -279.5zM369 555
q106 -3 196 -12q-50 178 -88 358q-48 -176 -108 -346z" />
    <glyph glyph-name="acircumflex" unicode="&#xe2;" horiz-adv-x="950" 
d="M346 1800q18 5 40 6t46.5 -5t45.5 -18.5t35 -37.5t15 -59q-26 -32 -47 -61t-33 -48.5t-19 -33.5t-11 -22.5t-4 -9.5q-20 -26 -40 -32t-36.5 7t-29 31t-23.5 42q-18 90 8 161.5t53 79.5zM543 1686q14 50 63.5 84t112.5 -1q35 -109 78 -174q14 -37 -0.5 -57t-42.5 -20
t-58 4q-77 29 -119 84t-34 80zM950 197q1 -10 -5 -4l-13 14q-3 2 -4 -4q0 -6 10.5 -55t9.5 -56q-2 -37 -18 -72q-3 -4 -15 -12.5t-14 -11.5q-3 -4 -3 -9t-3 -7q-5 -3 -13 -7.5t-10 -5.5q-8 -3 -16 -4t-12 -1l-4 1q-64 -3 -189 363q-32 -12 -53 -19q-84 8 -305 -22l-51 -133
l-9 -11l-16 -16l-47 -59l37 198l-82 -239q-41 -1 -53 -9q-2 -1 -12.5 -25.5t-12.5 -25.5q-7 -4 -24 -10q-11 -3 -21 0q0 26 61 305h-16q-30 3 -42 67.5t9 132.5t72 77q15 3 43 6q163 737 150 846q79 9 153 -11q16 13 54.5 28t87.5 23t94.5 4.5t77 -33.5t32.5 -85q0 -2 1 -95
t3.5 -139t13 -161.5t27.5 -210t49.5 -233t77.5 -279.5zM389 555q107 -3 197 -12q-50 178 -88 358q-45 -163 -109 -346z" />
    <glyph glyph-name="atilde" unicode="&#xe3;" horiz-adv-x="923" 
d="M733 1747q17 -21 28 -52t13 -66t-19 -69t-65 -53q-45 14 -105 20t-115 4.5t-103 -4.5t-79 -6t-32 -3q-36 10 -51 28.5t-9.5 41t19.5 44t35 41.5q46 31 127.5 52t156.5 28t133 5.5t66 -11.5zM928 197q1 -11 -6 -3q-12 13 -13 13q-2 1 -2 -4q-1 -8 10 -57t11 -54
q-4 -35 -21 -72q-3 -5 -14.5 -13.5t-13.5 -10.5q-3 -4 -3.5 -9t-3.5 -7q-8 -6 -22 -13q-8 -3 -16 -4t-12 -1l-5 1q-22 -1 -52.5 46.5t-64 127.5t-69.5 189q-21 -7 -53 -19q-87 8 -308 -22l-51 -133l-8 -11l-14 -16l-50 -59l39 198l-84 -239q-41 -1 -53 -9q-2 -1 -12 -25.5
t-12 -25.5q-6 -4 -25 -10q-10 -3 -20 0q0 33 63 305h-18q-30 3 -42.5 67.5t8.5 132.5t72 77q7 1 21.5 3t21.5 3q163 737 150 846q80 9 154 -11q16 13 54.5 28t87.5 23t94.5 4.5t77 -33.5t32.5 -85q0 -2 1 -95t3.5 -139t13 -161.5t27.5 -210t49.5 -233t77.5 -279.5zM367 555
q106 -3 196 -12q-50 178 -88 358q-48 -176 -108 -346z" />
    <glyph glyph-name="adieresis" unicode="&#xe4;" horiz-adv-x="927" 
d="M240 1784q27 22 66.5 30.5t89 -9.5t83.5 -70q4 -21 2.5 -42.5t-8 -47.5t-13 -44.5t-12.5 -34t-6 -16.5q-3 -22 -46.5 -30.5t-84.5 8.5q-48 72 -69 156t-2 100zM541 1784q27 22 66.5 30.5t89 -9.5t83.5 -70q4 -21 2.5 -42.5t-8 -47.5t-13 -44.5t-12.5 -34t-6 -16.5
q-3 -22 -45.5 -30.5t-85.5 8.5q-48 72 -69 156t-2 100zM928 197q1 -11 -6 -3q-12 13 -13 13q-2 1 -2 -4q-1 -8 10 -57t11 -54q-4 -35 -21 -72q-3 -5 -14.5 -13.5t-13.5 -10.5q-3 -4 -3.5 -9t-3.5 -7q-8 -6 -22 -13q-8 -3 -16 -4t-12 -1l-5 1q-22 -1 -52.5 46.5t-64 127.5
t-69.5 189q-21 -7 -53 -19q-87 8 -308 -22l-51 -133l-8 -11l-14 -16l-50 -59l39 198l-84 -239q-41 -1 -53 -9q-2 -1 -12 -25.5t-12 -25.5q-6 -4 -25 -10q-10 -3 -20 0q0 33 63 305h-18q-30 3 -42.5 67.5t8.5 132.5t72 77q7 1 21.5 3t21.5 3q163 737 150 846q80 9 154 -11
q16 13 54.5 28t87.5 23t94.5 4.5t77 -33.5t32.5 -85q0 -2 1 -95t3.5 -139t13 -161.5t27.5 -210t49.5 -233t77.5 -279.5zM367 555q106 -3 196 -12q-50 178 -88 358q-48 -176 -108 -346z" />
    <glyph glyph-name="aring" unicode="&#xe5;" horiz-adv-x="927" 
d="M928 197q1 -11 -6 -3q-12 13 -13 13q-2 1 -2 -4q-1 -8 10 -57t11 -54q-4 -35 -21 -72q-3 -5 -14.5 -13.5t-13.5 -10.5q-3 -4 -3.5 -9t-3.5 -7q-8 -6 -22 -13q-8 -3 -16 -4t-12 -1l-5 1q-22 -1 -52.5 46.5t-64 127.5t-69.5 189q-21 -7 -53 -19q-87 8 -308 -22l-51 -133
l-8 -11l-14 -16l-50 -59l39 198l-84 -239q-41 -1 -53 -9q-2 -1 -12 -25.5t-12 -25.5q-6 -4 -25 -10q-10 -3 -20 0q0 33 63 305h-18q-30 3 -42.5 67.5t8.5 132.5t72 77q7 1 21.5 3t21.5 3q163 737 150 846q80 9 154 -11q16 13 54.5 28t87.5 23t94.5 4.5t77 -33.5t32.5 -85
q0 -2 1 -95t3.5 -139t13 -161.5t27.5 -210t49.5 -233t77.5 -279.5zM367 555q106 -3 196 -12q-50 178 -88 358q-48 -176 -108 -346zM432 1839q41 14 83 19t73.5 3t57 -7.5t39.5 -11t17 -9.5q23 -29 12.5 -72.5t-30.5 -48.5q-6 -3 -28.5 2.5t-61.5 5.5t-84 -14
q-34 -11 -60 -27t-40 -30.5t-22.5 -29.5t-11 -24t-1.5 -14q4 -12 28 -23t68 -14.5t104 17.5q41 14 68.5 32.5t37 35.5t13.5 32t2 24l-2 9v4l11 -6q0 8 4 8q9 5 20 -6q16 -19 20 -54.5t-7.5 -76t-52 -80t-105.5 -60.5q-82 -23 -153.5 -21.5t-127 35.5t-74.5 95
q-15 48 1 100.5t51 93t75.5 71t75.5 42.5z" />
    <glyph glyph-name="ae" unicode="&#xe6;" horiz-adv-x="2148" 
 />
    <glyph glyph-name="ccedilla" unicode="&#xe7;" horiz-adv-x="991" 
d="M1006 512q-1 -85 -41.5 -175t-106 -162.5t-156 -121.5t-184.5 -53q40 -86 33 -133q-21 -41 -54 -60.5t-67 -17t-62 12t-51 24.5q-19 8 -10 70.5t43 134.5q-51 19 -96.5 48t-93.5 80t-82.5 116t-56.5 161.5t-21 210.5t18.5 233.5t42 209t49 163t41.5 111.5l17 39
q21 16 87.5 21t131.5 -11q68 21 126 6.5t105 -53t80.5 -89t51.5 -102t18 -92.5q-1 -30 -23 -70t-56 -72t-76 -47.5t-83 3.5q0 168 -69 326q-103 -255 -139 -421q-94 -428 106 -636q59 28 109.5 68t87.5 84.5t66.5 94t48.5 98.5t31.5 96.5t17.5 90.5t4.5 77t-5.5 59
q10 0 21 -10t17 -20l5 -9q5 1 11.5 2t23 3t17.5 -3q6 -4 13 -17t11 -24l4 -11q25 -6 33 -16q62 -99 62 -217z" />
    <glyph glyph-name="egrave" unicode="&#xe8;" horiz-adv-x="1036" 
d="M287 362q241 79 483 120t404 10q0 -6 -10 -19t-20 -23l-9 -10l-11 -24l-77 -37l57 -6q-57 -22 -90 -49q-15 -12 -36 -36.5t-36 -29.5q-19 0 -137 -30t-331 -103.5t-398 -163.5q-31 -15 -71 50t-46 135t39 106q14 8 43 18q0 51 1 228.5t0.5 279t-3 241t-8.5 226t-17 123.5
q9 4 24.5 9t58.5 12.5t79 3.5q190 25 819 16q-2 -6 -2.5 -19.5t-0.5 -23.5l1 -10q-36 -16 -63 -45l-47 -35l41 -2l-68 -35l-2 -25q-82 -34 -94 -38q-3 0 -400 -64q0 -8 -1 -24.5t-1 -24.5q-2 -55 -10 -152q290 37 514 33q0 -5 -4 -16t-8 -19l-4 -8l-8 -49l-64 -35l27 -2
l-68 -43l2 -20l-73 -19l-15 -24q-73 -35 -102 -45q-5 0 -38.5 -8.5t-91 -24t-98.5 -25.5q-12 -127 -30 -244zM252 1731q9 33 32.5 66.5t61 62t84 31t102.5 -26.5q29 -91 59.5 -157t47 -92.5t16.5 -27.5q17 -45 8.5 -74.5t-35 -38.5t-60.5 -12t-68 6q-122 48 -190 135.5
t-58 127.5z" />
    <glyph glyph-name="eacute" unicode="&#xe9;" horiz-adv-x="1036" 
d="M287 362q241 79 483 120t404 10q0 -6 -10 -19t-20 -23l-9 -10l-11 -24l-77 -37l57 -6q-57 -22 -90 -49q-15 -12 -36 -36.5t-36 -29.5q-19 0 -137 -30t-331 -103.5t-398 -163.5q-31 -15 -71 50t-46 135t39 106q14 8 43 18q0 51 1 228.5t0.5 279t-3 241t-8.5 226t-17 123.5
q9 4 24.5 9t58.5 12.5t79 3.5q190 25 819 16q-2 -6 -2.5 -19.5t-0.5 -23.5l1 -10q-36 -16 -63 -45l-47 -35l41 -2l-68 -35l-2 -25q-82 -34 -94 -38q-3 0 -400 -64q0 -8 -1 -24.5t-1 -24.5q-2 -55 -10 -152q290 37 514 33q0 -5 -4 -16t-8 -19l-4 -8l-8 -49l-64 -35l27 -2
l-68 -43l2 -20l-73 -19l-15 -24q-73 -35 -102 -45q-5 0 -38.5 -8.5t-91 -24t-98.5 -25.5q-12 -127 -30 -244zM592 1878q33 -9 66.5 -32.5t62 -60.5t30.5 -84t-28 -104q-57 -18 -105 -37t-78 -33.5t-50 -25.5t-31.5 -18t-12.5 -8q-44 -17 -73 -8.5t-38.5 35t-11.5 61t7 69.5
q25 64 64.5 116.5t78 80t71 41t48.5 8.5z" />
    <glyph glyph-name="ecircumflex" unicode="&#xea;" horiz-adv-x="1036" 
d="M287 362q241 79 483 120t404 10q0 -6 -10 -19t-20 -23l-9 -10l-11 -24l-77 -37l57 -6q-57 -22 -90 -49q-15 -12 -36 -36.5t-36 -29.5q-19 0 -137 -30t-331 -103.5t-398 -163.5q-31 -15 -71 50t-46 135t39 106q14 8 43 18q0 51 1 228.5t0.5 279t-3 241t-8.5 226t-17 123.5
q9 4 24.5 9t58.5 12.5t79 3.5q190 25 819 16q-2 -6 -2.5 -19.5t-0.5 -23.5l1 -10q-36 -16 -63 -45l-47 -35l41 -2l-68 -35l-2 -25q-82 -34 -94 -38q-3 0 -400 -64q0 -8 -1 -24.5t-1 -24.5q-2 -55 -10 -152q290 37 514 33q0 -5 -4 -16t-8 -19l-4 -8l-8 -49l-64 -35l27 -2
l-68 -43l2 -20l-73 -19l-15 -24q-73 -35 -102 -45q-5 0 -38.5 -8.5t-91 -24t-98.5 -25.5q-12 -127 -30 -244zM346 1800q18 5 40 6t46.5 -5t45.5 -18.5t35 -37.5t15 -59q-26 -32 -47 -61t-33 -48.5t-19 -33.5t-11 -22.5t-4 -9.5q-20 -26 -40 -32t-36.5 7t-29 31t-23.5 42
q-18 90 8 161.5t53 79.5zM543 1686q14 50 63.5 84t112.5 -1q35 -109 78 -174q14 -37 -0.5 -57t-42.5 -20t-58 4q-77 29 -119 84t-34 80z" />
    <glyph glyph-name="edieresis" unicode="&#xeb;" horiz-adv-x="1036" 
d="M287 362q241 79 483 120t404 10q0 -6 -10 -19t-20 -23l-9 -10l-11 -24l-77 -37l57 -6q-57 -22 -90 -49q-15 -12 -36 -36.5t-36 -29.5q-19 0 -137 -30t-331 -103.5t-398 -163.5q-31 -15 -71 50t-46 135t39 106q14 8 43 18q0 51 1 228.5t0.5 279t-3 241t-8.5 226t-17 123.5
q9 4 24.5 9t58.5 12.5t79 3.5q190 25 819 16q-2 -6 -2.5 -19.5t-0.5 -23.5l1 -10q-36 -16 -63 -45l-47 -35l41 -2l-68 -35l-2 -25q-82 -34 -94 -38q-3 0 -400 -64q0 -8 -1 -24.5t-1 -24.5q-2 -55 -10 -152q290 37 514 33q0 -5 -4 -16t-8 -19l-4 -8l-8 -49l-64 -35l27 -2
l-68 -43l2 -20l-73 -19l-15 -24q-73 -35 -102 -45q-5 0 -38.5 -8.5t-91 -24t-98.5 -25.5q-12 -127 -30 -244zM158 1784q27 22 66.5 30.5t89 -9.5t83.5 -70q4 -21 2.5 -42.5t-8 -47.5t-13 -44.5t-12.5 -34t-6 -16.5q-3 -22 -46.5 -30.5t-84.5 8.5q-48 72 -69 156t-2 100z
M561 1784q27 22 67 30.5t89.5 -10t83.5 -69.5q4 -21 2.5 -42.5t-8 -47.5t-13 -44.5t-12.5 -34t-6 -16.5q-3 -22 -45.5 -30.5t-85.5 8.5q-48 72 -69.5 156t-2.5 100z" />
    <glyph glyph-name="igrave" unicode="&#xec;" horiz-adv-x="430" 
d="M72 1440q23 6 46.5 9t57 1t62.5 -11.5t58.5 -33.5t49.5 -61t31.5 -97.5t9.5 -138.5q-7 -188 -22 -418.5t-26 -367.5l-11 -136l-15 19l-10 -51l-24 -7l-27 -75l-59 -35l-35 -47l-17 14l-16 -55q-19 -23 -27 -23q-5 30 -9 352t-14.5 673.5t-31.5 457.5q-2 7 6.5 17.5
t22.5 13.5zM-76 1731q9 33 32.5 66.5t61.5 62t84.5 31t102.5 -26.5q29 -91 59.5 -157t47 -92.5t16.5 -27.5q16 -38 11 -62.5t-19.5 -39t-40.5 -19.5t-52 -4t-55 6q-122 48 -190 135.5t-58 127.5z" />
    <glyph glyph-name="iacute" unicode="&#xed;" horiz-adv-x="430" 
d="M72 1440q23 6 46.5 9t57 1t62.5 -11.5t58.5 -33.5t49.5 -61t31.5 -97.5t9.5 -138.5q-7 -188 -22 -418.5t-26 -367.5l-11 -136l-15 19l-10 -51l-24 -7l-27 -75l-59 -35l-35 -47l-17 14l-16 -55q-19 -23 -27 -23q-5 30 -9 352t-14.5 673.5t-31.5 457.5q-2 7 6.5 17.5
t22.5 13.5zM285 1878q33 -9 66.5 -32.5t62 -60.5t30.5 -84t-28 -104q-57 -18 -105 -37t-78 -33.5t-50 -25.5t-31.5 -18t-12.5 -8q-44 -17 -73 -8.5t-38.5 35t-11.5 61t7 69.5q25 64 64.5 116.5t78 80t71 41t48.5 8.5z" />
    <glyph glyph-name="icircumflex" unicode="&#xee;" horiz-adv-x="430" 
d="M72 1440q23 6 46.5 9t57 1t62.5 -11.5t58.5 -33.5t49.5 -61t31.5 -97.5t9.5 -138.5q-7 -188 -22 -418.5t-26 -367.5l-11 -136l-15 19l-10 -51l-24 -7l-27 -75l-59 -35l-35 -47l-17 14l-16 -55q-19 -23 -27 -23q-5 30 -9 352t-14.5 673.5t-31.5 457.5q-2 7 6.5 17.5
t22.5 13.5zM-2 1800q18 5 40 6t46.5 -5t45.5 -18.5t35 -37.5t15 -59q-26 -32 -47 -61t-33 -48.5t-19 -33.5t-11 -22.5t-4 -9.5q-20 -26 -40 -32t-36.5 7t-29 31t-23.5 42q-18 90 8 161.5t53 79.5zM195 1686q14 50 63.5 84t112.5 -1q35 -109 78 -174q14 -37 -0.5 -57
t-42.5 -20t-58 4q-77 29 -119 84t-34 80z" />
    <glyph glyph-name="idieresis" unicode="&#xef;" horiz-adv-x="430" 
d="M72 1440q23 6 46.5 9t57 1t62.5 -11.5t58.5 -33.5t49.5 -61t31.5 -97.5t9.5 -138.5q-7 -188 -22 -418.5t-26 -367.5l-11 -136l-15 19l-10 -51l-24 -7l-27 -75l-59 -35l-35 -47l-17 14l-16 -55q-19 -23 -27 -23q-5 30 -9 352t-14.5 673.5t-31.5 457.5q-2 7 6.5 17.5
t22.5 13.5zM-47 1784q27 22 67 30.5t89.5 -10t83.5 -69.5q4 -21 2.5 -42.5t-8 -47.5t-13 -44.5t-12.5 -34t-6 -16.5q-3 -22 -46.5 -30.5t-84.5 8.5q-48 72 -69.5 156t-2.5 100zM274 1784q27 22 67 30.5t89.5 -10t83.5 -69.5q4 -21 2.5 -42.5t-8 -47.5t-13 -44.5t-12.5 -34
t-6 -16.5q-3 -22 -45.5 -30.5t-85.5 8.5q-48 72 -69.5 156t-2.5 100z" />
    <glyph glyph-name="eth" unicode="&#xf0;" horiz-adv-x="1075" 
 />
    <glyph glyph-name="ntilde" unicode="&#xf1;" horiz-adv-x="966" 
 />
    <glyph glyph-name="ograve" unicode="&#xf2;" horiz-adv-x="833" 
d="M0 920q0 80 15 156t36.5 128.5t46 94.5t42.5 62.5t26 24.5q45 17 90 1t79 -47.5t34 -53.5q0 -13 -14.5 -39.5t-32 -56.5t-32 -87t-14.5 -124q0 -66 12.5 -121t30.5 -88.5t39 -57t36 -33t24 -11.5q13 -1 31 11t39 39.5t39 66t30 97t12 126.5q0 58 -9 105t-23 75.5
t-31.5 50t-34.5 30.5t-31 14.5t-23 6.5h-9l-11 4l17 13q-1 2 -7 7t-6 7q0 19 25 31q23 10 54.5 10.5t68.5 -10t74.5 -30.5t72 -55.5t61.5 -80.5t42.5 -108.5t15.5 -137.5q-2 -152 -49.5 -277.5t-138 -201.5t-205.5 -74q-76 1 -145.5 39t-118.5 98t-85.5 132t-54.5 140.5
t-18 123.5zM27 240q76 45 198.5 63.5t236.5 11t206.5 -35t115.5 -68.5q1 -3 -6 -1l-4 1l27 -33l-17 -4q4 -5 9 -13t13.5 -24t6.5 -22l-22 -84l-19 10q-249 35 -622 -84q-50 -16 -86.5 7t-50.5 68t-11 102t25 106zM145 1694q9 33 32.5 66.5t61.5 62t84.5 31t102.5 -26.5
q29 -91 59.5 -157t47 -92.5t16.5 -27.5q17 -45 8.5 -74t-35 -38.5t-61 -12t-68.5 6.5q-122 48 -190 135t-58 127z" />
    <glyph glyph-name="oacute" unicode="&#xf3;" horiz-adv-x="804" 
d="M0 920q0 80 15 156t36.5 128.5t46 94.5t42.5 62.5t26 24.5q45 17 90 1t79 -47.5t34 -53.5q0 -13 -14.5 -39.5t-32 -56.5t-32 -87t-14.5 -124q0 -66 12.5 -121t30.5 -88.5t39 -57t36 -33t24 -11.5q13 -1 31 11t39 39.5t39 66t30 97t12 126.5q0 58 -9 105t-23 75.5
t-31.5 50t-34.5 30.5t-31 14.5t-23 6.5h-9l-11 4l17 13q-1 2 -7 7t-6 7q0 19 25 31q23 10 54.5 10.5t68.5 -10t74.5 -30.5t72 -55.5t61.5 -80.5t42.5 -108.5t15.5 -137.5q-2 -152 -49.5 -277.5t-138 -201.5t-205.5 -74q-76 1 -145.5 39t-118.5 98t-85.5 132t-54.5 140.5
t-18 123.5zM27 240q76 45 198.5 63.5t236.5 11t206.5 -35t115.5 -68.5q1 -3 -6 -1l-4 1l27 -33l-17 -4q4 -5 9 -13t13.5 -24t6.5 -22l-22 -84l-19 10q-249 35 -622 -84q-50 -16 -86.5 7t-50.5 68t-11 102t25 106zM592 1841q33 -10 66.5 -32.5t62 -60t30.5 -84t-28 -103.5
q-57 -18 -105 -37.5t-78 -33.5t-50 -25.5t-31.5 -18.5t-12.5 -8q-44 -17 -73 -8.5t-38.5 35t-11.5 61t7 69.5q25 64 64.5 116.5t78 80t71 41t48.5 8.5z" />
    <glyph glyph-name="ocircumflex" unicode="&#xf4;" horiz-adv-x="827" 
d="M0 920q0 80 15 156t36.5 128.5t46 94.5t42.5 62.5t26 24.5q45 17 90 1t79 -47.5t34 -53.5q0 -13 -14.5 -39.5t-32 -56.5t-32 -87t-14.5 -124q0 -66 12.5 -121t30.5 -88.5t39 -57t36 -33t24 -11.5q13 -1 31 11t39 39.5t39 66t30 97t12 126.5q0 58 -9 105t-23 75.5
t-31.5 50t-34.5 30.5t-31 14.5t-23 6.5h-9l-11 4l17 13q-1 2 -7 7t-6 7q0 19 25 31q23 10 54.5 10.5t68.5 -10t74.5 -30.5t72 -55.5t61.5 -80.5t42.5 -108.5t15.5 -137.5q-2 -152 -49.5 -277.5t-138 -201.5t-205.5 -74q-76 1 -145.5 39t-118.5 98t-85.5 132t-54.5 140.5
t-18 123.5zM27 240q76 45 198.5 63.5t236.5 11t206.5 -35t115.5 -68.5q1 -3 -6 -1l-4 1l27 -33l-17 -4q4 -5 9 -13t13.5 -24t6.5 -22l-22 -84l-19 10q-249 35 -622 -84q-50 -16 -86.5 7t-50.5 68t-11 102t25 106zM188 1749q21 9 51.5 5.5t59 -12.5t50 -37.5t22.5 -70.5
q-26 -32 -47 -60.5t-33 -48t-19.5 -33.5t-11.5 -22.5t-4 -9.5q-20 -26 -40 -32t-36.5 6.5t-29 30.5t-23.5 42q-18 90 8 162t53 80zM385 1634q14 50 63.5 84.5t112.5 -0.5q35 -109 78 -174q10 -28 4.5 -47t-22 -24.5t-38.5 -7t-44 4.5q-77 29 -119.5 84t-34.5 80z" />
    <glyph glyph-name="otilde" unicode="&#xf5;" horiz-adv-x="821" 
d="M0 920q0 80 15 156t36.5 128.5t46 94.5t42.5 62.5t26 24.5q45 17 90 1t79 -47.5t34 -53.5q0 -13 -14.5 -39.5t-32 -56.5t-32 -87t-14.5 -124q0 -66 12.5 -121t30.5 -88.5t39 -57t36 -33t24 -11.5q13 -1 31 11t39 39.5t39 66t30 97t12 126.5q0 58 -9 105t-23 75.5
t-31.5 50t-34.5 30.5t-31 14.5t-23 6.5h-9l-11 4l17 13q-1 2 -7 7t-6 7q0 19 25 31q23 10 54.5 10.5t68.5 -10t74.5 -30.5t72 -55.5t61.5 -80.5t42.5 -108.5t15.5 -137.5q-2 -152 -49.5 -277.5t-138 -201.5t-205.5 -74q-76 1 -145.5 39t-118.5 98t-85.5 132t-54.5 140.5
t-18 123.5zM27 240q76 45 198.5 63.5t236.5 11t206.5 -35t115.5 -68.5q1 -3 -6 -1l-4 1l27 -33l-17 -4q4 -5 9 -13t13.5 -24t6.5 -22l-22 -84l-19 10q-249 35 -622 -84q-50 -16 -86.5 7t-50.5 68t-11 102t25 106zM639 1694q17 -21 28 -52t13 -66t-19 -69t-65 -53
q-45 14 -105 19.5t-115 4.5t-103 -4.5t-79 -6.5t-32 -3q-36 10 -51 28.5t-9.5 41.5t19.5 44.5t35 41.5q46 31 127.5 52t156.5 28t133 5.5t66 -11.5z" />
    <glyph glyph-name="odieresis" unicode="&#xf6;" horiz-adv-x="821" 
d="M0 920q0 80 15 156t36.5 128.5t46 94.5t42.5 62.5t26 24.5q45 17 90 1t79 -47.5t34 -53.5q0 -13 -14.5 -39.5t-32 -56.5t-32 -87t-14.5 -124q0 -66 12.5 -121t30.5 -88.5t39 -57t36 -33t24 -11.5q13 -1 31 11t39 39.5t39 66t30 97t12 126.5q0 58 -9 105t-23 75.5
t-31.5 50t-34.5 30.5t-31 14.5t-23 6.5h-9l-11 4l17 13q-1 2 -7 7t-6 7q0 19 25 31q23 10 54.5 10.5t68.5 -10t74.5 -30.5t72 -55.5t61.5 -80.5t42.5 -108.5t15.5 -137.5q-2 -152 -49.5 -277.5t-138 -201.5t-205.5 -74q-76 1 -145.5 39t-118.5 98t-85.5 132t-54.5 140.5
t-18 123.5zM27 240q76 45 198.5 63.5t236.5 11t206.5 -35t115.5 -68.5q1 -3 -6 -1l-4 1l27 -33l-17 -4q4 -5 9 -13t13.5 -24t6.5 -22l-22 -84l-19 10q-249 35 -622 -84q-50 -16 -86.5 7t-50.5 68t-11 102t25 106zM94 1743q27 22 67 30.5t89.5 -10t83.5 -69.5
q4 -21 2.5 -42.5t-8 -47.5t-13 -44.5t-12.5 -34t-6 -16.5q-3 -22 -46.5 -30.5t-84.5 8.5q-48 72 -69.5 156t-2.5 100zM436 1743q27 22 67 30.5t89.5 -10t83.5 -69.5q4 -21 2.5 -42.5t-8 -47.5t-13 -44.5t-12.5 -34t-6 -16.5q-3 -22 -45.5 -30.5t-85.5 8.5q-48 72 -69.5 156
t-2.5 100z" />
    <glyph glyph-name="divide" unicode="&#xf7;" horiz-adv-x="1171" 
d="M35 713q72 38 249.5 46.5t358 -8t329 -52.5t169.5 -78q1 -3 -6 0l-5 2l27 -37l-18 -2q4 -5 9 -13.5t13 -25.5t6 -23l-24 -82l-17 13q-169 33 -504 17.5t-472 -50.5q-48 -12 -82.5 14t-47.5 72.5t-9.5 103t24.5 103.5zM449 350q22 17 51 28.5t63 14.5t67 -19t54 -69
q24 -47 18.5 -98.5t-40.5 -89.5q-32 -33 -97 -39t-104 24q-46 39 -53 97t8.5 98t32.5 53zM449 1128q22 17 51 28.5t63 14.5t67 -19t54 -69q24 -47 18.5 -98.5t-40.5 -89.5q-31 -33 -96.5 -38.5t-104.5 24.5q-46 39 -53 96.5t8.5 97.5t32.5 53z" />
    <glyph glyph-name="oslash" unicode="&#xf8;" horiz-adv-x="817" 
d="M55 430q2 4 74 133q-60 83 -94.5 183t-34.5 176q0 80 15 156.5t36.5 129t46 94.5t42.5 62.5t26 24.5q45 17 90 1t79 -48t34 -54q0 -13 -14.5 -39.5t-32 -56.5t-32 -87t-14.5 -124q0 -45 11 -102q117 258 170 401q-13 6 -25 9.5t-18 4.5h-6l-11 2l17 13q-1 2 -7 7t-6 7
q0 21 25 31q27 10 59 10q27 79 37 123q7 2 19.5 5t45 4t58 -6t48 -32.5t26.5 -68.5q2 -31 -31 -113q127 -116 127 -332q-2 -153 -49.5 -279t-138 -202t-205.5 -74q-80 0 -158 45q-31 -69 -41 -96q-2 -4 -16.5 -10t-36.5 -7t-45 5.5t-42.5 33t-27.5 70.5zM569 1010v30
q-110 -197 -186 -350q20 -15 35 -20q13 -1 31 11t39 39.5t39 66t30 97t12 126.5zM805 188q4 -5 9 -13t13.5 -24t6.5 -22l-23 -84l-18 10q-251 36 -621 -84q-51 -16 -87.5 7t-51 68t-11.5 101.5t25 106.5q102 59 273.5 72.5t312.5 -16.5t174 -85q1 -3 -6 -1l-4 1l26 -32z" />
    <glyph glyph-name="ugrave" unicode="&#xf9;" horiz-adv-x="839" 
d="M0 946q-3 130 13.5 242.5t35.5 165.5t33 59q45 16 92 1t81.5 -47t29.5 -54q-28 -116 -38.5 -214.5t-5 -163.5t20 -116.5t33.5 -80t39.5 -47.5t34 -25t20.5 -7q13 -1 34.5 9t48.5 35t50.5 60.5t39.5 93t16 124.5q0 80 -6.5 146.5t-16 104.5t-19 65t-16.5 37l-6 9l-8 3
q1 0 2 0.5t4.5 2t5.5 3t3.5 4t0.5 4.5q-12 12 -12 14q0 19 25 29q20 8 42 8.5t46 -7t47.5 -25t45 -43t40 -62t32 -81t21 -102t6.5 -122.5q-2 -153 -49.5 -279t-138 -202t-205.5 -74q-77 1 -145.5 35.5t-117.5 90.5t-85 125.5t-54.5 141.5t-19.5 139zM45 279q74 43 193 61
t229.5 11t200.5 -34t112 -67l-10 2l27 -33l-17 -4q4 -5 9 -12.5t13.5 -23t6.5 -21.5l-23 -82l-18 10q-240 33 -604 -82q-49 -16 -84 6t-48.5 66t-10.5 99.5t24 103.5zM145 1694q9 33 32.5 66.5t61.5 62t84.5 31t102.5 -26.5q29 -91 59.5 -157t47 -92.5t16.5 -27.5
q17 -45 8.5 -74t-35 -38.5t-61 -12t-68.5 6.5q-122 48 -190 135t-58 127z" />
    <glyph glyph-name="uacute" unicode="&#xfa;" horiz-adv-x="839" 
d="M0 946q-3 130 13.5 242.5t35.5 165.5t33 59q45 16 92 1t81.5 -47t29.5 -54q-28 -116 -38.5 -214.5t-5 -163.5t20 -116.5t33.5 -80t39.5 -47.5t34 -25t20.5 -7q13 -1 34.5 9t48.5 35t50.5 60.5t39.5 93t16 124.5q0 80 -6.5 146.5t-16 104.5t-19 65t-16.5 37l-6 9l-8 3
q1 0 2 0.5t4.5 2t5.5 3t3.5 4t0.5 4.5q-12 12 -12 14q0 19 25 29q20 8 42 8.5t46 -7t47.5 -25t45 -43t40 -62t32 -81t21 -102t6.5 -122.5q-2 -153 -49.5 -279t-138 -202t-205.5 -74q-77 1 -145.5 35.5t-117.5 90.5t-85 125.5t-54.5 141.5t-19.5 139zM45 279q74 43 193 61
t229.5 11t200.5 -34t112 -67l-10 2l27 -33l-17 -4q4 -5 9 -12.5t13.5 -23t6.5 -21.5l-23 -82l-18 10q-240 33 -604 -82q-49 -16 -84 6t-48.5 66t-10.5 99.5t24 103.5zM592 1841q33 -10 66.5 -32.5t62 -60t30.5 -84t-28 -103.5q-57 -18 -105 -37.5t-78 -33.5t-50 -25.5
t-31.5 -18.5t-12.5 -8q-44 -17 -73 -8.5t-38.5 35t-11.5 61t7 69.5q25 64 64.5 116.5t78 80t71 41t48.5 8.5z" />
    <glyph glyph-name="ucircumflex" unicode="&#xfb;" horiz-adv-x="839" 
d="M0 946q-3 130 13.5 242.5t35.5 165.5t33 59q45 16 92 1t81.5 -47t29.5 -54q-28 -116 -38.5 -214.5t-5 -163.5t20 -116.5t33.5 -80t39.5 -47.5t34 -25t20.5 -7q13 -1 34.5 9t48.5 35t50.5 60.5t39.5 93t16 124.5q0 80 -6.5 146.5t-16 104.5t-19 65t-16.5 37l-6 9l-8 3
q1 0 2 0.5t4.5 2t5.5 3t3.5 4t0.5 4.5q-12 12 -12 14q0 19 25 29q20 8 42 8.5t46 -7t47.5 -25t45 -43t40 -62t32 -81t21 -102t6.5 -122.5q-2 -153 -49.5 -279t-138 -202t-205.5 -74q-77 1 -145.5 35.5t-117.5 90.5t-85 125.5t-54.5 141.5t-19.5 139zM45 279q74 43 193 61
t229.5 11t200.5 -34t112 -67l-10 2l27 -33l-17 -4q4 -5 9 -12.5t13.5 -23t6.5 -21.5l-23 -82l-18 10q-240 33 -604 -82q-49 -16 -84 6t-48.5 66t-10.5 99.5t24 103.5zM188 1749q21 9 51.5 5.5t59 -12.5t50 -37.5t22.5 -70.5q-26 -32 -47 -60.5t-33 -48t-19.5 -33.5
t-11.5 -22.5t-4 -9.5q-20 -26 -40 -32t-36.5 6.5t-29 30.5t-23.5 42q-18 90 8 162t53 80zM385 1634q14 50 63.5 84.5t112.5 -0.5q35 -109 78 -174q10 -28 4.5 -47t-22 -24.5t-38.5 -7t-44 4.5q-77 29 -119.5 84t-34.5 80z" />
    <glyph glyph-name="udieresis" unicode="&#xfc;" horiz-adv-x="839" 
d="M0 946q-3 130 13.5 242.5t35.5 165.5t33 59q45 16 92 1t81.5 -47t29.5 -54q-28 -116 -38.5 -214.5t-5 -163.5t20 -116.5t33.5 -80t39.5 -47.5t34 -25t20.5 -7q13 -1 34.5 9t48.5 35t50.5 60.5t39.5 93t16 124.5q0 80 -6.5 146.5t-16 104.5t-19 65t-16.5 37l-6 9l-8 3
q1 0 2 0.5t4.5 2t5.5 3t3.5 4t0.5 4.5q-12 12 -12 14q0 19 25 29q20 8 42 8.5t46 -7t47.5 -25t45 -43t40 -62t32 -81t21 -102t6.5 -122.5q-2 -153 -49.5 -279t-138 -202t-205.5 -74q-77 1 -145.5 35.5t-117.5 90.5t-85 125.5t-54.5 141.5t-19.5 139zM45 279q74 43 193 61
t229.5 11t200.5 -34t112 -67l-10 2l27 -33l-17 -4q4 -5 9 -12.5t13.5 -23t6.5 -21.5l-23 -82l-18 10q-240 33 -604 -82q-49 -16 -84 6t-48.5 66t-10.5 99.5t24 103.5zM94 1743q27 22 67 30.5t89.5 -10t83.5 -69.5q4 -21 2.5 -42.5t-8 -47.5t-13 -44.5t-12.5 -34t-6 -16.5
q-3 -22 -46.5 -30.5t-84.5 8.5q-48 72 -69.5 156t-2.5 100zM436 1743q27 22 67 30.5t89.5 -10t83.5 -69.5q4 -21 2.5 -42.5t-8 -47.5t-13 -44.5t-12.5 -34t-6 -16.5q-3 -22 -45.5 -30.5t-85.5 8.5q-48 72 -69.5 156t-2.5 100z" />
    <glyph glyph-name="yacute" unicode="&#xfd;" 
d="M971 1405q54 -7 90.5 -33t50 -59t18 -55.5t3.5 -36.5q0 -2 -13.5 -51t-32 -122t-41 -179.5t-41 -222.5t-32.5 -252t-15 -267t11 -268q-1 -8 -5.5 -37.5t-5.5 -44.5q0 -2 -8 52.5t-16 109.5l-8 55l24 -260q-2 -34 -6 -76l-3 16l-3 15q0 -2 2 -29t2 -29q-2 -44 -1.5 -63.5
t2 -34.5t1.5 -16q0 -2 -7 3q-1 2 -3 3q0 -6 -6 -19t-10 -16q-16 -10 -31 -15.5t-29 -4t-20 13.5q-212 417 -162 1065q-21 -56 -52 -141t-48 -131t-38 -98t-36.5 -79t-28.5 -37q-34 -27 -131 -16q-82 11 -136.5 71.5t-78.5 153t-34.5 203.5t-11 231.5t-1.5 227.5t-11.5 201
t-35.5 143q-5 11 -13.5 21t-13.5 14l-6 4q0 110 160 88q48 -6 82 -23.5t56 -42.5t34.5 -68.5t18 -88t7.5 -116.5t2 -138.5t2 -168.5t7 -194q14 -2 87 135t171.5 324t152.5 266q1 6 2 17.5t2 17.5q4 33 27.5 53.5t53 25t59.5 6.5t47 -3zM694 1878q33 -9 66.5 -32.5t62 -60.5
t30.5 -84t-28 -104q-57 -18 -105 -37t-77.5 -33.5t-50 -25.5t-31.5 -18t-12 -8q-38 -16 -62 -11t-38 19.5t-19.5 40.5t-4.5 52.5t7 55.5q25 64 64.5 116.5t78 80t71 41t48.5 8.5z" />
    <glyph glyph-name="thorn" unicode="&#xfe;" horiz-adv-x="423" 
 />
    <glyph glyph-name="ydieresis" unicode="&#xff;" horiz-adv-x="1120" 
d="M971 1405q54 -7 90.5 -33t50 -59t18 -55.5t3.5 -36.5q0 -2 -13.5 -51t-32 -122t-41 -179.5t-41 -222.5t-32.5 -252t-15 -267t11 -268q-1 -8 -5.5 -37.5t-5.5 -44.5q0 -2 -8 52.5t-16 109.5l-8 55l24 -260q-2 -34 -6 -76l-3 16l-3 15q0 -2 2 -29t2 -29q-2 -44 -1.5 -63.5
t2 -34.5t1.5 -16q0 -2 -7 3q-1 2 -3 3q0 -6 -6 -19t-10 -16q-16 -10 -31 -15.5t-29 -4t-20 13.5q-212 417 -162 1065q-21 -56 -52 -141t-48 -131t-38 -98t-36.5 -79t-28.5 -37q-34 -27 -131 -16q-82 11 -136.5 71.5t-78.5 153t-34.5 203.5t-11 231.5t-1.5 227.5t-11.5 201
t-35.5 143q-5 11 -13.5 21t-13.5 14l-6 4q0 110 160 88q48 -6 82 -23.5t56 -42.5t34.5 -68.5t18 -88t7.5 -116.5t2 -138.5t2 -168.5t7 -194q14 -2 87 135t171.5 324t152.5 266q1 6 2 17.5t2 17.5q4 33 27.5 53.5t53 25t59.5 6.5t47 -3zM240 1784q27 22 66.5 30.5t89 -9.5
t83.5 -70q4 -21 2.5 -42.5t-8 -47.5t-13 -44.5t-12.5 -34t-6 -16.5q-3 -22 -46.5 -30.5t-84.5 8.5q-48 72 -69 156t-2 100zM705 1784q27 22 66.5 30.5t89 -9.5t83.5 -70q4 -21 2.5 -42.5t-8 -47.5t-13 -44.5t-12.5 -34t-6 -16.5q-3 -22 -45.5 -30.5t-85.5 8.5
q-48 72 -69 156t-2 100z" />
    <glyph glyph-name="Cacute" unicode="&#x106;" horiz-adv-x="1054" 
d="M711 1870q33 -9 66.5 -32.5t62 -60.5t30.5 -84t-28 -104q-57 -18 -105 -37.5t-78 -33.5t-50 -25.5t-31.5 -18.5t-12.5 -8q-44 -17 -73 -8.5t-38.5 35.5t-11.5 61.5t7 69.5q25 64 64.5 116.5t78 80t71 41t48.5 8.5zM1044 676q27 -110 21 -209.5t-49 -184.5t-108.5 -147
t-158.5 -97.5t-198 -35.5q-70 0 -137.5 17.5t-131 51.5t-116 89t-91 125.5t-58.5 165.5t-17 204q12 343 227 552q146 142 337 183q152 33 247 -13q74 -35 72 -105q-2 -74 -35.5 -156.5t-79.5 -101.5q-167 78 -300 29.5t-216.5 -168t-87.5 -250.5q-2 -49 25.5 -103.5
t75.5 -101t120.5 -77t151.5 -30.5q75 0 148 28t127.5 71t97.5 92.5t65.5 95.5t23.5 78q3 34 13 33.5t21 -17.5z" />
    <glyph glyph-name="cacute" unicode="&#x107;" horiz-adv-x="1058" 
d="M711 1870q33 -9 66.5 -32.5t62 -60.5t30.5 -84t-28 -104q-57 -18 -105 -37.5t-78 -33.5t-50 -25.5t-31.5 -18.5t-12.5 -8q-44 -17 -73 -8.5t-38.5 35.5t-11.5 61.5t7 69.5q25 64 64.5 116.5t78 80t71 41t48.5 8.5zM1044 676q27 -110 21 -209.5t-49 -184.5t-108.5 -147
t-158.5 -97.5t-198 -35.5q-70 0 -137.5 17.5t-131 51.5t-116 89t-91 125.5t-58.5 165.5t-17 204q12 343 227 552q146 142 337 183q152 33 247 -13q74 -35 72 -105q-2 -74 -35.5 -156.5t-79.5 -101.5q-167 78 -300 29.5t-216.5 -168t-87.5 -250.5q-2 -49 25.5 -103.5
t75.5 -101t120.5 -77t151.5 -30.5q75 0 148 28t127.5 71t97.5 92.5t65.5 95.5t23.5 78q3 34 13 33.5t21 -17.5z" />
    <glyph glyph-name="Ccaron" unicode="&#x10c;" horiz-adv-x="1054" 
d="M258 1503q-20 28 -32 68t-12.5 85t28 86.5t84.5 63.5q56 -21 132.5 -32.5t146.5 -13.5t131 -1t100 3t41 1q46 -14 63.5 -38.5t9 -52.5t-28 -54.5t-47.5 -50.5q-78 -47 -225 -68.5t-262.5 -17.5t-128.5 22zM1044 676q27 -110 21 -209.5t-49 -184.5t-108.5 -147
t-158.5 -97.5t-198 -35.5q-70 0 -137.5 17.5t-131 51.5t-116 89t-91 125.5t-58.5 165.5t-17 204q12 343 227 552q146 142 337 183q152 33 247 -13q74 -35 72 -105q-2 -74 -35.5 -156.5t-79.5 -101.5q-167 78 -300 29.5t-216.5 -168t-87.5 -250.5q-2 -49 25.5 -103.5
t75.5 -101t120.5 -77t151.5 -30.5q75 0 148 28t127.5 71t97.5 92.5t65.5 95.5t23.5 78q3 34 13 33.5t21 -17.5z" />
    <glyph glyph-name="ccaron" unicode="&#x10d;" horiz-adv-x="1058" 
d="M258 1503q-20 28 -32 68t-12.5 85t28 86.5t84.5 63.5q56 -21 132.5 -32.5t146.5 -13.5t131 -1t100 3t41 1q46 -14 63.5 -38.5t9 -52.5t-28 -54.5t-47.5 -50.5q-78 -47 -225 -68.5t-262.5 -17.5t-128.5 22zM1044 676q27 -110 21 -209.5t-49 -184.5t-108.5 -147
t-158.5 -97.5t-198 -35.5q-70 0 -137.5 17.5t-131 51.5t-116 89t-91 125.5t-58.5 165.5t-17 204q12 343 227 552q146 142 337 183q152 33 247 -13q74 -35 72 -105q-2 -74 -35.5 -156.5t-79.5 -101.5q-167 78 -300 29.5t-216.5 -168t-87.5 -250.5q-2 -49 25.5 -103.5
t75.5 -101t120.5 -77t151.5 -30.5q75 0 148 28t127.5 71t97.5 92.5t65.5 95.5t23.5 78q3 34 13 33.5t21 -17.5z" />
    <glyph glyph-name="Dcroat" unicode="&#x110;" horiz-adv-x="1239" 
d="M-12 1360q12 13 52.5 24t102.5 18.5t139.5 6t162.5 -11.5t173.5 -37.5t171 -67.5t155 -106t126.5 -149t85 -200.5t30 -256.5q-1 -107 -35 -197t-88 -150t-127 -107t-145 -73.5t-149.5 -43t-133 -22t-102.5 -5.5q-34 0 -54 2l-14 -27l-35 2l-20 -53l-25 8q-12 -27 -16 -27
q-6 23 -9 125q-43 17 -80.5 40t-75.5 62.5t-64.5 89.5t-43 123t-16.5 160q1 3 3.5 7.5t8 12.5t10 10.5t8 -5.5t3.5 -29q0 -41 68 -90.5t171 -77.5q-2 70 -6 265q-77 -9 -151 -35q-56 22 -84.5 63.5t-28 86.5t12.5 85t32 68q9 11 68 17t139 3q-6 167 -10 207q-57 -7 -148 -33
q-26 10 -49.5 50t-35.5 89t-7 100t31 79zM403 293h9v254l-19 -254h10zM1018 649q3 49 -39 115t-113 128.5t-176.5 113t-216.5 67.5q0 -25 -1 -114.5t-1 -120.5q85 -19 145 -54q28 -24 47 -50.5t28 -54.5t-9 -52.5t-64 -38.5l-20 1q-21 1 -58.5 2.5t-76.5 2.5
q-7 -208 -12 -301q125 11 255.5 66.5t218.5 135t93 154.5z" />
    <glyph glyph-name="dotlessi" unicode="&#x131;" horiz-adv-x="1652" 
 />
    <glyph glyph-name="Lslash" unicode="&#x141;" horiz-adv-x="856" 
 />
    <glyph glyph-name="lslash" unicode="&#x142;" horiz-adv-x="700" 
 />
    <glyph glyph-name="OE" unicode="&#x152;" horiz-adv-x="1687" 
 />
    <glyph glyph-name="oe" unicode="&#x153;" horiz-adv-x="1857" 
 />
    <glyph glyph-name="Scaron" unicode="&#x160;" horiz-adv-x="1021" 
d="M176 1532q-19 28 -30 68t-10.5 85t30 86t86.5 62q55 -22 131 -35t145.5 -17t130.5 -4.5t100 1t40 0.5q46 -15 63.5 -39.5t8 -53t-29 -54.5t-48.5 -50q-60 -34 -164.5 -53t-200 -21t-169 5t-83.5 20zM797 1466q7 -4 18.5 -11.5t36 -35t37.5 -58t9.5 -81t-34.5 -104.5
q-109 0 -248.5 -26t-228 -53.5t-88.5 -35.5q0 -7 41.5 -22t108 -38t146.5 -55t159.5 -80.5t143.5 -107t102 -142t32 -178.5q-7 -110 -41 -192.5t-84.5 -132.5t-123 -80.5t-147 -41.5t-165.5 -11q-81 0 -156.5 31.5t-129.5 81t-94.5 109.5t-59.5 119.5t-17 108.5q4 71 15 137
t19 97l9 30q-6 -83 -6 -200q1 44 7.5 99.5t13.5 88.5l6 33l31 39l12 -25q-18 -297 189 -388q139 -61 336 -18q129 29 190 78q22 19 24 33q2 31 -35 61.5t-98 55t-140 54t-161 57.5t-160 66t-138.5 79t-96 97.5t-31.5 119.5q10 162 33 168q4 63 79 114.5t176 80t215.5 47.5
t188.5 25.5t105 6.5z" />
    <glyph glyph-name="scaron" unicode="&#x161;" horiz-adv-x="1028" 
d="M176 1532q-19 28 -30 68t-10.5 85t30 86t86.5 62q55 -22 131 -35t145.5 -17t130.5 -4.5t100 1t40 0.5q46 -15 63.5 -39.5t8 -53t-29 -54.5t-48.5 -50q-60 -34 -164.5 -53t-200 -21t-169 5t-83.5 20zM797 1466q7 -4 18.5 -11.5t36 -35t37.5 -58t9.5 -81t-34.5 -104.5
q-109 0 -248.5 -26t-228 -53.5t-88.5 -35.5q0 -7 41.5 -22t108 -38t146.5 -55t159.5 -80.5t143.5 -107t102 -142t32 -178.5q-7 -110 -41 -192.5t-84.5 -132.5t-123 -80.5t-147 -41.5t-165.5 -11q-81 0 -156.5 31.5t-129.5 81t-94.5 109.5t-59.5 119.5t-17 108.5q4 71 15 137
t19 97l9 30q-6 -83 -6 -200q1 44 7.5 99.5t13.5 88.5l6 33l31 39l12 -25q-18 -297 189 -388q139 -61 336 -18q129 29 190 78q22 19 24 33q2 31 -35 61.5t-98 55t-140 54t-161 57.5t-160 66t-138.5 79t-96 97.5t-31.5 119.5q10 162 33 168q4 63 79 114.5t176 80t215.5 47.5
t188.5 25.5t105 6.5z" />
    <glyph glyph-name="Zcaron" unicode="&#x17d;" horiz-adv-x="1323" 
d="M313 1509q-20 28 -32 68t-12.5 85t28 86.5t84.5 63.5q56 -21 132.5 -32.5t146.5 -13.5t131 -1t100 3t41 1q46 -14 64 -38.5t9 -52.5t-28 -54.5t-47 -50.5q-78 -47 -225.5 -68.5t-263 -17.5t-128.5 22zM1286 565q12 -30 12 -67q0 -141 -73.5 -252.5t-190.5 -169.5
t-258.5 -85t-282 1.5t-256.5 88.5t-186.5 177t-66.5 266q2 97 27 179.5t63 142t97.5 113t117.5 90t135 75.5q-53 3 -115.5 -0.5t-102 -7.5t-72.5 -3t-44 11q-110 92 -43 291q22 -3 62 -7t160.5 -12t238 -10t276.5 6.5t295 30.5l6 -9t16 -25t21 -36t21 -42.5t16 -45t7 -43
t-7 -36.5q-4 -11 -16 -17q7 -43 -3.5 -71t-41.5 -27q-152 1 -303 -38.5t-266.5 -102t-206.5 -136t-139 -145t-48 -125.5q0 -68 55.5 -118t144 -72.5t196 -29.5t215 10t196 46.5t144 79.5t55.5 109v2q-12 41 -51.5 72.5t-85 48t-102.5 27.5t-93.5 14t-69.5 4l-2 26l-39 17
q45 8 115 16q-16 5 -40 6.5t-40 0.5l-16 -1l-60 11l138 12l-93 16l-57 15l80 18q-57 15 -92 33q21 5 41.5 8.5t64 6t84 0t94.5 -15t102.5 -34.5t101 -62.5t96.5 -95.5q56 -74 69 -129z" />
    <glyph glyph-name="zcaron" unicode="&#x17e;" horiz-adv-x="1241" 
d="M313 1509q-20 28 -32 68t-12.5 85t28 86.5t84.5 63.5q56 -21 132.5 -32.5t146.5 -13.5t131 -1t100 3t41 1q46 -14 64 -38.5t9 -52.5t-28 -54.5t-47 -50.5q-78 -47 -225.5 -68.5t-263 -17.5t-128.5 22zM1286 565q12 -30 12 -67q0 -141 -73.5 -252.5t-190.5 -169.5
t-258.5 -85t-282 1.5t-256.5 88.5t-186.5 177t-66.5 266q2 97 27 179.5t63 142t97.5 113t117.5 90t135 75.5q-53 3 -115.5 -0.5t-102 -7.5t-72.5 -3t-44 11q-110 92 -43 291q22 -3 62 -7t160.5 -12t238 -10t276.5 6.5t295 30.5l6 -9t16 -25t21 -36t21 -42.5t16 -45t7 -43
t-7 -36.5q-4 -11 -16 -17q7 -43 -3.5 -71t-41.5 -27q-152 1 -303 -38.5t-266.5 -102t-206.5 -136t-139 -145t-48 -125.5q0 -68 55.5 -118t144 -72.5t196 -29.5t215 10t196 46.5t144 79.5t55.5 109v2q-12 41 -51.5 72.5t-85 48t-102.5 27.5t-93.5 14t-69.5 4l-2 26l-39 17
q45 8 115 16q-16 5 -40 6.5t-40 0.5l-16 -1l-60 11l138 12l-93 16l-57 15l80 18q-57 15 -92 33q21 5 41.5 8.5t64 6t84 0t94.5 -15t102.5 -34.5t101 -62.5t96.5 -95.5q56 -74 69 -129z" />
    <glyph glyph-name="florin" unicode="&#x192;" horiz-adv-x="1071" 
d="M1022 1409q14 -13 29.5 -47.5t21.5 -79t-2.5 -85t-49.5 -65.5t-112 -20l-766 12l-71 19l16 22l-39 17l-57 14l18 21l-30 26l34 25l-82 8q-16 27 -18 37q17 2 273.5 20t515.5 40t319 36zM379 952q271 12 518 -6q0 -5 -4 -15.5t-8 -18.5l-4 -7l-9 -45l-67 -29l26 -6
l-69 -34l2 -21l-78 -12l-14 -23q-76 -27 -107 -35q-10 0 -123 -18q-8 -117 -20.5 -206.5t-24.5 -133t-23 -71t-18 -33.5l-6 -5l-12 17l-12 -51l-25 -6l-31 -78l-59 -37l-37 -49l-18 10l-17 -53q-20 -25 -28 -25q-3 28 3 231t6 432.5t-18 333.5q0 8 8 19t23 16
q167 47 246 -41z" />
    <glyph glyph-name="circumflex" unicode="&#x2c6;" 
 />
    <glyph glyph-name="caron" unicode="&#x2c7;" 
 />
    <glyph glyph-name="breve" unicode="&#x2d8;" 
 />
    <glyph glyph-name="dotaccent" unicode="&#x2d9;" 
 />
    <glyph glyph-name="ring" unicode="&#x2da;" 
 />
    <glyph glyph-name="ogonek" unicode="&#x2db;" 
 />
    <glyph glyph-name="tilde" unicode="&#x2dc;" 
 />
    <glyph glyph-name="hungarumlaut" unicode="&#x2dd;" 
 />
    <glyph glyph-name="endash" unicode="&#x2013;" horiz-adv-x="774" 
d="M35 666q73 38 189 46t223 -8.5t194 -52t109 -78.5q1 -3 -6 0l-5 2l27 -36l-18 -2q4 -5 9 -13.5t13 -25.5t6 -23l-24 -82l-17 13q-234 56 -585 -33q-48 -12 -82.5 14t-47.5 72.5t-9.5 103t24.5 103.5z" />
    <glyph glyph-name="emdash" unicode="&#x2014;" horiz-adv-x="1171" 
d="M35 666q72 38 249.5 46t358 -8.5t329 -52.5t169.5 -78q1 -3 -6 0l-5 2l27 -36l-18 -2q4 -5 9 -13.5t13 -25.5t6 -23l-24 -82l-17 13q-169 33 -504 17.5t-472 -50.5q-48 -12 -82.5 14t-47.5 72.5t-9.5 103t24.5 103.5z" />
    <glyph glyph-name="quoteleft" unicode="&#x2018;" horiz-adv-x="376" 
d="M41 1626q27 21 65.5 35t83 16.5t87 -23.5t67.5 -81q-18 -57 -25.5 -134t-6.5 -146.5t4.5 -130t7.5 -100t4 -40.5q-12 -47 -35 -66t-51 -12t-54.5 25t-52.5 45q-39 57 -65.5 160t-35 198t-7 169.5t13.5 84.5z" />
    <glyph glyph-name="quoteright" unicode="&#x2019;" horiz-adv-x="401" 
d="M307 1634q57 -150 20 -347t-139 -302q48 70 74.5 148.5t28.5 121.5l2 43q-7 -30 -20 -75.5t-48.5 -134t-66.5 -115.5v16q-5 -2 -12.5 -6t-22.5 -9t-19 -3l-55 18l-4 27q62 214 8 545q-9 60 33 89.5t105 23t116 -39.5z" />
    <glyph glyph-name="quotesinglbase" unicode="&#x201a;" 
 />
    <glyph glyph-name="quotedblleft" unicode="&#x201c;" horiz-adv-x="538" 
d="M-37 1544q24 19 41.5 29.5t43.5 18t46.5 1t44.5 -31.5t45 -70q-18 -57 -25.5 -134.5t-6.5 -147.5t4.5 -131.5t7.5 -101t4 -40.5q-8 -33 -15.5 -50t-13.5 -24t-15.5 -1.5t-16.5 13.5t-22.5 26.5t-27.5 31.5q-39 57 -65.5 160t-35 198t-7 169.5t13.5 84.5zM258 1528
q30 22 62.5 35t70 16.5t71 -22.5t54.5 -80q-22 -57 -36 -145t-19.5 -173.5t-7 -161.5t-1 -126.5t0.5 -51.5q-12 -38 -27 -57t-28 -23t-31.5 8t-31.5 24.5t-34 37.5q-34 57 -52 176.5t-19 234.5t7 206t21 102z" />
    <glyph glyph-name="quotedblright" unicode="&#x201d;" horiz-adv-x="575" 
d="M569 1544q12 -10 13.5 -84.5t-7 -169.5t-35 -198t-65.5 -160q-12 -13 -27.5 -31.5t-22 -26.5t-16 -13.5t-15.5 1.5t-13.5 24t-15.5 50q0 1 4 40.5t7.5 101t4.5 131.5t-7 147.5t-26 134.5q21 45 45 70t44.5 31.5t46.5 -1t43.5 -18t41.5 -29.5zM274 1528q13 -11 21 -102
t7 -206t-19 -234.5t-52 -176.5q-22 -25 -34 -37.5t-30.5 -24.5t-31.5 -8t-28 23t-27 57q0 1 0.5 51.5t-1.5 126.5t-7 161.5t-19.5 173.5t-36.5 145q21 54 54.5 80t71 22.5t70 -16.5t62.5 -35z" />
    <glyph glyph-name="quotedblbase" unicode="&#x201e;" 
 />
    <glyph glyph-name="dagger" unicode="&#x2020;" horiz-adv-x="995" 
d="M911 975q31 -5 54.5 -37.5t31 -77t5 -88.5t-23.5 -76.5t-54 -36.5q-11 -2 -57 2.5t-125.5 11t-149.5 9.5q-27 -580 -10 -958q0 -4 -11.5 -15t-32 -20t-44.5 -11t-52 16t-51 56q-46 255 -31 928q-162 -14 -254 -53q-49 -20 -79 55q-32 78 -18 176q14 106 73 125l6 2
q129 27 281 33q19 568 4 676q4 2 10.5 4.5t25.5 7.5t38 7.5t44 1.5t46.5 -8.5t42.5 -26t34 -46.5q9 -18 12.5 -66.5t0.5 -146t-6.5 -174.5t-12.5 -235q153 -10 303 -35z" />
    <glyph glyph-name="daggerdbl" unicode="&#x2021;" horiz-adv-x="628" 
d="M199 1673q4 2 10.5 4.5t26 7.5t38 8t44 1.5t47 -9t42.5 -25.5t35 -46q17 -35 11.5 -227.5t-22.5 -458.5t-25.5 -592t2.5 -629q1 -4 -11 -15t-32 -20t-44 -10.5t-52 16.5t-50 56q-29 154 -34 458t5.5 585t15 548.5t-6.5 347.5z" />
    <glyph glyph-name="bullet" unicode="&#x2022;" horiz-adv-x="585" 
d="M131 778q29 22 66.5 36.5t81.5 18t87 -23.5t70 -84q29 -59 21 -122.5t-51 -108.5q-39 -41 -124 -47.5t-135 30.5q-46 37 -63 87.5t-7.5 94t25 76t29.5 43.5z" />
    <glyph glyph-name="ellipsis" unicode="&#x2026;" horiz-adv-x="1093" 
d="M10 406q27 21 65.5 32.5t83.5 10.5t92.5 -28.5t82.5 -80.5q9 -29 2 -74t-17.5 -78.5t-22.5 -64.5l-11 -31q-3 -29 -61.5 -42t-114.5 9q-65 100 -94.5 212.5t-4.5 134.5zM375 406q27 21 65 32.5t83 10.5t92.5 -28.5t82.5 -80.5q9 -29 2 -74t-17.5 -78.5t-22.5 -64.5
l-11 -31q-3 -29 -61.5 -42t-114.5 9q-65 100 -94 212.5t-4 134.5zM739 406q27 21 65.5 32.5t83.5 10.5t92.5 -28.5t82.5 -80.5q9 -29 2 -74t-17.5 -78.5t-21.5 -64.5l-12 -31q-3 -29 -61.5 -42t-114.5 9q-65 100 -94.5 212.5t-4.5 134.5z" />
    <glyph glyph-name="perthousand" unicode="&#x2030;" horiz-adv-x="628" 
d="M629 1591h21t47 -6.5t61 -19t50.5 -42.5t27.5 -73q3 -39 -61 -191t-155 -344.5t-212 -485.5t-207 -554q-1 -4 -15.5 -10t-36.5 -7t-45 5.5t-43 33t-28 70.5q27 154 119 409t187.5 478.5t183.5 439.5t106 297z" />
    <glyph glyph-name="guilsinglleft" unicode="&#x2039;" 
 />
    <glyph glyph-name="guilsinglright" unicode="&#x203a;" 
 />
    <glyph glyph-name="fraction" unicode="&#x2044;" horiz-adv-x="817" 
d="M604 1591h21t47 -6.5t61 -19t50.5 -42.5t27.5 -73q3 -39 -61 -191t-155 -344.5t-212 -485.5t-207 -554q-1 -4 -15.5 -10t-36.5 -7t-45 5.5t-43 33t-28 70.5q27 154 119 409t187.5 478.5t183.5 439.5t106 297z" />
    <glyph glyph-name="Euro" unicode="&#x20ac;" horiz-adv-x="1153" 
d="M1149 702q20 -97 16.5 -187t-21.5 -167.5t-63.5 -140.5t-110 -107t-160.5 -66t-216 -18q-91 3 -178.5 33.5t-164.5 87.5t-133 150t-77 211q-8 0 -18.5 -1t-12.5 -1q-27 2 -35.5 69.5t10.5 144.5t60 101q56 285 286 452q166 121 366 144q159 19 246 -35q57 -36 56 -94
q-2 -75 -35 -156t-81 -100q-106 46 -207.5 51t-181 -27t-141 -85t-101.5 -123q189 7 641 -11q-18 -62 -91.5 -136.5t-152.5 -104.5q-7 0 -420 -62q47 -79 142 -135.5t209 -60.5q104 -3 194.5 25t148.5 72.5t100.5 98t61 100.5t19.5 81q2 59 35 12z" />
    <glyph glyph-name="trademark" unicode="&#x2122;" horiz-adv-x="933" 
d="M846 1540q2 -65 8 -134.5t11 -106.5l5 -37l-8 -25h-6l-4 -18l-6 -19l-8 -2l-2 -14q-9 0 -11 -2q-1 0 -2 -3t-2 -3q-51 87 -78 286q-61 -176 -81 -227q-4 -7 -21.5 -12.5t-35.5 2.5t-21 35q-3 6 -30 68t-44 102l-25 -177h-10l-26 -43l-19 -6l-4 -10q-1 1 -3.5 2t-7 3
t-7.5 1q-3 -2 -8 -10t-7 -8q20 230 17 393q-2 -1 -17 -6q-34 0 -84 -4q-2 -64 -6.5 -142t-8.5 -124l-3 -46l-15 -34l-6 2l-10 -27q-4 6 -10 0l-6 -16l-4 2l-11 -15l-6 17q-6 -23 -10 -25q-1 8 -2.5 75t-5 161.5t-6.5 158.5q-31 -3 -60 -8t-44.5 -7.5t-20.5 -2.5
q-27 0 -40.5 31.5t-7.5 64t25 35.5q78 8 142 8q0 1 6 4q37 11 67 -4q66 -2 211 -10q63 4 74 -33q60 -204 67 -231q29 72 107 233v15q25 15 62.5 15.5t52.5 -20.5q6 -13 6 -102z" />
    <glyph glyph-name="fi" unicode="&#xfb01;" horiz-adv-x="1255" 
d="M971 1464q36 3 69 -1t70.5 -24t64 -56t43 -103t13.5 -158q-7 -188 -22 -418.5t-27 -366.5l-11 -136l-14 18l-10 -51l-25 -6l-26 -76l-60 -35l-35 -47l-16 14l-16 -55q-19 -22 -27 -22q-4 27 -7 245.5t-9 517.5t-17 480q-32 -8 -61 -8q-4 0 -73 -4.5t-184.5 -12
t-203.5 -12.5l-6 -172q243 26 457 26q0 -5 -4 -16t-8 -19l-5 -8l-6 -49l-63 -35l24 -2l-65 -43l2 -20l-74 -18l-14 -25q-72 -35 -103 -47q-3 0 -155 -39l-29 -418l-14 17l-9 -52l-24 -6l-27 -78l-59 -37l-35 -49l-18 11l-17 -54q-16 -24 -24 -24q-5 26 -10.5 218t-13.5 472
t-19 459l-25 6l14 24l-39 13l-55 12l19 20l-31 27l33 29l-80 2q-17 25 -17 37q12 2 166 26q-5 66 -16 117q-2 7 6.5 18t22.5 15q33 10 66 13.5t77.5 -0.5t83.5 -33.5t63 -82.5q508 83 592 111q10 -7 23 -29z" />
    <glyph glyph-name="fl" unicode="&#xfb02;" horiz-adv-x="1771" 
 />
    <glyph glyph-name="CR" horiz-adv-x="536" 
 />
    <glyph glyph-name="_0007" horiz-adv-x="0" 
 />
    <glyph glyph-name="_0009" horiz-adv-x="0" 
 />
    </font>
</defs>
</svg>
