<?xml version="1.0" standalone="no"?>
<!DOCTYPE svg PUBLIC "-//W3C//DTD SVG 20010904//EN"
 "http://www.w3.org/TR/2001/REC-SVG-20010904/DTD/svg10.dtd">
<svg version="1.0" xmlns="http://www.w3.org/2000/svg"
 width="260.000000pt" height="260.000000pt" viewBox="0 0 260.000000 260.000000"
 preserveAspectRatio="xMidYMid meet">
<metadata>
Created by potrace 1.14, written by Peter Selinger 2001-2017
</metadata>
<g transform="translate(0.000000,260.000000) scale(0.100000,-0.100000)"
fill="#000000" stroke="none">
<path d="M0 1300 l0 -1300 1300 0 1300 0 0 1300 0 1300 -1300 0 -1300 0 0
-1300z m2322 733 c10 -9 18 -26 18 -39 0 -13 8 -39 17 -58 l16 -36 -49 -95
c-76 -148 -91 -176 -103 -188 -6 -6 -11 -17 -11 -24 0 -7 -13 -35 -30 -61 -36
-58 -67 -70 -185 -72 -122 -2 -119 -2 -105 15 7 9 20 13 29 10 9 -2 30 -1 46
4 17 5 22 10 12 10 -26 1 -43 52 -23 67 9 6 16 25 16 42 0 30 -2 31 -57 38
-32 4 -76 8 -98 8 l-40 1 -3 -106 -3 -107 128 -7 c152 -8 157 -9 144 -32 -21
-40 -41 -92 -41 -106 0 -9 -4 -19 -10 -22 -5 -3 -10 -17 -10 -30 0 -41 -34
-55 -132 -55 -48 0 -89 -4 -93 -9 -3 -6 -8 -97 -11 -203 -3 -106 -7 -203 -10
-215 -2 -11 -22 -44 -44 -72 -30 -38 -50 -53 -82 -62 -24 -7 -47 -16 -52 -21
-6 -4 -22 -8 -36 -8 -14 0 -34 -6 -45 -14 -11 -7 -36 -16 -55 -18 -19 -3 -42
-7 -50 -9 -22 -6 -26 83 -6 126 9 18 16 51 16 73 0 23 5 44 10 47 6 3 10 17
10 30 0 18 15 35 55 65 l56 41 -5 142 c-5 139 -5 141 -28 142 -21 0 -23 5 -26
59 -2 41 1 63 12 75 8 9 16 30 18 46 2 25 7 29 26 27 18 -3 22 1 22 26 0 16 7
43 15 58 8 16 15 48 15 71 0 24 5 43 13 46 24 9 -9 42 -52 51 -37 8 -41 12
-42 40 -1 17 -2 60 -4 95 l-2 63 36 16 c34 14 110 31 241 52 30 5 91 16 135
25 44 9 103 20 130 24 69 11 174 31 210 41 49 13 77 11 97 -7z m-1207 -278 c0
-198 0 -200 -21 -197 -14 2 -23 -4 -27 -17 -3 -14 -11 -18 -26 -14 -25 6 -51
-12 -51 -36 0 -9 18 -36 40 -60 22 -23 40 -48 40 -55 0 -7 11 -23 25 -36 14
-13 25 -28 25 -34 0 -6 11 -23 23 -37 21 -22 25 -37 29 -138 5 -105 4 -114
-13 -118 -11 -3 -19 -9 -19 -14 0 -5 -9 -9 -20 -9 -10 0 -23 -6 -27 -13 -9
-14 -41 -35 -65 -43 -10 -4 -18 -10 -18 -15 0 -5 -9 -9 -20 -9 -11 0 -23 -7
-26 -15 -4 -8 -14 -15 -24 -15 -11 0 -22 -4 -25 -10 -11 -18 -20 -11 -39 28
-10 20 -24 50 -32 65 -8 16 -14 36 -14 45 0 8 -6 23 -14 31 -7 9 -16 35 -19
59 -5 41 -4 44 24 54 31 11 38 32 15 41 -11 4 -13 16 -9 41 4 27 2 37 -11 42
-10 4 -16 18 -16 39 0 21 -6 35 -16 39 -12 5 -15 14 -11 36 7 34 -5 46 -26 25
-9 -8 -25 -15 -37 -15 -11 0 -23 -7 -26 -15 -4 -8 -16 -15 -29 -15 -13 0 -25
-6 -28 -14 -3 -8 -20 -14 -41 -14 -38 0 -56 18 -56 57 0 12 -4 21 -10 21 -6 0
-10 35 -10 85 0 52 4 85 10 85 6 0 24 14 40 30 16 17 33 29 37 28 5 -2 22 9
38 25 17 15 36 25 42 22 7 -2 17 5 23 15 6 11 20 20 30 20 11 0 20 5 20 10 0
6 7 10 15 10 8 0 15 4 15 10 0 5 16 17 36 26 20 9 38 23 41 31 3 7 13 13 23
13 9 0 29 11 44 25 15 14 31 25 37 25 5 0 22 11 37 25 15 14 33 25 40 25 7 0
20 7 29 15 8 9 23 15 32 13 14 -3 16 -26 16 -203z m-570 -435 c3 -5 1 -10 -4
-10 -6 0 -11 5 -11 10 0 6 2 10 4 10 3 0 8 -4 11 -10z m161 -143 l1 -82 32 3
c23 3 33 -1 37 -15 5 -16 20 -56 46 -123 5 -14 16 -38 24 -53 8 -16 14 -36 14
-45 0 -21 -42 -62 -64 -62 -9 0 -16 -4 -16 -10 0 -5 -7 -10 -15 -10 -12 0
-108 -53 -165 -91 -8 -5 -23 -12 -32 -15 -10 -4 -18 -10 -18 -15 0 -5 -5 -9
-11 -9 -7 0 -40 -18 -75 -40 -66 -42 -65 -42 -91 9 -14 26 -19 271 -5 271 4 0
23 30 42 68 19 37 37 69 40 72 6 5 60 107 89 168 11 22 22 32 38 32 13 0 23 5
23 10 0 6 13 10 30 10 16 0 35 6 42 14 23 25 33 -1 34 -87z"/>
</g>
</svg>
